<?xml version="1.0" encoding="UTF-8"?>
<!DOCTYPE svg PUBLIC "-//W3C//DTD SVG 1.1//EN" "http://www.w3.org/Graphics/SVG/1.1/DTD/svg11.dtd">
<svg xmlns="http://www.w3.org/2000/svg" version="1.1" width="249px" height="249px" style="shape-rendering:geometricPrecision; text-rendering:geometricPrecision; image-rendering:optimizeQuality; fill-rule:evenodd; clip-rule:evenodd" xmlns:xlink="http://www.w3.org/1999/xlink">
<g><path style="opacity:0.99" fill="#fefefe" d="M -0.5,-0.5 C 82.5,-0.5 165.5,-0.5 248.5,-0.5C 248.5,82.5 248.5,165.5 248.5,248.5C 165.5,248.5 82.5,248.5 -0.5,248.5C -0.5,165.5 -0.5,82.5 -0.5,-0.5 Z"/></g>
<g><path style="opacity:1" fill="#0d0d0d" d="M 218.5,67.5 C 181.312,27.6199 136.979,16.7865 85.5,35C 47.555,54.0268 27.555,84.8601 25.5,127.5C 26.8102,167.125 43.1436,198.792 74.5,222.5C 73.8333,222.5 73.5,222.833 73.5,223.5C 33.2932,198.085 15.1265,161.418 19,113.5C 29.5257,61.6409 60.6924,30.4742 112.5,20C 151.545,15.7887 184.379,27.9554 211,56.5C 214.015,59.8777 216.515,63.5444 218.5,67.5 Z"/></g>
<g><path style="opacity:1" fill="#010101" d="M 67.5,134.5 C 67.2053,132.265 67.5386,130.265 68.5,128.5C 82.1001,132.48 92.6001,128.48 100,116.5C 105.355,101.878 101.188,90.8781 87.5,83.5C 109.678,66.1902 133.344,64.0235 158.5,77C 181.512,92.5304 190.678,114.03 186,141.5C 175.237,175.312 152.07,190.812 116.5,188C 88.1503,181.151 71.8169,163.318 67.5,134.5 Z"/></g>
<g><path style="opacity:1" fill="#727272" d="M 218.5,67.5 C 220.085,68.0024 220.585,69.0024 220,70.5C 218.961,69.7562 218.461,68.7562 218.5,67.5 Z"/></g>
<g><path style="opacity:1" fill="#7b7b7b" d="M 68.5,128.5 C 67.5386,130.265 67.2053,132.265 67.5,134.5C 66.2031,132.307 66.2031,129.973 67.5,127.5C 68.1067,127.624 68.44,127.957 68.5,128.5 Z"/></g>
<g><path style="opacity:1" fill="#414141" d="M 73.5,223.5 C 73.5,222.833 73.8333,222.5 74.5,222.5C 77.4721,224.322 80.4721,226.156 83.5,228C 79.8679,227.354 76.5345,225.854 73.5,223.5 Z"/></g>
</svg>
