<svg width="336" height="223" xmlns="http://www.w3.org/2000/svg" xmlns:xlink="http://www.w3.org/1999/xlink" overflow="hidden"><defs><clipPath id="clip0"><rect x="0" y="0" width="336" height="223"/></clipPath></defs><g clip-path="url(#clip0)"><rect x="0" y="0" width="336" height="222.667" fill="#FFFFFF"/><text font-family="Calibri,Calibri_MSFontService,sans-serif" font-weight="400" font-size="21" transform="matrix(1 0 0 0.998507 47.4467 169)">Priv.Doz. Dr. Saskia Tipotsch</text><path d="M49.0517 105.33C31.2339 97.7078 22.9829 77.1032 30.6228 59.3082 38.2627 41.5131 58.9003 33.2663 76.7182 40.8883 83.8589 43.9429 89.7821 49.2772 93.5595 56.0553Z" fill-rule="evenodd"/><path d="M51.5539 106.566C33.6417 97.8277 25.3431 76.7585 33.0186 59.507 40.694 42.2555 61.4369 35.3544 79.3491 44.093 85.6706 47.177 91.0626 51.9729 94.8623 57.8912Z" fill="#FFFFFF" fill-rule="evenodd"/><path d="M49.7341 58.7936C57.6568 51.695 69.8426 52.3534 76.9519 60.2642 84.0612 68.175 83.4018 80.3427 75.4791 87.4413 67.5564 94.54 55.3706 93.8816 48.2614 85.9708 41.1521 78.0599 41.8115 65.8923 49.7341 58.7936Z" fill-rule="evenodd"/><path d="M39.9882 62.5256C41.8564 58.6916 46.4835 57.0958 50.3232 58.9612 54.163 60.8266 55.7612 65.4468 53.8931 69.2807 52.025 73.1146 47.3979 74.7104 43.5581 72.845 39.7184 70.9797 38.1201 66.3595 39.9882 62.5256Z" fill="#FFFFFF" fill-rule="evenodd"/><text fill="#08261F" font-family="Calibri,Calibri_MSFontService,sans-serif" font-weight="700" font-size="35" transform="matrix(1 0 0 0.998507 95.0932 89)">AUGENARZT<tspan font-size="35" x="-15.3267" y="36.0538">HETZENDORF</tspan></text></g></svg>