<?xml version="1.0" encoding="UTF-8"?>
<!DOCTYPE svg PUBLIC "-//W3C//DTD SVG 1.1//EN" "http://www.w3.org/Graphics/SVG/1.1/DTD/svg11.dtd">
<svg xmlns="http://www.w3.org/2000/svg" version="1.1" width="224px" height="149px" style="shape-rendering:geometricPrecision; text-rendering:geometricPrecision; image-rendering:optimizeQuality; fill-rule:evenodd; clip-rule:evenodd" xmlns:xlink="http://www.w3.org/1999/xlink">
<g><path style="opacity:1" fill="#040402" d="M -0.5,-0.5 C 8.5,-0.5 17.5,-0.5 26.5,-0.5C 24.4437,3.28674 22.6104,7.28674 21,11.5C 12.622,18.2491 7.28866,26.9157 5,37.5C 2.93204,39.3962 1.0987,41.3962 -0.5,43.5C -0.5,28.8333 -0.5,14.1667 -0.5,-0.5 Z"/></g>
<g><path style="opacity:1" fill="#f7e6df" d="M 170.5,-0.5 C 188.167,-0.5 205.833,-0.5 223.5,-0.5C 223.5,7.83333 223.5,16.1667 223.5,24.5C 218.88,23.3078 216.047,20.3078 215,15.5C 212.088,14.2604 209.421,12.5937 207,10.5C 206.966,12.1796 206.799,13.6796 206.5,15C 211.008,20.1852 210.508,23.6852 205,25.5C 202.738,22.5694 199.905,20.4027 196.5,19C 194.599,12.4527 191.765,11.9527 188,17.5C 184.5,14.3333 181,11.1667 177.5,8C 175.913,7.13759 174.246,6.47093 172.5,6C 172.957,5.58605 173.291,5.08605 173.5,4.5C 171.703,3.30491 170.703,1.63824 170.5,-0.5 Z"/></g>
<g><path style="opacity:1" fill="#725949" d="M 78.5,-0.5 C 82.1667,-0.5 85.8333,-0.5 89.5,-0.5C 93.0208,0.166258 96.6875,0.832925 100.5,1.5C 102.513,4.12241 104.679,4.12241 107,1.5C 109.248,2.95484 111.748,3.78817 114.5,4C 119.905,8.72442 125.905,12.2244 132.5,14.5C 128.445,14.8242 124.445,14.4909 120.5,13.5C 121.641,12.5745 121.641,11.7412 120.5,11C 112.462,9.20296 104.462,7.5363 96.5,6C 95.944,5.61742 95.6107,5.11742 95.5,4.5C 93.0314,3.6829 90.3647,3.1829 87.5,3C 86.6195,1.52949 85.2861,0.696162 83.5,0.5C 80.7739,2.05897 77.9406,3.3923 75,4.5C 73.8333,4.16667 72.6667,3.83333 71.5,3.5C 74.0499,2.39636 76.3832,1.06303 78.5,-0.5 Z"/></g>
<g><path style="opacity:1" fill="#584536" d="M 65.5,-0.5 C 69.8333,-0.5 74.1667,-0.5 78.5,-0.5C 76.3832,1.06303 74.0499,2.39636 71.5,3.5C 72.6667,3.83333 73.8333,4.16667 75,4.5C 77.9406,3.3923 80.7739,2.05897 83.5,0.5C 85.2861,0.696162 86.6195,1.52949 87.5,3C 90.3647,3.1829 93.0314,3.6829 95.5,4.5C 92.4377,4.8442 89.4377,5.51087 86.5,6.5C 84.8588,10.9106 82.1921,11.5772 78.5,8.5C 75.3237,8.93252 72.157,9.26586 69,9.5C 67.274,8.35214 67.4407,7.18548 69.5,6C 66.9032,5.719 64.5699,5.55234 62.5,5.5C 63,4.5 63.5,3.5 64,2.5C 64.3333,2.83333 64.6667,3.16667 65,3.5C 65.49,2.20677 65.6567,0.873441 65.5,-0.5 Z"/></g>
<g><path style="opacity:1" fill="#332419" d="M 28.5,-0.5 C 31.1667,-0.5 33.8333,-0.5 36.5,-0.5C 35.791,0.403972 34.791,0.737305 33.5,0.5C 33.67,1.82207 33.3366,2.98873 32.5,4C 34.9042,4.50785 35.5709,5.67452 34.5,7.5C 35.8883,10.0789 37.3883,10.0789 39,7.5C 39.7253,9.15798 40.892,9.65798 42.5,9C 45.8002,7.07615 49.1335,5.24282 52.5,3.5C 55.5443,4.17771 58.5443,5.01104 61.5,6C 60.6198,7.35613 60.2865,8.85613 60.5,10.5C 64.1817,10.3347 67.8484,10.5014 71.5,11C 72.6405,11.7412 72.6405,12.5745 71.5,13.5C 73.0453,14.4519 74.712,14.7852 76.5,14.5C 74.9448,15.6327 73.1114,16.2994 71,16.5C 65.5421,15.2427 60.0421,14.7427 54.5,15C 55.5634,16.1882 56.8967,16.6882 58.5,16.5C 58.5,17.8333 58.5,19.1667 58.5,20.5C 55.0217,20.1842 51.6883,20.6842 48.5,22C 49.056,22.3826 49.3893,22.8826 49.5,23.5C 45.512,24.0758 41.8454,25.4091 38.5,27.5C 36.412,27.1348 34.0787,27.1348 31.5,27.5C 31.6107,26.8826 31.944,26.3826 32.5,26C 35.8931,25.2023 39.2265,24.2023 42.5,23C 41.5,22.6667 40.5,22.3333 39.5,22C 42.3303,21.131 44.997,19.9643 47.5,18.5C 47.032,16.8662 46.032,15.6995 44.5,15C 47.5535,14.8214 50.5535,14.3214 53.5,13.5C 52.0977,12.1575 52.4311,11.3242 54.5,11C 53.737,10.0565 52.737,9.55647 51.5,9.5C 46.6867,10.1345 42.02,11.3012 37.5,13C 37.1667,14 36.8333,15 36.5,16C 37.1667,16.3333 37.8333,16.6667 38.5,17C 35.8333,17.3333 33.1667,17.6667 30.5,18C 28.6485,20.4447 26.6485,21.9447 24.5,22.5C 22.9148,19.0869 23.4148,16.0869 26,13.5C 26.2178,8.68267 27.0511,4.01601 28.5,-0.5 Z"/></g>
<g><path style="opacity:1" fill="#a88779" d="M 109.5,-0.5 C 112.5,-0.5 115.5,-0.5 118.5,-0.5C 121.563,0.729449 123.896,2.89612 125.5,6C 130.408,5.59652 134.408,7.26319 137.5,11C 140.289,11.2414 142.956,11.908 145.5,13C 147.833,15.3333 150.167,17.6667 152.5,20C 165.833,26.834 177.5,35.834 187.5,47C 188.793,47.49 190.127,47.6567 191.5,47.5C 191.5,49.1667 191.5,50.8333 191.5,52.5C 189.516,52.3832 187.85,53.0499 186.5,54.5C 187.863,55.8928 188.696,57.5595 189,59.5C 192.461,60.8172 195.294,62.9839 197.5,66C 200.818,65.8246 202.818,67.3246 203.5,70.5C 202.833,70.5 202.167,70.5 201.5,70.5C 197.746,67.4033 193.746,64.7366 189.5,62.5C 188.71,61.2058 187.71,60.0391 186.5,59C 182.413,58.5723 179.413,56.5723 177.5,53C 179.134,52.5065 180.801,52.3398 182.5,52.5C 181.964,49.4453 181.131,46.4453 180,43.5C 179.292,42.6195 178.458,41.9528 177.5,41.5C 177.167,41.5 176.833,41.5 176.5,41.5C 174.228,39.9819 172.895,37.8152 172.5,35C 171.167,34.6667 169.833,34.3333 168.5,34C 164.615,30.8873 160.615,28.054 156.5,25.5C 152.864,22.0374 149.031,18.704 145,15.5C 139.533,13.6836 134.366,11.1836 129.5,8C 127.167,7.66667 124.833,7.33333 122.5,7C 119.208,3.68889 115.208,2.02223 110.5,2C 109.748,1.32924 109.414,0.495904 109.5,-0.5 Z"/></g>
<g><path style="opacity:1" fill="#4b3325" d="M 36.5,-0.5 C 37.5,-0.5 38.5,-0.5 39.5,-0.5C 38.9166,5.67988 40.9166,6.84654 45.5,3C 51.6966,2.13762 57.6966,0.970949 63.5,-0.5C 64.1667,-0.5 64.8333,-0.5 65.5,-0.5C 65.6567,0.873441 65.49,2.20677 65,3.5C 64.6667,3.16667 64.3333,2.83333 64,2.5C 63.5,3.5 63,4.5 62.5,5.5C 64.5699,5.55234 66.9032,5.719 69.5,6C 67.4407,7.18548 67.274,8.35214 69,9.5C 72.157,9.26586 75.3237,8.93252 78.5,8.5C 82.1921,11.5772 84.8588,10.9106 86.5,6.5C 89.4377,5.51087 92.4377,4.8442 95.5,4.5C 95.6107,5.11742 95.944,5.61742 96.5,6C 104.462,7.5363 112.462,9.20296 120.5,11C 121.641,11.7412 121.641,12.5745 120.5,13.5C 124.445,14.4909 128.445,14.8242 132.5,14.5C 133.936,15.4286 135.269,16.5952 136.5,18C 135.167,18.6667 135.167,19.3333 136.5,20C 140.888,20.7203 143.721,23.2203 145,27.5C 147.91,28.4503 149.077,30.4503 148.5,33.5C 146.473,33.6621 144.473,33.4955 142.5,33C 140.236,30.0665 137.402,27.8999 134,26.5C 133.517,25.552 133.351,24.552 133.5,23.5C 130.675,22.8566 128.175,21.5233 126,19.5C 125.5,19.8333 125,20.1667 124.5,20.5C 125.309,22.0709 125.643,23.7376 125.5,25.5C 120.399,23.897 115.233,22.5636 110,21.5C 108.868,23.5217 107.201,23.8551 105,22.5C 101.139,19.4389 96.9726,17.1056 92.5,15.5C 92.3893,14.8826 92.056,14.3826 91.5,14C 88.0229,13.3371 84.5229,12.8371 81,12.5C 79.0145,12.5687 77.5145,13.2353 76.5,14.5C 74.712,14.7852 73.0453,14.4519 71.5,13.5C 72.6405,12.5745 72.6405,11.7412 71.5,11C 67.8484,10.5014 64.1817,10.3347 60.5,10.5C 60.2865,8.85613 60.6198,7.35613 61.5,6C 58.5443,5.01104 55.5443,4.17771 52.5,3.5C 49.1335,5.24282 45.8002,7.07615 42.5,9C 40.892,9.65798 39.7253,9.15798 39,7.5C 37.3883,10.0789 35.8883,10.0789 34.5,7.5C 35.5709,5.67452 34.9042,4.50785 32.5,4C 33.3366,2.98873 33.67,1.82207 33.5,0.5C 34.791,0.737305 35.791,0.403972 36.5,-0.5 Z"/></g>
<g><path style="opacity:1" fill="#654c40" d="M 39.5,-0.5 C 47.5,-0.5 55.5,-0.5 63.5,-0.5C 57.6966,0.970949 51.6966,2.13762 45.5,3C 40.9166,6.84654 38.9166,5.67988 39.5,-0.5 Z"/></g>
<g><path style="opacity:1" fill="#89695a" d="M 89.5,-0.5 C 96.1667,-0.5 102.833,-0.5 109.5,-0.5C 109.414,0.495904 109.748,1.32924 110.5,2C 115.208,2.02223 119.208,3.68889 122.5,7C 124.833,7.33333 127.167,7.66667 129.5,8C 134.366,11.1836 139.533,13.6836 145,15.5C 149.031,18.704 152.864,22.0374 156.5,25.5C 153.232,25.3657 150.898,23.8657 149.5,21C 144.559,20.691 140.559,18.691 137.5,15C 135.866,14.5065 134.199,14.3398 132.5,14.5C 125.905,12.2244 119.905,8.72442 114.5,4C 111.748,3.78817 109.248,2.95484 107,1.5C 104.679,4.12241 102.513,4.12241 100.5,1.5C 96.6875,0.832925 93.0208,0.166258 89.5,-0.5 Z"/></g>
<g><path style="opacity:1" fill="#f4ddd3" d="M 154.5,-0.5 C 159.833,-0.5 165.167,-0.5 170.5,-0.5C 170.703,1.63824 171.703,3.30491 173.5,4.5C 173.291,5.08605 172.957,5.58605 172.5,6C 174.246,6.47093 175.913,7.13759 177.5,8C 181,11.1667 184.5,14.3333 188,17.5C 191.765,11.9527 194.599,12.4527 196.5,19C 199.905,20.4027 202.738,22.5694 205,25.5C 210.508,23.6852 211.008,20.1852 206.5,15C 206.799,13.6796 206.966,12.1796 207,10.5C 209.421,12.5937 212.088,14.2604 215,15.5C 216.047,20.3078 218.88,23.3078 223.5,24.5C 223.5,32.1667 223.5,39.8333 223.5,47.5C 221.735,44.8774 221.068,41.8774 221.5,38.5C 220.07,38.4208 218.736,38.7542 217.5,39.5C 215.184,37.5065 212.518,36.5065 209.5,36.5C 209.621,39.5409 208.121,41.2076 205,41.5C 202.74,39.1927 200.573,36.6927 198.5,34C 193.717,32.4408 189.05,30.6074 184.5,28.5C 181.878,25.5077 179.211,22.5077 176.5,19.5C 170.451,20.1097 167.117,17.443 166.5,11.5C 159.062,11.3985 155.062,7.39852 154.5,-0.5 Z"/></g>
<g><path style="opacity:1" fill="#5a3a2b" d="M 92.5,15.5 C 90.139,15.3259 87.8056,14.9926 85.5,14.5C 85.4326,15.9587 85.7659,17.2921 86.5,18.5C 79.2032,18.0227 72.0365,18.6894 65,20.5C 63.7741,20.3552 62.6074,20.0219 61.5,19.5C 58.2551,20.6978 55.2551,22.0312 52.5,23.5C 52.1667,23.5 51.8333,23.5 51.5,23.5C 50.8333,23.5 50.1667,23.5 49.5,23.5C 49.3893,22.8826 49.056,22.3826 48.5,22C 51.6883,20.6842 55.0217,20.1842 58.5,20.5C 58.5,19.1667 58.5,17.8333 58.5,16.5C 56.8967,16.6882 55.5634,16.1882 54.5,15C 60.0421,14.7427 65.5421,15.2427 71,16.5C 73.1114,16.2994 74.9448,15.6327 76.5,14.5C 77.5145,13.2353 79.0145,12.5687 81,12.5C 84.5229,12.8371 88.0229,13.3371 91.5,14C 92.056,14.3826 92.3893,14.8826 92.5,15.5 Z"/></g>
<g><path style="opacity:1" fill="#ecd4c8" d="M 135.5,-0.5 C 141.833,-0.5 148.167,-0.5 154.5,-0.5C 155.062,7.39852 159.062,11.3985 166.5,11.5C 167.117,17.443 170.451,20.1097 176.5,19.5C 179.211,22.5077 181.878,25.5077 184.5,28.5C 189.05,30.6074 193.717,32.4408 198.5,34C 200.573,36.6927 202.74,39.1927 205,41.5C 208.121,41.2076 209.621,39.5409 209.5,36.5C 212.518,36.5065 215.184,37.5065 217.5,39.5C 218.736,38.7542 220.07,38.4208 221.5,38.5C 221.068,41.8774 221.735,44.8774 223.5,47.5C 223.5,51.1667 223.5,54.8333 223.5,58.5C 221.883,57.962 220.216,57.6287 218.5,57.5C 218.313,55.4357 217.813,53.4357 217,51.5C 215.716,52.5719 215.383,53.9052 216,55.5C 214.125,52.1775 212.625,48.6775 211.5,45C 208.167,44.6667 204.833,44.3333 201.5,44C 200.101,39.2388 197.101,37.2388 192.5,38C 188.093,34.799 183.427,32.1324 178.5,30C 176.833,28.3333 175.167,26.6667 173.5,25C 167.112,21.1394 160.446,17.8061 153.5,15C 147.036,10.369 141.036,5.20232 135.5,-0.5 Z"/></g>
<g><path style="opacity:1" fill="#2a1d15" d="M 26.5,-0.5 C 27.1667,-0.5 27.8333,-0.5 28.5,-0.5C 27.0511,4.01601 26.2178,8.68267 26,13.5C 23.4148,16.0869 22.9148,19.0869 24.5,22.5C 26.6485,21.9447 28.6485,20.4447 30.5,18C 33.1667,17.6667 35.8333,17.3333 38.5,17C 37.8333,16.6667 37.1667,16.3333 36.5,16C 36.8333,15 37.1667,14 37.5,13C 42.02,11.3012 46.6867,10.1345 51.5,9.5C 52.737,9.55647 53.737,10.0565 54.5,11C 52.4311,11.3242 52.0977,12.1575 53.5,13.5C 50.5535,14.3214 47.5535,14.8214 44.5,15C 46.032,15.6995 47.032,16.8662 47.5,18.5C 44.997,19.9643 42.3303,21.131 39.5,22C 40.5,22.3333 41.5,22.6667 42.5,23C 39.2265,24.2023 35.8931,25.2023 32.5,26C 31.944,26.3826 31.6107,26.8826 31.5,27.5C 29.0086,29.5016 26.3419,30.3349 23.5,30C 21.6712,32.5434 19.6712,32.2101 17.5,29C 16.1667,28.3333 14.8333,28.3333 13.5,29C 9.34377,36.9529 4.67711,44.4529 -0.5,51.5C -0.5,48.8333 -0.5,46.1667 -0.5,43.5C 1.0987,41.3962 2.93204,39.3962 5,37.5C 7.28866,26.9157 12.622,18.2491 21,11.5C 22.6104,7.28674 24.4437,3.28674 26.5,-0.5 Z"/></g>
<g><path style="opacity:1" fill="#816254" d="M 86.5,18.5 C 89.4133,19.2411 92.4133,19.7411 95.5,20C 98.5961,22.2147 101.929,23.8814 105.5,25C 113.036,26.7131 120.702,27.7131 128.5,28C 131.2,29.8567 132.866,32.3567 133.5,35.5C 122.419,31.9073 111.086,28.7406 99.5,26C 94.3097,22.1482 88.4764,20.3149 82,20.5C 76.0548,20.9459 70.2214,21.9459 64.5,23.5C 61.3483,22.0983 58.3483,22.4317 55.5,24.5C 54.4163,24.315 53.4163,23.9817 52.5,23.5C 55.2551,22.0312 58.2551,20.6978 61.5,19.5C 62.6074,20.0219 63.7741,20.3552 65,20.5C 72.0365,18.6894 79.2032,18.0227 86.5,18.5 Z"/></g>
<g><path style="opacity:1" fill="#675246" d="M 132.5,14.5 C 134.199,14.3398 135.866,14.5065 137.5,15C 140.559,18.691 144.559,20.691 149.5,21C 150.898,23.8657 153.232,25.3657 156.5,25.5C 160.615,28.054 164.615,30.8873 168.5,34C 169.833,34.3333 171.167,34.6667 172.5,35C 172.895,37.8152 174.228,39.9819 176.5,41.5C 176.737,42.791 176.404,43.791 175.5,44.5C 171.499,40.9676 167.499,37.3009 163.5,33.5C 161.744,35.5543 161.41,37.721 162.5,40C 162,40.1667 161.5,40.3333 161,40.5C 158.077,37.8524 154.577,36.3524 150.5,36C 149.619,35.2917 148.953,34.4584 148.5,33.5C 149.077,30.4503 147.91,28.4503 145,27.5C 143.721,23.2203 140.888,20.7203 136.5,20C 135.167,19.3333 135.167,18.6667 136.5,18C 135.269,16.5952 133.936,15.4286 132.5,14.5 Z"/></g>
<g><path style="opacity:1" fill="#5e493d" d="M 49.5,23.5 C 50.1667,23.5 50.8333,23.5 51.5,23.5C 51.5858,24.4959 51.2524,25.3292 50.5,26C 46.757,26.7048 43.4237,28.2048 40.5,30.5C 42.8559,31.6539 43.0226,32.9873 41,34.5C 39.8904,32.9632 38.3904,32.2965 36.5,32.5C 36.8956,35.4822 36.2289,38.1489 34.5,40.5C 34.6236,41.1067 34.9569,41.44 35.5,41.5C 35.0779,45.8786 34.4112,50.212 33.5,54.5C 31.9255,55.6309 30.2588,55.7975 28.5,55C 24.7827,53.4698 21.1161,51.9698 17.5,50.5C 15.701,50.577 14.0344,51.077 12.5,52C 6.13578,59.235 1.80244,67.4017 -0.5,76.5C -0.5,72.5 -0.5,68.5 -0.5,64.5C 2.65749,59.1054 5.49082,53.4387 8,47.5C 9.16667,46.3333 10.3333,45.1667 11.5,44C 12.4491,43.3828 13.2825,43.5494 14,44.5C 14.7387,43.4258 15.7387,42.7591 17,42.5C 18.9638,43.464 20.6305,44.7974 22,46.5C 24.5856,47.4892 26.9189,48.1559 29,48.5C 29.6667,47.8333 30.3333,47.1667 31,46.5C 31.3909,40.1722 32.8909,34.1722 35.5,28.5C 36.791,28.7373 37.791,28.404 38.5,27.5C 41.8454,25.4091 45.512,24.0758 49.5,23.5 Z"/></g>
<g><path style="opacity:1" fill="#a08578" d="M 133.5,35.5 C 135.814,37.4773 138.147,39.4773 140.5,41.5C 135.896,42.0156 131.229,42.0156 126.5,41.5C 123.167,41.5 119.833,41.5 116.5,41.5C 114.716,40.2801 113.05,40.2801 111.5,41.5C 104.101,41.5114 96.7675,42.1781 89.5,43.5C 86.0504,44.9095 82.3837,45.5762 78.5,45.5C 78.5792,46.9305 78.2458,48.2638 77.5,49.5C 75.518,50.2162 73.8513,51.3829 72.5,53C 73.056,53.3826 73.3893,53.8826 73.5,54.5C 73.5,55.1667 73.1667,55.5 72.5,55.5C 70.302,55.8799 68.6354,55.2132 67.5,53.5C 67.6309,52.6236 67.2975,51.9569 66.5,51.5C 63.3848,50.7763 60.7181,49.2763 58.5,47C 59.3567,46.3109 60.0233,45.4776 60.5,44.5C 58.8917,43.6816 57.2251,43.0149 55.5,42.5C 54.7025,42.0431 54.3691,41.3764 54.5,40.5C 58.1639,41.5541 61.8306,42.7208 65.5,44C 66.8333,44.6667 66.8333,45.3333 65.5,46C 66.6651,47.0836 67.9984,47.9169 69.5,48.5C 69.7365,47.7528 70.0698,46.9195 70.5,46C 66.7493,45.2386 66.5826,44.0719 70,42.5C 70.3333,43.1667 70.6667,43.8333 71,44.5C 72.0113,43.6634 73.1779,43.33 74.5,43.5C 74.5,42.5 74.5,41.5 74.5,40.5C 75.5,40.5 76.5,40.5 77.5,40.5C 79.5,40.5 81.5,40.5 83.5,40.5C 86.4658,40.8897 89.1324,40.223 91.5,38.5C 99.1401,39.7659 106.807,39.7659 114.5,38.5C 118.698,40.073 123.031,40.7397 127.5,40.5C 127.5,39.1667 127.5,37.8333 127.5,36.5C 123.189,37.464 120.189,35.964 118.5,32C 115.167,31.6667 111.833,31.3333 108.5,31C 105.23,29.5411 101.897,28.3744 98.5,27.5C 94.9543,25.0857 90.9543,23.4191 86.5,22.5C 79.626,23.7033 72.9594,25.0366 66.5,26.5C 63.8858,26.2771 62.2191,27.4438 61.5,30C 60.5,30.3333 59.5,30.6667 58.5,31C 59.3295,32.8161 60.1628,34.6494 61,36.5C 61.3333,35.8333 61.6667,35.1667 62,34.5C 63.2053,36.5342 63.372,38.5342 62.5,40.5C 61.8333,39.5 61.1667,38.5 60.5,37.5C 58.3432,38.0505 56.3432,38.7171 54.5,39.5C 52.8333,38.1667 51.1667,38.1667 49.5,39.5C 46.175,38.3638 45.8417,36.6971 48.5,34.5C 44.8903,32.2876 45.557,31.2876 50.5,31.5C 50.67,30.1779 50.3366,29.0113 49.5,28C 50.8333,27.6667 52.1667,27.3333 53.5,27C 52.6634,25.9887 52.33,24.8221 52.5,23.5C 53.4163,23.9817 54.4163,24.315 55.5,24.5C 58.3483,22.4317 61.3483,22.0983 64.5,23.5C 70.2214,21.9459 76.0548,20.9459 82,20.5C 88.4764,20.3149 94.3097,22.1482 99.5,26C 111.086,28.7406 122.419,31.9073 133.5,35.5 Z"/></g>
<g><path style="opacity:1" fill="#b39f94" d="M 98.5,27.5 C 101.897,28.3744 105.23,29.5411 108.5,31C 111.833,31.3333 115.167,31.6667 118.5,32C 120.189,35.964 123.189,37.464 127.5,36.5C 127.5,37.8333 127.5,39.1667 127.5,40.5C 123.031,40.7397 118.698,40.073 114.5,38.5C 106.807,39.7659 99.1401,39.7659 91.5,38.5C 89.1324,40.223 86.4658,40.8897 83.5,40.5C 81.7562,38.3943 82.2562,37.061 85,36.5C 93.5161,37.0458 102.016,37.3791 110.5,37.5C 110.714,35.8561 110.38,34.3561 109.5,33C 107.167,32.6667 104.833,32.3333 102.5,32C 101.643,29.9812 100.309,28.4812 98.5,27.5 Z"/></g>
<g><path style="opacity:1" fill="#c6b4aa" d="M 98.5,27.5 C 100.309,28.4812 101.643,29.9812 102.5,32C 104.833,32.3333 107.167,32.6667 109.5,33C 110.38,34.3561 110.714,35.8561 110.5,37.5C 102.016,37.3791 93.5161,37.0458 85,36.5C 82.2562,37.061 81.7562,38.3943 83.5,40.5C 81.5,40.5 79.5,40.5 77.5,40.5C 76.713,38.8958 75.3797,38.2291 73.5,38.5C 72.9823,35.6403 71.3157,33.6403 68.5,32.5C 68.8333,31.8333 69.1667,31.1667 69.5,30.5C 67.7118,29.7174 66.7118,28.3841 66.5,26.5C 72.9594,25.0366 79.626,23.7033 86.5,22.5C 90.9543,23.4191 94.9543,25.0857 98.5,27.5 Z"/></g>
<g><path style="opacity:1" fill="#674737" d="M 92.5,15.5 C 96.9726,17.1056 101.139,19.4389 105,22.5C 107.201,23.8551 108.868,23.5217 110,21.5C 115.233,22.5636 120.399,23.897 125.5,25.5C 125.643,23.7376 125.309,22.0709 124.5,20.5C 125,20.1667 125.5,19.8333 126,19.5C 128.175,21.5233 130.675,22.8566 133.5,23.5C 133.351,24.552 133.517,25.552 134,26.5C 137.402,27.8999 140.236,30.0665 142.5,33C 144.473,33.4955 146.473,33.6621 148.5,33.5C 148.953,34.4584 149.619,35.2917 150.5,36C 154.577,36.3524 158.077,37.8524 161,40.5C 161.5,40.3333 162,40.1667 162.5,40C 161.41,37.721 161.744,35.5543 163.5,33.5C 167.499,37.3009 171.499,40.9676 175.5,44.5C 171.806,46.4124 167.806,46.9124 163.5,46C 153.464,42.3067 143.464,38.8067 133.5,35.5C 132.866,32.3567 131.2,29.8567 128.5,28C 120.702,27.7131 113.036,26.7131 105.5,25C 101.929,23.8814 98.5961,22.2147 95.5,20C 92.4133,19.7411 89.4133,19.2411 86.5,18.5C 85.7659,17.2921 85.4326,15.9587 85.5,14.5C 87.8056,14.9926 90.139,15.3259 92.5,15.5 Z"/></g>
<g><path style="opacity:1" fill="#47362b" d="M 38.5,27.5 C 37.791,28.404 36.791,28.7373 35.5,28.5C 32.8909,34.1722 31.3909,40.1722 31,46.5C 30.3333,47.1667 29.6667,47.8333 29,48.5C 26.9189,48.1559 24.5856,47.4892 22,46.5C 20.6305,44.7974 18.9638,43.464 17,42.5C 15.7387,42.7591 14.7387,43.4258 14,44.5C 13.2825,43.5494 12.4491,43.3828 11.5,44C 10.3333,45.1667 9.16667,46.3333 8,47.5C 5.49082,53.4387 2.65749,59.1054 -0.5,64.5C -0.5,60.1667 -0.5,55.8333 -0.5,51.5C 4.67711,44.4529 9.34377,36.9529 13.5,29C 14.8333,28.3333 16.1667,28.3333 17.5,29C 19.6712,32.2101 21.6712,32.5434 23.5,30C 26.3419,30.3349 29.0086,29.5016 31.5,27.5C 34.0787,27.1348 36.412,27.1348 38.5,27.5 Z"/></g>
<g><path style="opacity:1" fill="#b59d92" d="M 66.5,26.5 C 66.7118,28.3841 67.7118,29.7174 69.5,30.5C 69.1667,31.1667 68.8333,31.8333 68.5,32.5C 71.3157,33.6403 72.9823,35.6403 73.5,38.5C 75.3797,38.2291 76.713,38.8958 77.5,40.5C 76.5,40.5 75.5,40.5 74.5,40.5C 74.5,41.5 74.5,42.5 74.5,43.5C 73.1779,43.33 72.0113,43.6634 71,44.5C 70.6667,43.8333 70.3333,43.1667 70,42.5C 66.5826,44.0719 66.7493,45.2386 70.5,46C 70.0698,46.9195 69.7365,47.7528 69.5,48.5C 67.9984,47.9169 66.6651,47.0836 65.5,46C 66.8333,45.3333 66.8333,44.6667 65.5,44C 61.8306,42.7208 58.1639,41.5541 54.5,40.5C 54.5,40.1667 54.5,39.8333 54.5,39.5C 56.3432,38.7171 58.3432,38.0505 60.5,37.5C 61.1667,38.5 61.8333,39.5 62.5,40.5C 63.372,38.5342 63.2053,36.5342 62,34.5C 61.6667,35.1667 61.3333,35.8333 61,36.5C 60.1628,34.6494 59.3295,32.8161 58.5,31C 59.5,30.6667 60.5,30.3333 61.5,30C 62.2191,27.4438 63.8858,26.2771 66.5,26.5 Z"/></g>
<g><path style="opacity:1" fill="#936a57" d="M 133.5,35.5 C 143.464,38.8067 153.464,42.3067 163.5,46C 167.806,46.9124 171.806,46.4124 175.5,44.5C 176.404,43.791 176.737,42.791 176.5,41.5C 176.833,41.5 177.167,41.5 177.5,41.5C 178.146,43.1561 178.813,44.8228 179.5,46.5C 179.444,47.737 178.944,48.737 178,49.5C 170.85,49.6736 163.683,49.1736 156.5,48C 158.734,49.6379 160.067,51.8045 160.5,54.5C 153.452,49.8107 145.785,46.4773 137.5,44.5C 133.898,43.2248 130.231,42.2248 126.5,41.5C 131.229,42.0156 135.896,42.0156 140.5,41.5C 138.147,39.4773 135.814,37.4773 133.5,35.5 Z"/></g>
<g><path style="opacity:1" fill="#84433e" d="M 116.5,41.5 C 119.833,41.5 123.167,41.5 126.5,41.5C 130.231,42.2248 133.898,43.2248 137.5,44.5C 139.185,46.2607 141.519,47.9274 144.5,49.5C 138.941,47.4679 133.275,45.6345 127.5,44C 124.183,43.5017 120.85,43.335 117.5,43.5C 116.662,43.1583 116.328,42.4916 116.5,41.5 Z"/></g>
<g><path style="opacity:1" fill="#7a2c24" d="M 137.5,44.5 C 145.785,46.4773 153.452,49.8107 160.5,54.5C 161.833,56.1667 163.167,57.8333 164.5,59.5C 162.315,59.2964 160.315,58.6298 158.5,57.5C 158.047,56.5416 157.381,55.7083 156.5,55C 153.438,53.7951 150.438,52.6284 147.5,51.5C 146.29,51.0679 145.29,50.4013 144.5,49.5C 141.519,47.9274 139.185,46.2607 137.5,44.5 Z"/></g>
<g><path style="opacity:1" fill="#5d2d29" d="M 111.5,41.5 C 107.504,42.8805 102.837,44.3805 97.5,46C 96.1772,46.8159 95.5106,47.9826 95.5,49.5C 95.1667,49.5 94.8333,49.5 94.5,49.5C 93.9859,48.3754 93.6526,47.2087 93.5,46C 91.102,45.6256 88.7687,45.6256 86.5,46C 87.5707,45.1482 88.5707,44.3149 89.5,43.5C 96.7675,42.1781 104.101,41.5114 111.5,41.5 Z"/></g>
<g><path style="opacity:1" fill="#c5a69b" d="M 118.5,-0.5 C 119.833,-0.5 121.167,-0.5 122.5,-0.5C 122.953,0.458367 123.619,1.2917 124.5,2C 128.894,2.30284 133.227,2.96951 137.5,4C 138.743,5.15445 139.743,6.48779 140.5,8C 143.5,9.66667 146.5,11.3333 149.5,13C 152.476,16.4344 156.143,18.7678 160.5,20C 166.441,26.1087 173.108,31.2754 180.5,35.5C 185.326,41.1547 191.159,45.488 198,48.5C 197.934,51.578 198.101,54.578 198.5,57.5C 199.5,58 200.5,58.5 201.5,59C 207.295,65.4199 211.961,72.5866 215.5,80.5C 214.325,80.719 213.325,80.3857 212.5,79.5C 210.547,76.897 208.88,74.2304 207.5,71.5C 206.167,71.1667 204.833,70.8333 203.5,70.5C 202.818,67.3246 200.818,65.8246 197.5,66C 195.294,62.9839 192.461,60.8172 189,59.5C 188.696,57.5595 187.863,55.8928 186.5,54.5C 187.85,53.0499 189.516,52.3832 191.5,52.5C 191.5,50.8333 191.5,49.1667 191.5,47.5C 190.127,47.6567 188.793,47.49 187.5,47C 177.5,35.834 165.833,26.834 152.5,20C 150.167,17.6667 147.833,15.3333 145.5,13C 142.956,11.908 140.289,11.2414 137.5,11C 134.408,7.26319 130.408,5.59652 125.5,6C 123.896,2.89612 121.563,0.729449 118.5,-0.5 Z"/></g>
<g><path style="opacity:1" fill="#e2c6ba" d="M 122.5,-0.5 C 126.833,-0.5 131.167,-0.5 135.5,-0.5C 141.036,5.20232 147.036,10.369 153.5,15C 160.446,17.8061 167.112,21.1394 173.5,25C 175.167,26.6667 176.833,28.3333 178.5,30C 183.427,32.1324 188.093,34.799 192.5,38C 197.101,37.2388 200.101,39.2388 201.5,44C 204.833,44.3333 208.167,44.6667 211.5,45C 212.625,48.6775 214.125,52.1775 216,55.5C 215.383,53.9052 215.716,52.5719 217,51.5C 217.813,53.4357 218.313,55.4357 218.5,57.5C 220.216,57.6287 221.883,57.962 223.5,58.5C 223.5,63.5 223.5,68.5 223.5,73.5C 222.279,72.9717 221.113,72.305 220,71.5C 219.148,68.0116 217.981,64.6783 216.5,61.5C 212.752,60.867 209.585,59.2004 207,56.5C 207.584,54.2996 207.418,52.133 206.5,50C 202.36,49.2001 199.36,46.8668 197.5,43C 195.252,40.9564 193.252,41.1231 191.5,43.5C 187.952,40.57 184.285,37.9033 180.5,35.5C 173.108,31.2754 166.441,26.1087 160.5,20C 156.143,18.7678 152.476,16.4344 149.5,13C 146.5,11.3333 143.5,9.66667 140.5,8C 139.743,6.48779 138.743,5.15445 137.5,4C 133.227,2.96951 128.894,2.30284 124.5,2C 123.619,1.2917 122.953,0.458367 122.5,-0.5 Z"/></g>
<g><path style="opacity:1" fill="#8f7365" d="M 54.5,39.5 C 54.5,39.8333 54.5,40.1667 54.5,40.5C 54.3691,41.3764 54.7025,42.0431 55.5,42.5C 57.2251,43.0149 58.8917,43.6816 60.5,44.5C 60.0233,45.4776 59.3567,46.3109 58.5,47C 60.7181,49.2763 63.3848,50.7763 66.5,51.5C 67.2975,51.9569 67.6309,52.6236 67.5,53.5C 66.5768,52.6971 65.5768,52.5304 64.5,53C 65.9915,55.6212 66.6582,58.4545 66.5,61.5C 65.5,61.5 64.5,61.5 63.5,61.5C 63.5599,65.3273 62.3932,65.994 60,63.5C 59.6667,64.1667 59.3333,64.8333 59,65.5C 57.2687,63.1382 56.4354,60.4715 56.5,57.5C 56.0909,56.1228 53.4242,55.9562 48.5,57C 47.624,55.414 46.624,53.914 45.5,52.5C 47.3413,51.7696 49.1746,51.1029 51,50.5C 51.2492,51.624 51.7492,52.624 52.5,53.5C 52.8333,53 53.1667,52.5 53.5,52C 51.9419,50.0622 49.9419,48.5622 47.5,47.5C 46.7221,45.2005 45.7221,43.0338 44.5,41C 44.8333,40.5 45.1667,40 45.5,39.5C 46.9948,40.7053 48.3281,40.7053 49.5,39.5C 51.1667,38.1667 52.8333,38.1667 54.5,39.5 Z"/></g>
<g><path style="opacity:1" fill="#73524c" d="M 89.5,43.5 C 88.5707,44.3149 87.5707,45.1482 86.5,46C 88.7687,45.6256 91.102,45.6256 93.5,46C 93.6526,47.2087 93.9859,48.3754 94.5,49.5C 94.5,49.8333 94.5,50.1667 94.5,50.5C 90.1635,52.2375 86.1635,51.5709 82.5,48.5C 81.4173,49.365 81.2506,50.365 82,51.5C 83.7038,53.3734 85.5372,55.0401 87.5,56.5C 87.2089,57.6491 86.3756,58.3158 85,58.5C 82.79,57.4342 80.6234,57.2675 78.5,58C 78.0426,57.586 77.7093,57.086 77.5,56.5C 78.6872,55.4805 79.6872,54.3139 80.5,53C 79.9747,52.3076 79.3081,51.8076 78.5,51.5C 77.0603,52.9524 75.3936,53.9524 73.5,54.5C 73.3893,53.8826 73.056,53.3826 72.5,53C 73.8513,51.3829 75.518,50.2162 77.5,49.5C 78.2458,48.2638 78.5792,46.9305 78.5,45.5C 82.3837,45.5762 86.0504,44.9095 89.5,43.5 Z"/></g>
<g><path style="opacity:1" fill="#a17766" d="M 177.5,41.5 C 178.458,41.9528 179.292,42.6195 180,43.5C 181.131,46.4453 181.964,49.4453 182.5,52.5C 180.801,52.3398 179.134,52.5065 177.5,53C 179.413,56.5723 182.413,58.5723 186.5,59C 187.71,60.0391 188.71,61.2058 189.5,62.5C 187.506,61.6503 185.506,61.1503 183.5,61C 181.922,63.3388 182.255,65.1722 184.5,66.5C 184.443,67.609 184.11,68.609 183.5,69.5C 181.911,67.6944 179.911,66.3611 177.5,65.5C 176.253,67.0064 176.253,68.5064 177.5,70C 179.676,70.1629 181.509,70.9963 183,72.5C 183.528,73.816 183.028,74.4827 181.5,74.5C 179.5,75.8333 177.5,75.8333 175.5,74.5C 174.5,74.1667 173.833,73.5 173.5,72.5C 173.5,71.8333 173.5,71.1667 173.5,70.5C 171.706,66.0212 168.706,62.3546 164.5,59.5C 163.167,57.8333 161.833,56.1667 160.5,54.5C 160.067,51.8045 158.734,49.6379 156.5,48C 163.683,49.1736 170.85,49.6736 178,49.5C 178.944,48.737 179.444,47.737 179.5,46.5C 178.813,44.8228 178.146,43.1561 177.5,41.5 Z"/></g>
<g><path style="opacity:1" fill="#d9b9af" d="M 180.5,35.5 C 184.285,37.9033 187.952,40.57 191.5,43.5C 193.252,41.1231 195.252,40.9564 197.5,43C 199.36,46.8668 202.36,49.2001 206.5,50C 207.418,52.133 207.584,54.2996 207,56.5C 209.585,59.2004 212.752,60.867 216.5,61.5C 217.981,64.6783 219.148,68.0116 220,71.5C 221.113,72.305 222.279,72.9717 223.5,73.5C 223.5,81.8333 223.5,90.1667 223.5,98.5C 222.685,97.5707 221.852,96.5707 221,95.5C 220.462,90.6799 219.295,86.0133 217.5,81.5C 216.817,81.1373 216.15,80.8039 215.5,80.5C 211.961,72.5866 207.295,65.4199 201.5,59C 200.5,58.5 199.5,58 198.5,57.5C 198.101,54.578 197.934,51.578 198,48.5C 191.159,45.488 185.326,41.1547 180.5,35.5 Z"/></g>
<g><path style="opacity:1" fill="#604a48" d="M 111.5,41.5 C 113.05,40.2801 114.716,40.2801 116.5,41.5C 116.328,42.4916 116.662,43.1583 117.5,43.5C 117.56,46.3408 118.226,49.0075 119.5,51.5C 116.873,52.0916 114.206,52.4249 111.5,52.5C 104.36,53.0049 97.6937,54.6715 91.5,57.5C 90.1667,57.1667 88.8333,56.8333 87.5,56.5C 85.5372,55.0401 83.7038,53.3734 82,51.5C 81.2506,50.365 81.4173,49.365 82.5,48.5C 86.1635,51.5709 90.1635,52.2375 94.5,50.5C 96.2799,51.7547 98.1132,51.7547 100,50.5C 101.559,51.0294 103.059,51.696 104.5,52.5C 108.094,51.5741 111.76,51.2408 115.5,51.5C 115.297,48.093 113.797,45.4263 111,43.5C 110.055,43.9054 109.388,44.572 109,45.5C 107.301,44.5939 105.467,44.2606 103.5,44.5C 103.62,47.2048 102.62,47.8715 100.5,46.5C 98.6396,47.2599 96.973,48.2599 95.5,49.5C 95.5106,47.9826 96.1772,46.8159 97.5,46C 102.837,44.3805 107.504,42.8805 111.5,41.5 Z"/></g>
<g><path style="opacity:1" fill="#846b6a" d="M 94.5,50.5 C 94.5,50.1667 94.5,49.8333 94.5,49.5C 94.8333,49.5 95.1667,49.5 95.5,49.5C 96.973,48.2599 98.6396,47.2599 100.5,46.5C 102.62,47.8715 103.62,47.2048 103.5,44.5C 105.467,44.2606 107.301,44.5939 109,45.5C 109.388,44.572 110.055,43.9054 111,43.5C 113.797,45.4263 115.297,48.093 115.5,51.5C 111.76,51.2408 108.094,51.5741 104.5,52.5C 103.059,51.696 101.559,51.0294 100,50.5C 98.1132,51.7547 96.2799,51.7547 94.5,50.5 Z"/></g>
<g><path style="opacity:1" fill="#a49497" d="M 117.5,43.5 C 120.85,43.335 124.183,43.5017 127.5,44C 133.275,45.6345 138.941,47.4679 144.5,49.5C 145.29,50.4013 146.29,51.0679 147.5,51.5C 148.527,53.1942 149.861,54.5275 151.5,55.5C 147.941,54.5755 144.607,53.2421 141.5,51.5C 140.725,53.6119 140.725,55.6119 141.5,57.5C 140.391,57.4431 139.391,57.1098 138.5,56.5C 132.477,54.0367 126.143,52.3701 119.5,51.5C 118.226,49.0075 117.56,46.3408 117.5,43.5 Z"/></g>
<g><path style="opacity:1" fill="#9c6761" d="M 147.5,51.5 C 150.438,52.6284 153.438,53.7951 156.5,55C 157.381,55.7083 158.047,56.5416 158.5,57.5C 156.801,57.4729 155.467,56.8062 154.5,55.5C 153.5,55.5 152.5,55.5 151.5,55.5C 149.861,54.5275 148.527,53.1942 147.5,51.5 Z"/></g>
<g><path style="opacity:1" fill="#2f221a" d="M 111.5,52.5 C 111.918,53.2216 112.584,53.7216 113.5,54C 111.866,54.4935 110.199,54.6602 108.5,54.5C 108.5,55.5 108.5,56.5 108.5,57.5C 105.921,57.3939 103.588,58.0605 101.5,59.5C 101.389,58.8826 101.056,58.3826 100.5,58C 96.5407,56.6376 93.5407,57.6376 91.5,61C 90.451,61.4922 89.451,61.3256 88.5,60.5C 87.3777,61.6302 86.0443,62.2969 84.5,62.5C 86.4547,60.2944 88.788,58.6278 91.5,57.5C 97.6937,54.6715 104.36,53.0049 111.5,52.5 Z"/></g>
<g><path style="opacity:1" fill="#5c3932" d="M 87.5,56.5 C 88.8333,56.8333 90.1667,57.1667 91.5,57.5C 88.788,58.6278 86.4547,60.2944 84.5,62.5C 83.1667,62.5 81.8333,62.5 80.5,62.5C 76.7208,61.9475 74.0541,59.9475 72.5,56.5C 72.5,56.1667 72.5,55.8333 72.5,55.5C 73.1667,55.5 73.5,55.1667 73.5,54.5C 75.3936,53.9524 77.0603,52.9524 78.5,51.5C 79.3081,51.8076 79.9747,52.3076 80.5,53C 79.6872,54.3139 78.6872,55.4805 77.5,56.5C 77.7093,57.086 78.0426,57.586 78.5,58C 80.6234,57.2675 82.79,57.4342 85,58.5C 86.3756,58.3158 87.2089,57.6491 87.5,56.5 Z"/></g>
<g><path style="opacity:1" fill="#4c3a34" d="M 119.5,51.5 C 126.143,52.3701 132.477,54.0367 138.5,56.5C 138.218,57.7777 137.551,58.7777 136.5,59.5C 134.299,58.4336 131.965,57.767 129.5,57.5C 121.429,57.1367 113.429,57.6367 105.5,59C 104.619,59.7083 103.953,60.5416 103.5,61.5C 103.167,61.5 102.833,61.5 102.5,61.5C 102.44,60.9569 102.107,60.6236 101.5,60.5C 99.3379,62.0198 97.0046,63.0198 94.5,63.5C 96.0561,60.184 98.3894,58.8507 101.5,59.5C 103.588,58.0605 105.921,57.3939 108.5,57.5C 108.5,56.5 108.5,55.5 108.5,54.5C 110.199,54.6602 111.866,54.4935 113.5,54C 112.584,53.7216 111.918,53.2216 111.5,52.5C 114.206,52.4249 116.873,52.0916 119.5,51.5 Z"/></g>
<g><path style="opacity:1" fill="#161917" d="M 129.5,57.5 C 126.668,60.8551 123.501,61.5218 120,59.5C 114.554,59.6912 109.554,61.0245 105,63.5C 103.97,63.1639 103.47,62.4972 103.5,61.5C 103.953,60.5416 104.619,59.7083 105.5,59C 113.429,57.6367 121.429,57.1367 129.5,57.5 Z"/></g>
<g><path style="opacity:1" fill="#7e6356" d="M 51.5,23.5 C 51.8333,23.5 52.1667,23.5 52.5,23.5C 52.33,24.8221 52.6634,25.9887 53.5,27C 52.1667,27.3333 50.8333,27.6667 49.5,28C 50.3366,29.0113 50.67,30.1779 50.5,31.5C 45.557,31.2876 44.8903,32.2876 48.5,34.5C 45.8417,36.6971 46.175,38.3638 49.5,39.5C 48.3281,40.7053 46.9948,40.7053 45.5,39.5C 45.1667,40 44.8333,40.5 44.5,41C 45.7221,43.0338 46.7221,45.2005 47.5,47.5C 49.9419,48.5622 51.9419,50.0622 53.5,52C 53.1667,52.5 52.8333,53 52.5,53.5C 51.7492,52.624 51.2492,51.624 51,50.5C 49.1746,51.1029 47.3413,51.7696 45.5,52.5C 46.624,53.914 47.624,55.414 48.5,57C 53.4242,55.9562 56.0909,56.1228 56.5,57.5C 56.4354,60.4715 57.2687,63.1382 59,65.5C 59.3333,64.8333 59.6667,64.1667 60,63.5C 62.3932,65.994 63.5599,65.3273 63.5,61.5C 64.5,61.5 65.5,61.5 66.5,61.5C 66.6582,58.4545 65.9915,55.6212 64.5,53C 65.5768,52.5304 66.5768,52.6971 67.5,53.5C 68.6354,55.2132 70.302,55.8799 72.5,55.5C 72.5,55.8333 72.5,56.1667 72.5,56.5C 70.9142,57.1481 69.2475,57.6481 67.5,58C 68.3971,62.1846 67.0637,65.6846 63.5,68.5C 62.1502,67.0499 60.4835,66.3832 58.5,66.5C 58.244,68.9124 59.244,70.5791 61.5,71.5C 60.7573,72.1818 60.0906,72.8485 59.5,73.5C 58.8826,73.3893 58.3826,73.056 58,72.5C 55.4039,74.0201 52.5706,74.8534 49.5,75C 48.6198,76.3561 48.2865,77.8561 48.5,79.5C 47.5,79.5 46.5,79.5 45.5,79.5C 45.2289,81.8211 45.8955,83.8211 47.5,85.5C 52.463,85.5133 57.463,85.8467 62.5,86.5C 61.6744,87.451 61.5078,88.451 62,89.5C 63.8259,91.0738 65.9925,91.9071 68.5,92C 69.2644,94.984 70.7644,97.484 73,99.5C 75.6179,95.8923 76.4512,95.8923 75.5,99.5C 75.9569,100.298 76.6236,100.631 77.5,100.5C 76.3101,103.077 74.3101,103.91 71.5,103C 69.8541,99.5633 68.1874,96.0633 66.5,92.5C 65.5224,92.9767 64.6891,93.6433 64,94.5C 60.2287,89.5243 55.3954,87.8576 49.5,89.5C 42.0046,89.6697 38.6713,86.0031 39.5,78.5C 40.5114,74.8878 40.6781,71.2211 40,67.5C 38.4412,65.7834 37.6079,63.7834 37.5,61.5C 34.0703,61.1065 30.9036,61.7732 28,63.5C 24.6849,59.1031 20.5182,58.2698 15.5,61C 12.9598,63.2047 10.7932,65.7047 9,68.5C 6.9601,74.2855 5.12676,80.1188 3.5,86C 5.01923,91.7201 5.85256,97.5535 6,103.5C 11.4754,114.793 16.142,126.459 20,138.5C 20.6838,139.784 20.5171,140.951 19.5,142C 21.229,143.789 21.8957,145.956 21.5,148.5C 21.1667,148.5 20.8333,148.5 20.5,148.5C 17.1712,139.629 14.0046,130.629 11,121.5C 8.22765,118.291 6.22765,114.625 5,110.5C 3.49201,100.88 2.82534,91.2131 3,81.5C 5.28338,75.6527 6.95005,69.6527 8,63.5C 10.4841,61.4992 12.3174,58.9992 13.5,56C 15.2182,55.654 16.8849,55.154 18.5,54.5C 24.2571,56.7928 30.2571,57.7928 36.5,57.5C 36.7261,54.7508 36.3928,52.0841 35.5,49.5C 37.7337,47.6187 39.067,45.2853 39.5,42.5C 38.0413,42.5674 36.7079,42.2341 35.5,41.5C 34.9569,41.44 34.6236,41.1067 34.5,40.5C 36.2289,38.1489 36.8956,35.4822 36.5,32.5C 38.3904,32.2965 39.8904,32.9632 41,34.5C 43.0226,32.9873 42.8559,31.6539 40.5,30.5C 43.4237,28.2048 46.757,26.7048 50.5,26C 51.2524,25.3292 51.5858,24.4959 51.5,23.5 Z"/></g>
<g><path style="opacity:1" fill="#334750" d="M 129.5,57.5 C 131.965,57.767 134.299,58.4336 136.5,59.5C 139.141,61.1278 141.808,62.7944 144.5,64.5C 144.5,67.5 144.5,70.5 144.5,73.5C 143.391,73.4431 142.391,73.1098 141.5,72.5C 139.557,71.9217 139.223,70.9217 140.5,69.5C 137.879,68.5295 135.546,67.1962 133.5,65.5C 130.56,64.6965 127.893,63.3631 125.5,61.5C 124.264,62.2458 122.93,62.5792 121.5,62.5C 121.44,61.9569 121.107,61.6236 120.5,61.5C 116.068,62.0951 111.735,63.0951 107.5,64.5C 106.833,65.5 106.167,66.5 105.5,67.5C 107.22,68.934 109.22,69.7674 111.5,70C 110.167,71 110.167,72 111.5,73C 109.5,73.6667 107.5,73.6667 105.5,73C 106.711,72.1072 106.711,71.2739 105.5,70.5C 104.575,71.3569 103.908,72.3569 103.5,73.5C 101.312,72.4643 101.312,70.9643 103.5,69C 102.975,68.3076 102.308,67.8076 101.5,67.5C 100.516,70.4281 100.183,73.4281 100.5,76.5C 99.5184,73.0381 99.185,69.3714 99.5,65.5C 100.974,64.5637 101.974,63.2303 102.5,61.5C 102.833,61.5 103.167,61.5 103.5,61.5C 103.47,62.4972 103.97,63.1639 105,63.5C 109.554,61.0245 114.554,59.6912 120,59.5C 123.501,61.5218 126.668,60.8551 129.5,57.5 Z"/></g>
<g><path style="opacity:1" fill="#6f4f48" d="M 138.5,56.5 C 139.391,57.1098 140.391,57.4431 141.5,57.5C 143.042,58.1635 144.709,58.8302 146.5,59.5C 146.863,60.1835 147.196,60.8501 147.5,61.5C 147.821,63.0481 148.821,63.7148 150.5,63.5C 150.5,64.5 150.5,65.5 150.5,66.5C 149.5,66.5 148.5,66.5 147.5,66.5C 146.71,65.5987 145.71,64.9321 144.5,64.5C 141.808,62.7944 139.141,61.1278 136.5,59.5C 137.551,58.7777 138.218,57.7777 138.5,56.5 Z"/></g>
<g><path style="opacity:1" fill="#b89996" d="M 154.5,55.5 C 155.467,56.8062 156.801,57.4729 158.5,57.5C 160.315,58.6298 162.315,59.2964 164.5,59.5C 167.129,63.4627 170.129,67.1294 173.5,70.5C 173.5,71.1667 173.5,71.8333 173.5,72.5C 172.542,72.0472 171.708,71.3805 171,70.5C 170.667,70.8333 170.333,71.1667 170,71.5C 165.633,66.6321 160.799,62.2987 155.5,58.5C 154.614,57.675 154.281,56.675 154.5,55.5 Z"/></g>
<g><path style="opacity:1" fill="#93786a" d="M 38.5,76.5 C 37.5178,77.1408 36.5178,77.8075 35.5,78.5C 33.8423,75.8392 32.1756,73.1725 30.5,70.5C 29.019,68.3463 27.019,67.013 24.5,66.5C 22.0431,69.6968 18.8764,72.0301 15,73.5C 14.904,76.4512 14.0707,79.1178 12.5,81.5C 13.6769,83.8735 13.0102,85.7069 10.5,87C 10.618,90.4222 11.4513,93.9222 13,97.5C 13.3333,102.167 13.6667,106.833 14,111.5C 16.1315,114.102 17.9648,116.768 19.5,119.5C 21.451,119.227 22.951,119.893 24,121.5C 24.3333,124.167 24.6667,126.833 25,129.5C 27.7677,132.903 29.101,136.903 29,141.5C 30.8501,143.76 31.3501,146.094 30.5,148.5C 30.1667,148.5 29.8333,148.5 29.5,148.5C 28.4923,146.661 26.9923,145.328 25,144.5C 25.2148,141.189 25.2148,137.856 25,134.5C 21.3048,130.95 18.4714,126.784 16.5,122C 14.0615,114.686 11.2282,107.519 8,100.5C 6.5905,90.0506 8.0905,80.0506 12.5,70.5C 15.8333,68.5 19.1667,66.5 22.5,64.5C 27.1667,66.1667 31.8333,67.8333 36.5,69.5C 37.5771,71.7294 38.2437,74.0628 38.5,76.5 Z"/></g>
<g><path style="opacity:1" fill="#1c1a17" d="M 101.5,59.5 C 98.3894,58.8507 96.0561,60.184 94.5,63.5C 92.3295,65.0862 89.9962,66.4196 87.5,67.5C 82.2957,67.0739 78.4624,69.0739 76,73.5C 73.8531,72.5243 71.6864,72.691 69.5,74C 70.2438,75.0386 71.2438,75.5386 72.5,75.5C 72.5,75.8333 72.5,76.1667 72.5,76.5C 70.8008,76.6602 69.1341,76.4935 67.5,76C 66.2642,74.6125 64.9308,73.4458 63.5,72.5C 62.4265,71.7494 62.2599,70.7494 63,69.5C 67.3715,71.9736 71.8715,72.1403 76.5,70C 74.1024,68.6437 71.6024,67.4771 69,66.5C 68.4497,62.3315 69.283,61.8315 71.5,65C 75.7396,67.8598 78.7396,67.0265 80.5,62.5C 81.8333,62.5 83.1667,62.5 84.5,62.5C 86.0443,62.2969 87.3777,61.6302 88.5,60.5C 89.451,61.3256 90.451,61.4922 91.5,61C 93.5407,57.6376 96.5407,56.6376 100.5,58C 101.056,58.3826 101.389,58.8826 101.5,59.5 Z"/></g>
<g><path style="opacity:1" fill="#8d4735" d="M 164.5,59.5 C 168.706,62.3546 171.706,66.0212 173.5,70.5C 170.129,67.1294 167.129,63.4627 164.5,59.5 Z"/></g>
<g><path style="opacity:1" fill="#869fa0" d="M 141.5,72.5 C 141.784,74.4147 141.451,76.0813 140.5,77.5C 139.159,75.88 137.326,74.88 135,74.5C 134.925,69.282 132.425,66.282 127.5,65.5C 127.325,67.6208 127.659,69.6208 128.5,71.5C 121.412,65.0939 118.079,66.7606 118.5,76.5C 121.176,77.0081 123.843,77.1747 126.5,77C 125.433,74.5728 126.1,74.0728 128.5,75.5C 128.357,77.2624 128.691,78.9291 129.5,80.5C 132.412,81.0685 135.412,81.0685 138.5,80.5C 137.432,81.4345 136.099,81.7678 134.5,81.5C 134.604,84.0895 133.937,86.4229 132.5,88.5C 132.747,89.7133 133.414,90.38 134.5,90.5C 131.975,90.9767 129.975,92.3101 128.5,94.5C 124.298,94.8168 120.298,94.4834 116.5,93.5C 119.898,93.8204 123.232,93.487 126.5,92.5C 126.043,91.7025 125.376,91.3691 124.5,91.5C 126.31,88.8027 127.31,85.8027 127.5,82.5C 125.549,82.2267 124.049,82.8934 123,84.5C 122,81.8333 121,81.8333 120,84.5C 119.722,83.5842 119.222,82.9175 118.5,82.5C 117.778,81.4489 116.778,80.7822 115.5,80.5C 115.461,79.4168 115.127,78.4168 114.5,77.5C 115.025,76.8076 115.692,76.3076 116.5,76C 114.813,74.087 114.313,71.9203 115,69.5C 115.392,65.4133 117.558,63.08 121.5,62.5C 122.93,62.5792 124.264,62.2458 125.5,61.5C 127.893,63.3631 130.56,64.6965 133.5,65.5C 135.546,67.1962 137.879,68.5295 140.5,69.5C 139.223,70.9217 139.557,71.9217 141.5,72.5 Z"/></g>
<g><path style="opacity:1" fill="#875046" d="M 205.5,84.5 C 203.646,83.759 201.979,82.759 200.5,81.5C 198.496,76.5016 195.163,72.8349 190.5,70.5C 189.359,72.4213 189.192,74.4213 190,76.5C 190.47,80.1154 191.637,83.4487 193.5,86.5C 194.038,88.1172 194.371,89.7839 194.5,91.5C 193.5,91.1667 192.833,90.5 192.5,89.5C 189.534,83.9589 187.368,77.9589 186,71.5C 185.005,70.9341 184.172,70.2674 183.5,69.5C 184.11,68.609 184.443,67.609 184.5,66.5C 183.697,65.5768 183.53,64.5768 184,63.5C 188.251,64.113 192.084,65.613 195.5,68C 197.984,72.1494 201.151,75.6494 205,78.5C 205.495,80.4727 205.662,82.4727 205.5,84.5 Z"/></g>
<g><path style="opacity:1" fill="#cebbb7" d="M 151.5,55.5 C 152.5,55.5 153.5,55.5 154.5,55.5C 154.281,56.675 154.614,57.675 155.5,58.5C 160.799,62.2987 165.633,66.6321 170,71.5C 170.333,71.1667 170.667,70.8333 171,70.5C 171.708,71.3805 172.542,72.0472 173.5,72.5C 173.833,73.5 174.5,74.1667 175.5,74.5C 176.754,77.0934 178.42,79.4268 180.5,81.5C 178.577,81.603 176.577,81.603 174.5,81.5C 175.889,83.8676 177.222,86.2009 178.5,88.5C 171.648,82.1479 164.982,75.6479 158.5,69C 154.946,66.2704 151.28,63.7704 147.5,61.5C 147.196,60.8501 146.863,60.1835 146.5,59.5C 144.709,58.8302 143.042,58.1635 141.5,57.5C 140.725,55.6119 140.725,53.6119 141.5,51.5C 144.607,53.2421 147.941,54.5755 151.5,55.5 Z"/></g>
<g><path style="opacity:1" fill="#767e84" d="M 102.5,61.5 C 101.974,63.2303 100.974,64.5637 99.5,65.5C 90.1768,66.5083 86.5102,71.5083 88.5,80.5C 86.164,79.0442 84.8306,76.8776 84.5,74C 85.9228,71.9902 86.9228,69.8236 87.5,67.5C 89.9962,66.4196 92.3295,65.0862 94.5,63.5C 97.0046,63.0198 99.3379,62.0198 101.5,60.5C 102.107,60.6236 102.44,60.9569 102.5,61.5 Z"/></g>
<g><path style="opacity:1" fill="#0c1010" d="M 128.5,71.5 C 128.5,72.8333 128.5,74.1667 128.5,75.5C 126.1,74.0728 125.433,74.5728 126.5,77C 123.843,77.1747 121.176,77.0081 118.5,76.5C 118.079,66.7606 121.412,65.0939 128.5,71.5 Z"/></g>
<g><path style="opacity:1" fill="#adcbcd" d="M 140.5,77.5 C 139.833,78.5 139.167,79.5 138.5,80.5C 135.412,81.0685 132.412,81.0685 129.5,80.5C 128.691,78.9291 128.357,77.2624 128.5,75.5C 128.5,74.1667 128.5,72.8333 128.5,71.5C 127.659,69.6208 127.325,67.6208 127.5,65.5C 132.425,66.282 134.925,69.282 135,74.5C 137.326,74.88 139.159,75.88 140.5,77.5 Z"/></g>
<g><path style="opacity:1" fill="#4d342a" d="M 72.5,56.5 C 74.0541,59.9475 76.7208,61.9475 80.5,62.5C 78.7396,67.0265 75.7396,67.8598 71.5,65C 69.283,61.8315 68.4497,62.3315 69,66.5C 71.6024,67.4771 74.1024,68.6437 76.5,70C 71.8715,72.1403 67.3715,71.9736 63,69.5C 62.2599,70.7494 62.4265,71.7494 63.5,72.5C 62.1938,73.4674 61.5271,74.8007 61.5,76.5C 59.3392,76.5094 58.0059,77.1761 57.5,78.5C 55.8295,78.3318 54.4961,77.6651 53.5,76.5C 55.5739,75.4861 57.5739,74.4861 59.5,73.5C 60.0906,72.8485 60.7573,72.1818 61.5,71.5C 59.244,70.5791 58.244,68.9124 58.5,66.5C 60.4835,66.3832 62.1502,67.0499 63.5,68.5C 67.0637,65.6846 68.3971,62.1846 67.5,58C 69.2475,57.6481 70.9142,57.1481 72.5,56.5 Z"/></g>
<g><path style="opacity:1" fill="#21303a" d="M 103.5,73.5 C 105.06,75.1294 104.727,76.296 102.5,77C 105.615,80.261 107.948,83.4277 109.5,86.5C 108.833,87.1667 108.167,87.8333 107.5,88.5C 106.167,87.5 104.833,86.5 103.5,85.5C 101.914,82.7431 100.914,79.7431 100.5,76.5C 100.183,73.4281 100.516,70.4281 101.5,67.5C 102.308,67.8076 102.975,68.3076 103.5,69C 101.312,70.9643 101.312,72.4643 103.5,73.5 Z"/></g>
<g><path style="opacity:1" fill="#8fa4af" d="M 144.5,64.5 C 145.71,64.9321 146.71,65.5987 147.5,66.5C 146.629,70.0212 145.795,73.6879 145,77.5C 144.8,79.3197 143.966,80.653 142.5,81.5C 143.371,78.8877 144.037,76.221 144.5,73.5C 144.5,70.5 144.5,67.5 144.5,64.5 Z"/></g>
<g><path style="opacity:1" fill="#997d70" d="M 38.5,76.5 C 38.3284,77.4916 38.6618,78.1583 39.5,78.5C 38.6713,86.0031 42.0046,89.6697 49.5,89.5C 55.3954,87.8576 60.2287,89.5243 64,94.5C 64.6891,93.6433 65.5224,92.9767 66.5,92.5C 68.1874,96.0633 69.8541,99.5633 71.5,103C 74.3101,103.91 76.3101,103.077 77.5,100.5C 78.8333,98.5 80.1667,96.5 81.5,94.5C 82.2389,94.369 82.9056,94.5357 83.5,95C 83.7617,98.0867 83.4284,101.253 82.5,104.5C 81.7784,104.918 81.2784,105.584 81,106.5C 80.6667,105.833 80.3333,105.167 80,104.5C 78.6667,105.833 77.3333,105.833 76,104.5C 71.9541,110.3 69.7874,109.634 69.5,102.5C 68.5,102.5 67.5,102.5 66.5,102.5C 66.719,101.325 66.3857,100.325 65.5,99.5C 64.1576,97.6585 62.4909,96.1585 60.5,95C 56.2903,94.2618 52.1236,94.4285 48,95.5C 44.9279,94.0466 42.0946,92.2132 39.5,90C 35.1035,89.9342 30.7702,89.7676 26.5,89.5C 24.1434,90.0951 21.9767,91.0951 20,92.5C 19.6541,94.8477 18.4875,96.6811 16.5,98C 17.7836,99.2975 17.6169,100.464 16,101.5C 15.3333,103.167 15.3333,104.833 16,106.5C 20.2068,111.213 23.7068,116.546 26.5,122.5C 28.3954,128.019 29.5621,133.685 30,139.5C 31.0383,142.815 32.5383,145.815 34.5,148.5C 33.1667,148.5 31.8333,148.5 30.5,148.5C 31.3501,146.094 30.8501,143.76 29,141.5C 29.101,136.903 27.7677,132.903 25,129.5C 24.6667,126.833 24.3333,124.167 24,121.5C 22.951,119.893 21.451,119.227 19.5,119.5C 17.9648,116.768 16.1315,114.102 14,111.5C 13.6667,106.833 13.3333,102.167 13,97.5C 11.4513,93.9222 10.618,90.4222 10.5,87C 13.0102,85.7069 13.6769,83.8735 12.5,81.5C 14.0707,79.1178 14.904,76.4512 15,73.5C 18.8764,72.0301 22.0431,69.6968 24.5,66.5C 27.019,67.013 29.019,68.3463 30.5,70.5C 32.1756,73.1725 33.8423,75.8392 35.5,78.5C 36.5178,77.8075 37.5178,77.1408 38.5,76.5 Z"/></g>
<g><path style="opacity:1" fill="#604d4b" d="M 87.5,67.5 C 86.9228,69.8236 85.9228,71.9902 84.5,74C 84.8306,76.8776 86.164,79.0442 88.5,80.5C 86.1617,82.0395 83.4951,82.7062 80.5,82.5C 79.8333,80.5 79.1667,78.5 78.5,76.5C 77.4324,75.5655 76.099,75.2322 74.5,75.5C 73.8333,75.5 73.1667,75.5 72.5,75.5C 71.2438,75.5386 70.2438,75.0386 69.5,74C 71.6864,72.691 73.8531,72.5243 76,73.5C 78.4624,69.0739 82.2957,67.0739 87.5,67.5 Z"/></g>
<g><path style="opacity:1" fill="#517381" d="M 121.5,62.5 C 117.558,63.08 115.392,65.4133 115,69.5C 114.313,71.9203 114.813,74.087 116.5,76C 115.692,76.3076 115.025,76.8076 114.5,77.5C 115.127,78.4168 115.461,79.4168 115.5,80.5C 114.498,82.0109 113.831,83.6776 113.5,85.5C 116.285,86.0838 117.952,85.0838 118.5,82.5C 119.222,82.9175 119.722,83.5842 120,84.5C 121,81.8333 122,81.8333 123,84.5C 124.049,82.8934 125.549,82.2267 127.5,82.5C 127.31,85.8027 126.31,88.8027 124.5,91.5C 123.504,91.4142 122.671,91.7476 122,92.5C 121.717,90.3981 122.55,88.7315 124.5,87.5C 123.242,88.0164 122.242,87.3497 121.5,85.5C 121.605,87.4009 120.938,89.4009 119.5,91.5C 115.727,89.6137 112.394,87.947 109.5,86.5C 107.948,83.4277 105.615,80.261 102.5,77C 104.727,76.296 105.06,75.1294 103.5,73.5C 103.908,72.3569 104.575,71.3569 105.5,70.5C 106.711,71.2739 106.711,72.1072 105.5,73C 107.5,73.6667 109.5,73.6667 111.5,73C 110.167,72 110.167,71 111.5,70C 109.22,69.7674 107.22,68.934 105.5,67.5C 106.167,66.5 106.833,65.5 107.5,64.5C 111.735,63.0951 116.068,62.0951 120.5,61.5C 121.107,61.6236 121.44,61.9569 121.5,62.5 Z"/></g>
<g><path style="opacity:1" fill="#e3f6f6" d="M 147.5,66.5 C 149.808,68.4707 152.142,70.4707 154.5,72.5C 155.646,75.9589 156.646,79.4589 157.5,83C 156.707,86.2694 155.707,89.4361 154.5,92.5C 144.873,94.1602 135.206,95.4936 125.5,96.5C 126.5,95.8333 127.5,95.1667 128.5,94.5C 129.975,92.3101 131.975,90.9767 134.5,90.5C 137.861,88.1051 140.528,85.1051 142.5,81.5C 143.966,80.653 144.8,79.3197 145,77.5C 145.795,73.6879 146.629,70.0212 147.5,66.5 Z"/></g>
<g><path style="opacity:1" fill="#6f5649" d="M 35.5,41.5 C 36.7079,42.2341 38.0413,42.5674 39.5,42.5C 39.067,45.2853 37.7337,47.6187 35.5,49.5C 36.3928,52.0841 36.7261,54.7508 36.5,57.5C 30.2571,57.7928 24.2571,56.7928 18.5,54.5C 16.8849,55.154 15.2182,55.654 13.5,56C 12.3174,58.9992 10.4841,61.4992 8,63.5C 6.95005,69.6527 5.28338,75.6527 3,81.5C 2.82534,91.2131 3.49201,100.88 5,110.5C 6.22765,114.625 8.22765,118.291 11,121.5C 14.0046,130.629 17.1712,139.629 20.5,148.5C 18.8333,148.5 17.1667,148.5 15.5,148.5C 14.5423,147.038 13.3756,145.705 12,144.5C 7.99831,132.223 3.83164,120.223 -0.5,108.5C -0.5,97.8333 -0.5,87.1667 -0.5,76.5C 1.80244,67.4017 6.13578,59.235 12.5,52C 14.0344,51.077 15.701,50.577 17.5,50.5C 21.1161,51.9698 24.7827,53.4698 28.5,55C 30.2588,55.7975 31.9255,55.6309 33.5,54.5C 34.4112,50.212 35.0779,45.8786 35.5,41.5 Z"/></g>
<g><path style="opacity:1" fill="#8f979d" d="M 99.5,65.5 C 99.185,69.3714 99.5184,73.0381 100.5,76.5C 100.914,79.7431 101.914,82.7431 103.5,85.5C 99.9139,85.5438 97.5806,83.8771 96.5,80.5C 95.5,80.8333 94.8333,81.5 94.5,82.5C 95.8329,85.496 94.8329,87.1626 91.5,87.5C 88.7081,87.5479 86.8747,86.2146 86,83.5C 83.827,86.0673 81.9937,85.734 80.5,82.5C 83.4951,82.7062 86.1617,82.0395 88.5,80.5C 86.5102,71.5083 90.1768,66.5083 99.5,65.5 Z"/></g>
<g><path style="opacity:1" fill="#61624e" d="M 115.5,80.5 C 116.778,80.7822 117.778,81.4489 118.5,82.5C 117.952,85.0838 116.285,86.0838 113.5,85.5C 113.831,83.6776 114.498,82.0109 115.5,80.5 Z"/></g>
<g><path style="opacity:1" fill="#623629" d="M 63.5,72.5 C 64.9308,73.4458 66.2642,74.6125 67.5,76C 69.1341,76.4935 70.8008,76.6602 72.5,76.5C 70.9371,79.9011 68.4371,82.5677 65,84.5C 59.5426,84.1014 54.0426,83.9347 48.5,84C 47.6634,82.9887 47.33,81.8221 47.5,80.5C 48.5,80.5 49.5,80.5 50.5,80.5C 50.5,79.1667 50.5,77.8333 50.5,76.5C 51.5,76.5 52.5,76.5 53.5,76.5C 54.4961,77.6651 55.8295,78.3318 57.5,78.5C 58.0059,77.1761 59.3392,76.5094 61.5,76.5C 61.5271,74.8007 62.1938,73.4674 63.5,72.5 Z"/></g>
<g><path style="opacity:1" fill="#56211a" d="M 200.5,81.5 C 202.057,85.3238 203.724,89.1571 205.5,93C 206.63,96.521 206.63,100.021 205.5,103.5C 202.582,102.081 201.082,99.7481 201,96.5C 198.252,93.2658 195.752,89.9324 193.5,86.5C 191.637,83.4487 190.47,80.1154 190,76.5C 189.192,74.4213 189.359,72.4213 190.5,70.5C 195.163,72.8349 198.496,76.5016 200.5,81.5 Z"/></g>
<g><path style="opacity:1" fill="#dedcda" d="M 154.5,72.5 C 157.266,75.1637 159.933,77.997 162.5,81C 165.342,81.3477 167.009,82.8477 167.5,85.5C 165.946,89.3403 163.78,90.007 161,87.5C 159.294,88.3079 158.461,89.6412 158.5,91.5C 157.292,92.2341 155.959,92.5674 154.5,92.5C 155.707,89.4361 156.707,86.2694 157.5,83C 156.646,79.4589 155.646,75.9589 154.5,72.5 Z"/></g>
<g><path style="opacity:1" fill="#a0807b" d="M 183.5,69.5 C 184.172,70.2674 185.005,70.9341 186,71.5C 187.368,77.9589 189.534,83.9589 192.5,89.5C 191.5,89.5 190.5,89.5 189.5,89.5C 187.652,84.1417 184.986,79.1417 181.5,74.5C 183.028,74.4827 183.528,73.816 183,72.5C 181.509,70.9963 179.676,70.1629 177.5,70C 176.253,68.5064 176.253,67.0064 177.5,65.5C 179.911,66.3611 181.911,67.6944 183.5,69.5 Z"/></g>
<g><path style="opacity:1" fill="#4f6a7b" d="M 141.5,72.5 C 142.391,73.1098 143.391,73.4431 144.5,73.5C 144.037,76.221 143.371,78.8877 142.5,81.5C 140.528,85.1051 137.861,88.1051 134.5,90.5C 133.414,90.38 132.747,89.7133 132.5,88.5C 133.937,86.4229 134.604,84.0895 134.5,81.5C 136.099,81.7678 137.432,81.4345 138.5,80.5C 139.167,79.5 139.833,78.5 140.5,77.5C 141.451,76.0813 141.784,74.4147 141.5,72.5 Z"/></g>
<g><path style="opacity:1" fill="#ab5246" d="M 178.5,89.5 C 178.5,90.8333 178.5,92.1667 178.5,93.5C 174.71,93.9923 174.044,93.159 176.5,91C 174.383,87.7156 171.383,85.8823 167.5,85.5C 167.5,84.5 167.5,83.5 167.5,82.5C 168.552,82.3505 169.552,82.5172 170.5,83C 172.771,85.7821 175.437,87.9488 178.5,89.5 Z"/></g>
<g><path style="opacity:1" fill="#bb8a7c" d="M 147.5,61.5 C 151.28,63.7704 154.946,66.2704 158.5,69C 164.982,75.6479 171.648,82.1479 178.5,88.5C 178.5,88.8333 178.5,89.1667 178.5,89.5C 175.437,87.9488 172.771,85.7821 170.5,83C 169.552,82.5172 168.552,82.3505 167.5,82.5C 167.5,83.5 167.5,84.5 167.5,85.5C 167.009,82.8477 165.342,81.3477 162.5,81C 159.933,77.997 157.266,75.1637 154.5,72.5C 152.142,70.4707 149.808,68.4707 147.5,66.5C 148.5,66.5 149.5,66.5 150.5,66.5C 150.5,65.5 150.5,64.5 150.5,63.5C 148.821,63.7148 147.821,63.0481 147.5,61.5 Z"/></g>
<g><path style="opacity:1" fill="#ada0a5" d="M 78.5,76.5 C 79.1667,78.5 79.8333,80.5 80.5,82.5C 81.9937,85.734 83.827,86.0673 86,83.5C 86.8747,86.2146 88.7081,87.5479 91.5,87.5C 91.7118,89.3841 92.7118,90.7174 94.5,91.5C 94.1667,91.8333 93.8333,92.1667 93.5,92.5C 90.3388,91.0869 87.3388,89.4203 84.5,87.5C 84.1667,88.8333 83.8333,90.1667 83.5,91.5C 84.2427,92.1818 84.9094,92.8485 85.5,93.5C 83.5328,93.7394 81.6995,93.4061 80,92.5C 77.0541,87.6212 75.5541,82.2878 75.5,76.5C 76.5,76.5 77.5,76.5 78.5,76.5 Z"/></g>
<g><path style="opacity:1" fill="#724b42" d="M 59.5,73.5 C 57.5739,74.4861 55.5739,75.4861 53.5,76.5C 52.5,76.5 51.5,76.5 50.5,76.5C 50.5,77.8333 50.5,79.1667 50.5,80.5C 49.5,80.5 48.5,80.5 47.5,80.5C 47.33,81.8221 47.6634,82.9887 48.5,84C 54.0426,83.9347 59.5426,84.1014 65,84.5C 68.4371,82.5677 70.9371,79.9011 72.5,76.5C 72.5,76.1667 72.5,75.8333 72.5,75.5C 73.1667,75.5 73.8333,75.5 74.5,75.5C 73.8029,80.0184 73.4696,84.5184 73.5,89C 76.6513,90.4456 78.4846,92.9456 79,96.5C 79.7083,95.6195 80.5416,94.9528 81.5,94.5C 80.1667,96.5 78.8333,98.5 77.5,100.5C 76.6236,100.631 75.9569,100.298 75.5,99.5C 76.4512,95.8923 75.6179,95.8923 73,99.5C 70.7644,97.484 69.2644,94.984 68.5,92C 65.9925,91.9071 63.8259,91.0738 62,89.5C 61.5078,88.451 61.6744,87.451 62.5,86.5C 57.463,85.8467 52.463,85.5133 47.5,85.5C 45.8955,83.8211 45.2289,81.8211 45.5,79.5C 46.5,79.5 47.5,79.5 48.5,79.5C 48.2865,77.8561 48.6198,76.3561 49.5,75C 52.5706,74.8534 55.4039,74.0201 58,72.5C 58.3826,73.056 58.8826,73.3893 59.5,73.5 Z"/></g>
<g><path style="opacity:1" fill="#d2a6a5" d="M 167.5,85.5 C 171.383,85.8823 174.383,87.7156 176.5,91C 174.044,93.159 174.71,93.9923 178.5,93.5C 178.5,92.1667 178.5,90.8333 178.5,89.5C 180.585,91.6845 181.585,94.3511 181.5,97.5C 176.676,96.8639 171.843,96.1972 167,95.5C 165.237,95.9755 163.57,96.6422 162,97.5C 160.306,95.7604 159.139,93.7604 158.5,91.5C 158.461,89.6412 159.294,88.3079 161,87.5C 163.78,90.007 165.946,89.3403 167.5,85.5 Z"/></g>
<g><path style="opacity:1" fill="#bfcfd3" d="M 107.5,89.5 C 110.127,91.6007 113.127,92.9341 116.5,93.5C 120.298,94.4834 124.298,94.8168 128.5,94.5C 127.5,95.1667 126.5,95.8333 125.5,96.5C 125.5,96.8333 125.5,97.1667 125.5,97.5C 115.738,98.3975 106.405,96.8975 97.5,93C 98.2891,90.6349 99.4558,88.4682 101,86.5C 102.636,88.5497 104.802,89.5497 107.5,89.5 Z"/></g>
<g><path style="opacity:1" fill="#3a5362" d="M 124.5,91.5 C 125.376,91.3691 126.043,91.7025 126.5,92.5C 123.232,93.487 119.898,93.8204 116.5,93.5C 113.127,92.9341 110.127,91.6007 107.5,89.5C 107.5,89.1667 107.5,88.8333 107.5,88.5C 108.167,87.8333 108.833,87.1667 109.5,86.5C 112.394,87.947 115.727,89.6137 119.5,91.5C 120.938,89.4009 121.605,87.4009 121.5,85.5C 122.242,87.3497 123.242,88.0164 124.5,87.5C 122.55,88.7315 121.717,90.3981 122,92.5C 122.671,91.7476 123.504,91.4142 124.5,91.5 Z"/></g>
<g><path style="opacity:1" fill="#9f665b" d="M 189.5,62.5 C 193.746,64.7366 197.746,67.4033 201.5,70.5C 202.793,72.2959 204.293,73.9625 206,75.5C 206.49,76.7932 206.657,78.1266 206.5,79.5C 207.5,79.5 208.5,79.5 209.5,79.5C 209.337,81.8568 209.503,84.1902 210,86.5C 211.74,87.7158 212.74,89.3825 213,91.5C 217.479,110.346 220.312,129.346 221.5,148.5C 219.5,148.5 217.5,148.5 215.5,148.5C 216.777,145.795 216.61,143.128 215,140.5C 214.251,132.974 214.418,125.474 215.5,118C 214.797,112.857 214.297,107.691 214,102.5C 213.085,101.672 212.419,100.672 212,99.5C 212.698,93.2985 210.531,88.6318 205.5,85.5C 205.5,85.1667 205.5,84.8333 205.5,84.5C 205.662,82.4727 205.495,80.4727 205,78.5C 201.151,75.6494 197.984,72.1494 195.5,68C 192.084,65.613 188.251,64.113 184,63.5C 183.53,64.5768 183.697,65.5768 184.5,66.5C 182.255,65.1722 181.922,63.3388 183.5,61C 185.506,61.1503 187.506,61.6503 189.5,62.5 Z"/></g>
<g><path style="opacity:1" fill="#a68c7d" d="M 82.5,104.5 C 82.7828,105.289 83.2828,105.956 84,106.5C 86.7808,106.271 89.6142,106.271 92.5,106.5C 91.719,108.322 90.5523,108.989 89,108.5C 88.6905,109.766 88.1905,110.933 87.5,112C 88.624,112.249 89.624,112.749 90.5,113.5C 86.9292,114.268 83.4292,115.268 80,116.5C 76.459,115.971 72.959,115.304 69.5,114.5C 68.0499,113.15 67.3832,111.484 67.5,109.5C 66.0222,109.762 64.6888,109.429 63.5,108.5C 64.2458,107.264 64.5792,105.93 64.5,104.5C 63.5,104.5 62.5,104.5 61.5,104.5C 61.7683,101.881 61.435,99.3806 60.5,97C 55.5,96.6667 50.5,96.3333 45.5,96C 43.5471,94.3674 41.3804,93.2007 39,92.5C 34.5696,93.7044 30.0696,94.5377 25.5,95C 23.5246,97.0289 22.5246,99.5289 22.5,102.5C 24.0937,105.357 25.4271,108.357 26.5,111.5C 27.7362,112.246 29.0695,112.579 30.5,112.5C 30.33,113.822 30.6634,114.989 31.5,116C 30.8333,117 30.1667,118 29.5,119C 31.2271,127.181 33.5604,135.181 36.5,143C 36.8333,143.167 37.1667,143.333 37.5,143.5C 38.2508,142.624 38.7508,141.624 39,140.5C 39.2321,141.737 39.7321,142.737 40.5,143.5C 41.4511,144.919 41.7845,146.585 41.5,148.5C 39.1667,148.5 36.8333,148.5 34.5,148.5C 32.5383,145.815 31.0383,142.815 30,139.5C 29.5621,133.685 28.3954,128.019 26.5,122.5C 23.7068,116.546 20.2068,111.213 16,106.5C 15.3333,104.833 15.3333,103.167 16,101.5C 17.6169,100.464 17.7836,99.2975 16.5,98C 18.4875,96.6811 19.6541,94.8477 20,92.5C 21.9767,91.0951 24.1434,90.0951 26.5,89.5C 30.7702,89.7676 35.1035,89.9342 39.5,90C 42.0946,92.2132 44.9279,94.0466 48,95.5C 52.1236,94.4285 56.2903,94.2618 60.5,95C 62.4909,96.1585 64.1576,97.6585 65.5,99.5C 66.3857,100.325 66.719,101.325 66.5,102.5C 67.5,102.5 68.5,102.5 69.5,102.5C 69.7874,109.634 71.9541,110.3 76,104.5C 77.3333,105.833 78.6667,105.833 80,104.5C 80.3333,105.167 80.6667,105.833 81,106.5C 81.2784,105.584 81.7784,104.918 82.5,104.5 Z"/></g>
<g><path style="opacity:1" fill="#e8dbdc" d="M 154.5,92.5 C 153.71,93.7942 152.71,94.9609 151.5,96C 151.833,96.3333 152.167,96.6667 152.5,97C 150.924,97.4396 149.59,98.273 148.5,99.5C 146.809,97.7438 144.809,97.2438 142.5,98C 144.67,98.8112 146.337,100.145 147.5,102C 146.518,104.009 145.185,104.509 143.5,103.5C 145.748,102.676 145.914,101.676 144,100.5C 143.167,101.5 142.333,102.5 141.5,103.5C 140.483,100.972 139.316,100.972 138,103.5C 136.488,101.043 135.154,101.043 134,103.5C 132.53,101.123 131.03,101.123 129.5,103.5C 128.448,103.649 127.448,103.483 126.5,103C 129.642,101.982 129.976,100.815 127.5,99.5C 127.918,98.7784 128.584,98.2784 129.5,98C 128.207,97.51 126.873,97.3433 125.5,97.5C 125.5,97.1667 125.5,96.8333 125.5,96.5C 135.206,95.4936 144.873,94.1602 154.5,92.5 Z"/></g>
<g><path style="opacity:1" fill="#ccc3c6" d="M 103.5,85.5 C 104.833,86.5 106.167,87.5 107.5,88.5C 107.5,88.8333 107.5,89.1667 107.5,89.5C 104.802,89.5497 102.636,88.5497 101,86.5C 99.4558,88.4682 98.2891,90.6349 97.5,93C 106.405,96.8975 115.738,98.3975 125.5,97.5C 126.873,97.3433 128.207,97.51 129.5,98C 128.584,98.2784 127.918,98.7784 127.5,99.5C 125.453,101.075 123.119,102.075 120.5,102.5C 119.732,103.263 119.232,104.263 119,105.5C 117.903,103.947 116.57,102.614 115,101.5C 112.667,102.833 110.333,102.833 108,101.5C 107.333,102.167 106.667,102.833 106,103.5C 106,102.167 106,100.833 106,99.5C 98.3302,100.594 91.4969,98.5938 85.5,93.5C 84.9094,92.8485 84.2427,92.1818 83.5,91.5C 83.8333,90.1667 84.1667,88.8333 84.5,87.5C 87.3388,89.4203 90.3388,91.0869 93.5,92.5C 93.8333,92.1667 94.1667,91.8333 94.5,91.5C 92.7118,90.7174 91.7118,89.3841 91.5,87.5C 94.8329,87.1626 95.8329,85.496 94.5,82.5C 94.8333,81.5 95.5,80.8333 96.5,80.5C 97.5806,83.8771 99.9139,85.5438 103.5,85.5 Z"/></g>
<g><path style="opacity:1" fill="#783d34" d="M 200.5,81.5 C 201.979,82.759 203.646,83.759 205.5,84.5C 205.5,84.8333 205.5,85.1667 205.5,85.5C 206.259,87.4358 207.259,89.2691 208.5,91C 207.817,95.293 208.984,99.1263 212,102.5C 212.307,107.357 212.807,112.19 213.5,117C 212.324,125.474 210.824,125.641 209,117.5C 207.307,116.816 205.807,115.816 204.5,114.5C 203.86,110.732 202.36,107.398 200,104.5C 199.809,99.3191 197.976,94.9857 194.5,91.5C 194.371,89.7839 194.038,88.1172 193.5,86.5C 195.752,89.9324 198.252,93.2658 201,96.5C 201.082,99.7481 202.582,102.081 205.5,103.5C 206.63,100.021 206.63,96.521 205.5,93C 203.724,89.1571 202.057,85.3238 200.5,81.5 Z"/></g>
<g><path style="opacity:1" fill="#bf958c" d="M 207.5,71.5 C 208.88,74.2304 210.547,76.897 212.5,79.5C 213.325,80.3857 214.325,80.719 215.5,80.5C 216.15,80.8039 216.817,81.1373 217.5,81.5C 219.295,86.0133 220.462,90.6799 221,95.5C 221.852,96.5707 222.685,97.5707 223.5,98.5C 223.5,106.833 223.5,115.167 223.5,123.5C 221.32,116.776 219.82,109.776 219,102.5C 217.701,101.91 216.868,100.91 216.5,99.5C 215.474,95.2041 214.641,90.8708 214,86.5C 213.385,84.8839 212.385,83.5505 211,82.5C 209.268,79.0308 208.102,75.3641 207.5,71.5 Z"/></g>
<g><path style="opacity:1" fill="#eadfdf" d="M 179.5,99.5 C 178.209,100.473 178.209,101.473 179.5,102.5C 177.902,104.973 176.402,104.973 175,102.5C 171.993,104.496 169.16,104.496 166.5,102.5C 165.893,102.624 165.56,102.957 165.5,103.5C 160.293,102.707 154.96,102.707 149.5,103.5C 151.242,101.183 153.576,99.6833 156.5,99C 160.82,98.3441 164.986,98.5108 169,99.5C 170.763,99.0245 172.43,98.3578 174,97.5C 174.915,98.3279 175.581,99.3279 176,100.5C 177.011,99.6634 178.178,99.33 179.5,99.5 Z"/></g>
<g><path style="opacity:1" fill="#b6a294" d="M 63.5,114.5 C 59.2194,115.517 56.886,113.85 56.5,109.5C 54.838,108.673 53.5046,107.507 52.5,106C 53.731,104.817 53.731,103.651 52.5,102.5C 51.7303,104.272 50.3969,105.272 48.5,105.5C 46.3987,104.408 44.2321,103.408 42,102.5C 40.7163,103.572 40.3829,104.905 41,106.5C 36.5739,109.273 35.4072,113.106 37.5,118C 38.5613,120.031 39.8946,121.864 41.5,123.5C 40.2443,126.012 40.2443,128.512 41.5,131C 40.3301,132.587 39.3301,134.253 38.5,136C 41.6416,137.45 43.3083,139.95 43.5,143.5C 45.9307,144.36 47.264,146.027 47.5,148.5C 45.5,148.5 43.5,148.5 41.5,148.5C 41.7845,146.585 41.4511,144.919 40.5,143.5C 40.5,142.167 40.5,140.833 40.5,139.5C 38.8333,139.5 37.1667,139.5 35.5,139.5C 35.142,135.401 35.142,131.401 35.5,127.5C 33.7101,125.13 32.7101,122.464 32.5,119.5C 33.9804,116.087 33.8137,112.753 32,109.5C 30.9207,111.394 29.5874,111.727 28,110.5C 21.6022,100.233 24.4355,95.4002 36.5,96C 37.8333,96.6667 37.8333,97.3333 36.5,98C 38.235,98.6514 39.9017,98.4847 41.5,97.5C 43.2155,98.7154 45.0488,99.7154 47,100.5C 49.9304,98.7619 53.0971,98.2619 56.5,99C 59.3837,103.909 61.717,109.076 63.5,114.5 Z"/></g>
<g><path style="opacity:1" fill="#9f7e7e" d="M 74.5,75.5 C 76.099,75.2322 77.4324,75.5655 78.5,76.5C 77.5,76.5 76.5,76.5 75.5,76.5C 75.5541,82.2878 77.0541,87.6212 80,92.5C 81.6995,93.4061 83.5328,93.7394 85.5,93.5C 85.1961,94.1499 84.8627,94.8165 84.5,95.5C 86.7961,97.5523 89.4628,98.5523 92.5,98.5C 92.6399,100.124 91.9733,101.29 90.5,102C 93.2156,101.561 95.8823,101.395 98.5,101.5C 100.794,102.625 100.794,103.959 98.5,105.5C 97.5,105.5 96.5,105.5 95.5,105.5C 94.6782,103.45 93.6782,103.783 92.5,106.5C 89.6142,106.271 86.7808,106.271 84,106.5C 83.2828,105.956 82.7828,105.289 82.5,104.5C 83.4284,101.253 83.7617,98.0867 83.5,95C 82.9056,94.5357 82.2389,94.369 81.5,94.5C 80.5416,94.9528 79.7083,95.6195 79,96.5C 78.4846,92.9456 76.6513,90.4456 73.5,89C 73.4696,84.5184 73.8029,80.0184 74.5,75.5 Z"/></g>
<g><path style="opacity:1" fill="#b39397" d="M 85.5,93.5 C 91.4969,98.5938 98.3302,100.594 106,99.5C 106,100.833 106,102.167 106,103.5C 106.667,102.833 107.333,102.167 108,101.5C 110.333,102.833 112.667,102.833 115,101.5C 116.57,102.614 117.903,103.947 119,105.5C 119.232,104.263 119.732,103.263 120.5,102.5C 122.113,103.838 122.613,105.505 122,107.5C 119.398,107.101 116.898,107.101 114.5,107.5C 114.027,109.247 113.693,110.914 113.5,112.5C 112.833,113.833 112.167,113.833 111.5,112.5C 111.5,111.5 111.5,110.5 111.5,109.5C 107.021,108.699 102.688,107.366 98.5,105.5C 100.794,103.959 100.794,102.625 98.5,101.5C 95.8823,101.395 93.2156,101.561 90.5,102C 91.9733,101.29 92.6399,100.124 92.5,98.5C 89.4628,98.5523 86.7961,97.5523 84.5,95.5C 84.8627,94.8165 85.1961,94.1499 85.5,93.5 Z"/></g>
<g><path style="opacity:1" fill="#cbacb1" d="M 127.5,99.5 C 129.976,100.815 129.642,101.982 126.5,103C 127.448,103.483 128.448,103.649 129.5,103.5C 130.376,103.369 131.043,103.702 131.5,104.5C 129.811,107.891 127.644,110.891 125,113.5C 124.692,112.692 124.192,112.025 123.5,111.5C 120.499,112.155 117.166,112.488 113.5,112.5C 113.693,110.914 114.027,109.247 114.5,107.5C 116.898,107.101 119.398,107.101 122,107.5C 122.613,105.505 122.113,103.838 120.5,102.5C 123.119,102.075 125.453,101.075 127.5,99.5 Z"/></g>
<g><path style="opacity:1" fill="#c2b0a1" d="M 63.5,114.5 C 64.4812,116.309 65.9812,117.643 68,118.5C 68.3095,119.766 68.8095,120.933 69.5,122C 72.1677,122.567 74.8344,123.067 77.5,123.5C 75.418,125.103 73.0847,126.437 70.5,127.5C 67.7111,126.851 65.0444,125.851 62.5,124.5C 60.9436,125.547 59.2769,126.214 57.5,126.5C 56.1885,122.996 54.1885,119.83 51.5,117C 52.6091,115.187 51.9424,114.354 49.5,114.5C 47.9747,119.214 45.6414,123.547 42.5,127.5C 43.7728,129.984 43.7728,132.484 42.5,135C 44.993,138.132 47.8264,140.966 51,143.5C 51.6077,145.154 52.1077,146.821 52.5,148.5C 50.8333,148.5 49.1667,148.5 47.5,148.5C 47.264,146.027 45.9307,144.36 43.5,143.5C 43.3083,139.95 41.6416,137.45 38.5,136C 39.3301,134.253 40.3301,132.587 41.5,131C 40.2443,128.512 40.2443,126.012 41.5,123.5C 39.8946,121.864 38.5613,120.031 37.5,118C 35.4072,113.106 36.5739,109.273 41,106.5C 40.3829,104.905 40.7163,103.572 42,102.5C 44.2321,103.408 46.3987,104.408 48.5,105.5C 50.3969,105.272 51.7303,104.272 52.5,102.5C 53.731,103.651 53.731,104.817 52.5,106C 53.5046,107.507 54.838,108.673 56.5,109.5C 56.886,113.85 59.2194,115.517 63.5,114.5 Z"/></g>
<g><path style="opacity:1" fill="#886c5d" d="M 39.5,78.5 C 38.6618,78.1583 38.3284,77.4916 38.5,76.5C 38.2437,74.0628 37.5771,71.7294 36.5,69.5C 31.8333,67.8333 27.1667,66.1667 22.5,64.5C 19.1667,66.5 15.8333,68.5 12.5,70.5C 8.0905,80.0506 6.5905,90.0506 8,100.5C 11.2282,107.519 14.0615,114.686 16.5,122C 18.4714,126.784 21.3048,130.95 25,134.5C 25.2148,137.856 25.2148,141.189 25,144.5C 26.9923,145.328 28.4923,146.661 29.5,148.5C 26.8333,148.5 24.1667,148.5 21.5,148.5C 21.8957,145.956 21.229,143.789 19.5,142C 20.5171,140.951 20.6838,139.784 20,138.5C 16.142,126.459 11.4754,114.793 6,103.5C 5.85256,97.5535 5.01923,91.7201 3.5,86C 5.12676,80.1188 6.9601,74.2855 9,68.5C 10.7932,65.7047 12.9598,63.2047 15.5,61C 20.5182,58.2698 24.6849,59.1031 28,63.5C 30.9036,61.7732 34.0703,61.1065 37.5,61.5C 37.6079,63.7834 38.4412,65.7834 40,67.5C 40.6781,71.2211 40.5114,74.8878 39.5,78.5 Z"/></g>
<g><path style="opacity:1" fill="#b19a8c" d="M 92.5,106.5 C 93.6782,103.783 94.6782,103.45 95.5,105.5C 94.4581,107.739 93.1247,109.905 91.5,112C 92.938,112.219 94.2713,112.719 95.5,113.5C 93.4287,114.976 92.4287,116.976 92.5,119.5C 90.095,119.866 87.7617,120.533 85.5,121.5C 82.3104,119.609 79.9771,120.276 78.5,123.5C 78.1667,123.5 77.8333,123.5 77.5,123.5C 74.8344,123.067 72.1677,122.567 69.5,122C 68.8095,120.933 68.3095,119.766 68,118.5C 65.9812,117.643 64.4812,116.309 63.5,114.5C 61.717,109.076 59.3837,103.909 56.5,99C 53.0971,98.2619 49.9304,98.7619 47,100.5C 45.0488,99.7154 43.2155,98.7154 41.5,97.5C 39.9017,98.4847 38.235,98.6514 36.5,98C 37.8333,97.3333 37.8333,96.6667 36.5,96C 24.4355,95.4002 21.6022,100.233 28,110.5C 29.5874,111.727 30.9207,111.394 32,109.5C 33.8137,112.753 33.9804,116.087 32.5,119.5C 32.7101,122.464 33.7101,125.13 35.5,127.5C 35.142,131.401 35.142,135.401 35.5,139.5C 37.1667,139.5 38.8333,139.5 40.5,139.5C 40.5,140.833 40.5,142.167 40.5,143.5C 39.7321,142.737 39.2321,141.737 39,140.5C 38.7508,141.624 38.2508,142.624 37.5,143.5C 37.1667,143.333 36.8333,143.167 36.5,143C 33.5604,135.181 31.2271,127.181 29.5,119C 30.1667,118 30.8333,117 31.5,116C 30.6634,114.989 30.33,113.822 30.5,112.5C 29.0695,112.579 27.7362,112.246 26.5,111.5C 25.4271,108.357 24.0937,105.357 22.5,102.5C 22.5246,99.5289 23.5246,97.0289 25.5,95C 30.0696,94.5377 34.5696,93.7044 39,92.5C 41.3804,93.2007 43.5471,94.3674 45.5,96C 50.5,96.3333 55.5,96.6667 60.5,97C 61.435,99.3806 61.7683,101.881 61.5,104.5C 62.5,104.5 63.5,104.5 64.5,104.5C 64.5792,105.93 64.2458,107.264 63.5,108.5C 64.6888,109.429 66.0222,109.762 67.5,109.5C 67.3832,111.484 68.0499,113.15 69.5,114.5C 72.959,115.304 76.459,115.971 80,116.5C 83.4292,115.268 86.9292,114.268 90.5,113.5C 89.624,112.749 88.624,112.249 87.5,112C 88.1905,110.933 88.6905,109.766 89,108.5C 90.5523,108.989 91.719,108.322 92.5,106.5 Z"/></g>
<g><path style="opacity:1" fill="#c6aea4" d="M 95.5,105.5 C 96.5,105.5 97.5,105.5 98.5,105.5C 102.688,107.366 107.021,108.699 111.5,109.5C 111.5,110.5 111.5,111.5 111.5,112.5C 108.213,113.161 104.88,113.661 101.5,114C 102.667,115.5 103.833,117 105,118.5C 105.414,118.043 105.914,117.709 106.5,117.5C 107.182,118.243 107.849,118.909 108.5,119.5C 109.598,120.397 109.598,121.23 108.5,122C 106.866,122.494 105.199,122.66 103.5,122.5C 97.7377,122.436 92.0711,123.103 86.5,124.5C 85.9965,128.335 84.9965,128.335 83.5,124.5C 81.9291,123.691 80.2624,123.357 78.5,123.5C 79.9771,120.276 82.3104,119.609 85.5,121.5C 87.7617,120.533 90.095,119.866 92.5,119.5C 92.4287,116.976 93.4287,114.976 95.5,113.5C 94.2713,112.719 92.938,112.219 91.5,112C 93.1247,109.905 94.4581,107.739 95.5,105.5 Z"/></g>
<g><path style="opacity:1" fill="#e5d1c8" d="M 141.5,119.5 C 142.376,119.369 143.043,119.702 143.5,120.5C 140.975,123.42 140.975,126.254 143.5,129C 143.167,129.333 142.833,129.667 142.5,130C 143.308,130.308 143.975,130.808 144.5,131.5C 144.167,132.833 143.833,134.167 143.5,135.5C 144.887,135.807 146.554,135.807 148.5,135.5C 149.973,137.084 151.64,138.584 153.5,140C 153.05,141.285 152.383,142.452 151.5,143.5C 152.833,144.833 154.167,144.833 155.5,143.5C 154.196,141.984 154.696,141.318 157,141.5C 158.07,141.528 158.903,141.861 159.5,142.5C 159.719,143.675 159.386,144.675 158.5,145.5C 158.002,144.397 157.669,143.397 157.5,142.5C 156.534,144.396 156.201,146.396 156.5,148.5C 135.833,148.5 115.167,148.5 94.5,148.5C 94.8039,147.85 95.1373,147.183 95.5,146.5C 98.5,145.833 101.5,145.167 104.5,144.5C 103.289,143.28 103.289,142.113 104.5,141C 109.256,139.556 113.089,140.723 116,144.5C 118.851,142.655 122.018,141.489 125.5,141C 124.833,140.667 124.167,140.333 123.5,140C 124.653,138.117 126.319,137.284 128.5,137.5C 128.5,138.5 128.5,139.5 128.5,140.5C 130.331,141.052 131.997,141.052 133.5,140.5C 132.737,139.281 131.737,138.281 130.5,137.5C 131.641,136.575 131.641,135.741 130.5,135C 129.167,135 127.833,135 126.5,135C 128.396,133.935 128.563,133.102 127,132.5C 124.863,134.461 123.363,136.794 122.5,139.5C 120.4,139.523 118.567,138.856 117,137.5C 115.838,138.187 114.672,138.353 113.5,138C 112.594,136.301 112.261,134.467 112.5,132.5C 113.791,132.737 114.791,132.404 115.5,131.5C 116.434,130.432 116.768,129.099 116.5,127.5C 123.037,126.256 129.37,124.256 135.5,121.5C 138.018,122.582 140.018,121.915 141.5,119.5 Z"/></g>
<g><path style="opacity:1" fill="#e1c8c4" d="M 158.5,91.5 C 159.139,93.7604 160.306,95.7604 162,97.5C 163.57,96.6422 165.237,95.9755 167,95.5C 171.843,96.1972 176.676,96.8639 181.5,97.5C 180.833,98.1667 180.167,98.8333 179.5,99.5C 178.178,99.33 177.011,99.6634 176,100.5C 175.581,99.3279 174.915,98.3279 174,97.5C 172.43,98.3578 170.763,99.0245 169,99.5C 164.986,98.5108 160.82,98.3441 156.5,99C 153.576,99.6833 151.242,101.183 149.5,103.5C 154.96,102.707 160.293,102.707 165.5,103.5C 163.868,104.832 162.201,106.165 160.5,107.5C 161.603,107.998 162.603,108.331 163.5,108.5C 161.518,109.216 159.851,110.383 158.5,112C 160.291,112.415 161.624,113.415 162.5,115C 160.205,115.984 160.539,116.817 163.5,117.5C 164.583,118.365 164.749,119.365 164,120.5C 161.957,118.181 159.457,117.347 156.5,118C 155.874,118.75 155.374,119.584 155,120.5C 154.333,119.167 153.667,119.167 153,120.5C 152.311,125.362 151.144,125.362 149.5,120.5C 148.448,120.351 147.448,120.517 146.5,121C 146.833,121.333 147.167,121.667 147.5,122C 145.938,123.887 144.271,124.72 142.5,124.5C 143.145,126.432 144.479,127.599 146.5,128C 146.043,128.414 145.709,128.914 145.5,129.5C 146.37,131.626 147.37,133.626 148.5,135.5C 146.554,135.807 144.887,135.807 143.5,135.5C 143.833,134.167 144.167,132.833 144.5,131.5C 143.975,130.808 143.308,130.308 142.5,130C 142.833,129.667 143.167,129.333 143.5,129C 140.975,126.254 140.975,123.42 143.5,120.5C 143.043,119.702 142.376,119.369 141.5,119.5C 142.301,117.958 142.634,116.292 142.5,114.5C 141.448,114.351 140.448,114.517 139.5,115C 140.141,118.684 138.641,119.85 135,118.5C 132.667,119.167 130.333,119.833 128,120.5C 127,119.833 126,119.167 125,118.5C 122.739,118.865 120.573,119.531 118.5,120.5C 116.292,120.194 114.792,119.194 114,117.5C 112.433,118.856 110.6,119.523 108.5,119.5C 107.849,118.909 107.182,118.243 106.5,117.5C 105.914,117.709 105.414,118.043 105,118.5C 103.833,117 102.667,115.5 101.5,114C 104.88,113.661 108.213,113.161 111.5,112.5C 112.167,113.833 112.833,113.833 113.5,112.5C 117.166,112.488 120.499,112.155 123.5,111.5C 124.192,112.025 124.692,112.692 125,113.5C 127.644,110.891 129.811,107.891 131.5,104.5C 131.043,103.702 130.376,103.369 129.5,103.5C 131.03,101.123 132.53,101.123 134,103.5C 135.154,101.043 136.488,101.043 138,103.5C 139.316,100.972 140.483,100.972 141.5,103.5C 142.333,102.5 143.167,101.5 144,100.5C 145.914,101.676 145.748,102.676 143.5,103.5C 145.185,104.509 146.518,104.009 147.5,102C 146.337,100.145 144.67,98.8112 142.5,98C 144.809,97.2438 146.809,97.7438 148.5,99.5C 149.59,98.273 150.924,97.4396 152.5,97C 152.167,96.6667 151.833,96.3333 151.5,96C 152.71,94.9609 153.71,93.7942 154.5,92.5C 155.959,92.5674 157.292,92.2341 158.5,91.5 Z"/></g>
<g><path style="opacity:1" fill="#bba49d" d="M 175.5,74.5 C 177.5,75.8333 179.5,75.8333 181.5,74.5C 184.986,79.1417 187.652,84.1417 189.5,89.5C 190.5,89.5 191.5,89.5 192.5,89.5C 192.833,90.5 193.5,91.1667 194.5,91.5C 195.92,94.2613 196.587,97.2613 196.5,100.5C 195.774,105.816 195.107,111.149 194.5,116.5C 191.402,116.413 191.068,116.913 193.5,118C 191.112,118.865 189.612,118.032 189,115.5C 188.667,116.833 188.333,118.167 188,119.5C 187.667,119.167 187.333,118.833 187,118.5C 188.174,121.361 188.841,124.361 189,127.5C 187.887,126.289 186.72,126.289 185.5,127.5C 184.749,126.624 184.249,125.624 184,124.5C 183.333,126.5 182.667,128.5 182,130.5C 181.34,128.676 180.173,127.343 178.5,126.5C 178.509,124.339 179.176,123.006 180.5,122.5C 179.212,119.572 179.879,117.072 182.5,115C 181.332,113.594 181.665,112.428 183.5,111.5C 183.167,110.833 182.833,110.167 182.5,109.5C 183.53,109.446 184.697,109.112 186,108.5C 187.779,111.276 188.779,110.943 189,107.5C 189.333,107.833 189.667,108.167 190,108.5C 191.946,100.498 190.946,92.8311 187,85.5C 185.322,83.3341 183.155,82.0007 180.5,81.5C 178.42,79.4268 176.754,77.0934 175.5,74.5 Z"/></g>
<g><path style="opacity:1" fill="#b28176" d="M 201.5,70.5 C 202.167,70.5 202.833,70.5 203.5,70.5C 204.833,70.8333 206.167,71.1667 207.5,71.5C 208.102,75.3641 209.268,79.0308 211,82.5C 212.385,83.5505 213.385,84.8839 214,86.5C 214.641,90.8708 215.474,95.2041 216.5,99.5C 216.868,100.91 217.701,101.91 219,102.5C 219.82,109.776 221.32,116.776 223.5,123.5C 223.5,131.833 223.5,140.167 223.5,148.5C 222.833,148.5 222.167,148.5 221.5,148.5C 220.312,129.346 217.479,110.346 213,91.5C 212.74,89.3825 211.74,87.7158 210,86.5C 209.503,84.1902 209.337,81.8568 209.5,79.5C 208.5,79.5 207.5,79.5 206.5,79.5C 206.657,78.1266 206.49,76.7932 206,75.5C 204.293,73.9625 202.793,72.2959 201.5,70.5 Z"/></g>
<g><path style="opacity:1" fill="#8f574c" d="M 205.5,85.5 C 210.531,88.6318 212.698,93.2985 212,99.5C 212.419,100.672 213.085,101.672 214,102.5C 214.297,107.691 214.797,112.857 215.5,118C 214.418,125.474 214.251,132.974 215,140.5C 216.61,143.128 216.777,145.795 215.5,148.5C 212.5,148.5 209.5,148.5 206.5,148.5C 207.793,140.841 207.793,133.174 206.5,125.5C 204.901,125.232 203.568,125.566 202.5,126.5C 199.849,122.138 199.849,117.638 202.5,113C 199.623,109.175 197.623,105.009 196.5,100.5C 196.587,97.2613 195.92,94.2613 194.5,91.5C 197.976,94.9857 199.809,99.3191 200,104.5C 202.36,107.398 203.86,110.732 204.5,114.5C 205.807,115.816 207.307,116.816 209,117.5C 210.824,125.641 212.324,125.474 213.5,117C 212.807,112.19 212.307,107.357 212,102.5C 208.984,99.1263 207.817,95.293 208.5,91C 207.259,89.2691 206.259,87.4358 205.5,85.5 Z"/></g>
<g><path style="opacity:1" fill="#d9c6b8" d="M 141.5,119.5 C 140.018,121.915 138.018,122.582 135.5,121.5C 129.37,124.256 123.037,126.256 116.5,127.5C 116.768,129.099 116.434,130.432 115.5,131.5C 114.596,130.791 114.263,129.791 114.5,128.5C 106.101,130.504 97.7674,132.67 89.5,135C 87.8644,136.935 86.0311,137.435 84,136.5C 83.5,136.833 83,137.167 82.5,137.5C 85.4033,138.904 88.0699,138.571 90.5,136.5C 90.8333,136.833 91.1667,137.167 91.5,137.5C 89.3635,138.472 88.1968,140.139 88,142.5C 85.0964,140.773 81.9297,140.107 78.5,140.5C 79.101,136.091 77.4343,134.758 73.5,136.5C 73.9767,137.478 74.6433,138.311 75.5,139C 73.1144,139.284 72.4477,140.284 73.5,142C 71.0629,143.279 70.5629,144.779 72,146.5C 73.6461,145.221 74.8128,143.555 75.5,141.5C 75.8333,141.667 76.1667,141.833 76.5,142C 77.3331,144.081 77.3331,146.248 76.5,148.5C 71.8333,148.5 67.1667,148.5 62.5,148.5C 62.4606,147.417 62.1272,146.417 61.5,145.5C 58.7012,144.996 56.2012,143.996 54,142.5C 52.4315,138.083 53.9315,136.083 58.5,136.5C 58.5,135.5 58.5,134.5 58.5,133.5C 57.1667,133.5 55.8333,133.5 54.5,133.5C 54.3601,131.876 55.0267,130.71 56.5,130C 54.7295,129.465 54.3961,128.631 55.5,127.5C 59.6591,130.747 63.9924,133.747 68.5,136.5C 69.7681,134.696 70.4348,132.696 70.5,130.5C 72.5824,130.528 74.4157,129.861 76,128.5C 81.1375,131.836 86.6375,132.836 92.5,131.5C 92.5,130.167 92.5,128.833 92.5,127.5C 97.5722,128.614 101.239,126.947 103.5,122.5C 105.199,122.66 106.866,122.494 108.5,122C 109.598,121.23 109.598,120.397 108.5,119.5C 110.6,119.523 112.433,118.856 114,117.5C 114.792,119.194 116.292,120.194 118.5,120.5C 120.573,119.531 122.739,118.865 125,118.5C 126,119.167 127,119.833 128,120.5C 130.333,119.833 132.667,119.167 135,118.5C 138.641,119.85 140.141,118.684 139.5,115C 140.448,114.517 141.448,114.351 142.5,114.5C 142.634,116.292 142.301,117.958 141.5,119.5 Z"/></g>
<g><path style="opacity:1" fill="#d1beaf" d="M 77.5,123.5 C 77.8333,123.5 78.1667,123.5 78.5,123.5C 80.2624,123.357 81.9291,123.691 83.5,124.5C 84.9965,128.335 85.9965,128.335 86.5,124.5C 92.0711,123.103 97.7377,122.436 103.5,122.5C 101.239,126.947 97.5722,128.614 92.5,127.5C 92.5,128.833 92.5,130.167 92.5,131.5C 86.6375,132.836 81.1375,131.836 76,128.5C 74.4157,129.861 72.5824,130.528 70.5,130.5C 70.4348,132.696 69.7681,134.696 68.5,136.5C 63.9924,133.747 59.6591,130.747 55.5,127.5C 54.3961,128.631 54.7295,129.465 56.5,130C 55.0267,130.71 54.3601,131.876 54.5,133.5C 55.8333,133.5 57.1667,133.5 58.5,133.5C 58.5,134.5 58.5,135.5 58.5,136.5C 53.9315,136.083 52.4315,138.083 54,142.5C 56.2012,143.996 58.7012,144.996 61.5,145.5C 62.1272,146.417 62.4606,147.417 62.5,148.5C 59.1667,148.5 55.8333,148.5 52.5,148.5C 52.1077,146.821 51.6077,145.154 51,143.5C 47.8264,140.966 44.993,138.132 42.5,135C 43.7728,132.484 43.7728,129.984 42.5,127.5C 45.6414,123.547 47.9747,119.214 49.5,114.5C 51.9424,114.354 52.6091,115.187 51.5,117C 54.1885,119.83 56.1885,122.996 57.5,126.5C 59.2769,126.214 60.9436,125.547 62.5,124.5C 65.0444,125.851 67.7111,126.851 70.5,127.5C 73.0847,126.437 75.418,125.103 77.5,123.5 Z"/></g>
<g><path style="opacity:1" fill="#e0cec3" d="M 115.5,131.5 C 114.791,132.404 113.791,132.737 112.5,132.5C 112.261,134.467 112.594,136.301 113.5,138C 114.672,138.353 115.838,138.187 117,137.5C 118.567,138.856 120.4,139.523 122.5,139.5C 123.363,136.794 124.863,134.461 127,132.5C 128.563,133.102 128.396,133.935 126.5,135C 127.833,135 129.167,135 130.5,135C 131.641,135.741 131.641,136.575 130.5,137.5C 131.737,138.281 132.737,139.281 133.5,140.5C 131.997,141.052 130.331,141.052 128.5,140.5C 128.5,139.5 128.5,138.5 128.5,137.5C 126.319,137.284 124.653,138.117 123.5,140C 124.167,140.333 124.833,140.667 125.5,141C 122.018,141.489 118.851,142.655 116,144.5C 113.089,140.723 109.256,139.556 104.5,141C 103.289,142.113 103.289,143.28 104.5,144.5C 101.5,145.167 98.5,145.833 95.5,146.5C 95.1373,147.183 94.8039,147.85 94.5,148.5C 88.5,148.5 82.5,148.5 76.5,148.5C 77.3331,146.248 77.3331,144.081 76.5,142C 76.1667,141.833 75.8333,141.667 75.5,141.5C 74.8128,143.555 73.6461,145.221 72,146.5C 70.5629,144.779 71.0629,143.279 73.5,142C 72.4477,140.284 73.1144,139.284 75.5,139C 74.6433,138.311 73.9767,137.478 73.5,136.5C 77.4343,134.758 79.101,136.091 78.5,140.5C 81.9297,140.107 85.0964,140.773 88,142.5C 88.1968,140.139 89.3635,138.472 91.5,137.5C 91.1667,137.167 90.8333,136.833 90.5,136.5C 88.0699,138.571 85.4033,138.904 82.5,137.5C 83,137.167 83.5,136.833 84,136.5C 86.0311,137.435 87.8644,136.935 89.5,135C 97.7674,132.67 106.101,130.504 114.5,128.5C 114.263,129.791 114.596,130.791 115.5,131.5 Z"/></g>
<g><path style="opacity:1" fill="#9c6d5e" d="M 206.5,148.5 C 203.833,148.5 201.167,148.5 198.5,148.5C 196.331,143.875 197.664,141.209 202.5,140.5C 202.15,136.946 202.816,133.612 204.5,130.5C 203.147,129.476 202.48,128.143 202.5,126.5C 203.568,125.566 204.901,125.232 206.5,125.5C 207.793,133.174 207.793,140.841 206.5,148.5 Z"/></g>
<g><path style="opacity:1" fill="#ddccc4" d="M 180.5,81.5 C 183.155,82.0007 185.322,83.3341 187,85.5C 190.946,92.8311 191.946,100.498 190,108.5C 189.667,108.167 189.333,107.833 189,107.5C 188.779,110.943 187.779,111.276 186,108.5C 184.697,109.112 183.53,109.446 182.5,109.5C 182.833,110.167 183.167,110.833 183.5,111.5C 181.665,112.428 181.332,113.594 182.5,115C 179.879,117.072 179.212,119.572 180.5,122.5C 179.176,123.006 178.509,124.339 178.5,126.5C 178.5,127.167 178.5,127.833 178.5,128.5C 175.153,130.852 171.82,133.186 168.5,135.5C 168.657,134.127 168.49,132.793 168,131.5C 167.692,132.308 167.192,132.975 166.5,133.5C 165.549,132.674 164.549,132.508 163.5,133C 164.833,134.667 164.833,136.333 163.5,138C 166.457,142.884 165.124,144.384 159.5,142.5C 158.903,141.861 158.07,141.528 157,141.5C 154.696,141.318 154.196,141.984 155.5,143.5C 154.167,144.833 152.833,144.833 151.5,143.5C 152.383,142.452 153.05,141.285 153.5,140C 151.64,138.584 149.973,137.084 148.5,135.5C 147.37,133.626 146.37,131.626 145.5,129.5C 145.709,128.914 146.043,128.414 146.5,128C 144.479,127.599 143.145,126.432 142.5,124.5C 144.271,124.72 145.938,123.887 147.5,122C 147.167,121.667 146.833,121.333 146.5,121C 147.448,120.517 148.448,120.351 149.5,120.5C 151.144,125.362 152.311,125.362 153,120.5C 153.667,119.167 154.333,119.167 155,120.5C 155.374,119.584 155.874,118.75 156.5,118C 159.457,117.347 161.957,118.181 164,120.5C 164.749,119.365 164.583,118.365 163.5,117.5C 160.539,116.817 160.205,115.984 162.5,115C 161.624,113.415 160.291,112.415 158.5,112C 159.851,110.383 161.518,109.216 163.5,108.5C 162.603,108.331 161.603,107.998 160.5,107.5C 162.201,106.165 163.868,104.832 165.5,103.5C 165.56,102.957 165.893,102.624 166.5,102.5C 169.16,104.496 171.993,104.496 175,102.5C 176.402,104.973 177.902,104.973 179.5,102.5C 178.209,101.473 178.209,100.473 179.5,99.5C 180.167,98.8333 180.833,98.1667 181.5,97.5C 181.585,94.3511 180.585,91.6845 178.5,89.5C 178.5,89.1667 178.5,88.8333 178.5,88.5C 177.222,86.2009 175.889,83.8676 174.5,81.5C 176.577,81.603 178.577,81.603 180.5,81.5 Z"/></g>
<g><path style="opacity:1" fill="#534034" d="M -0.5,108.5 C 3.83164,120.223 7.99831,132.223 12,144.5C 13.3756,145.705 14.5423,147.038 15.5,148.5C 10.1667,148.5 4.83333,148.5 -0.5,148.5C -0.5,135.167 -0.5,121.833 -0.5,108.5 Z"/></g>
<g><path style="opacity:1" fill="#d4b8ad" d="M 178.5,128.5 C 177.951,132.752 177.951,136.585 178.5,140C 175.404,142.029 173.738,144.862 173.5,148.5C 167.833,148.5 162.167,148.5 156.5,148.5C 156.201,146.396 156.534,144.396 157.5,142.5C 157.669,143.397 158.002,144.397 158.5,145.5C 159.386,144.675 159.719,143.675 159.5,142.5C 165.124,144.384 166.457,142.884 163.5,138C 164.833,136.333 164.833,134.667 163.5,133C 164.549,132.508 165.549,132.674 166.5,133.5C 167.192,132.975 167.692,132.308 168,131.5C 168.49,132.793 168.657,134.127 168.5,135.5C 171.82,133.186 175.153,130.852 178.5,128.5 Z"/></g>
<g><path style="opacity:1" fill="#ae867b" d="M 196.5,100.5 C 197.623,105.009 199.623,109.175 202.5,113C 199.849,117.638 199.849,122.138 202.5,126.5C 202.48,128.143 203.147,129.476 204.5,130.5C 202.816,133.612 202.15,136.946 202.5,140.5C 197.664,141.209 196.331,143.875 198.5,148.5C 190.167,148.5 181.833,148.5 173.5,148.5C 173.738,144.862 175.404,142.029 178.5,140C 177.951,136.585 177.951,132.752 178.5,128.5C 178.5,127.833 178.5,127.167 178.5,126.5C 180.173,127.343 181.34,128.676 182,130.5C 182.667,128.5 183.333,126.5 184,124.5C 184.249,125.624 184.749,126.624 185.5,127.5C 186.72,126.289 187.887,126.289 189,127.5C 188.841,124.361 188.174,121.361 187,118.5C 187.333,118.833 187.667,119.167 188,119.5C 188.333,118.167 188.667,116.833 189,115.5C 189.612,118.032 191.112,118.865 193.5,118C 191.068,116.913 191.402,116.413 194.5,116.5C 195.107,111.149 195.774,105.816 196.5,100.5 Z"/></g>
</svg>
