<?xml version="1.0" encoding="UTF-8"?>
<!DOCTYPE svg PUBLIC "-//W3C//DTD SVG 1.1//EN" "http://www.w3.org/Graphics/SVG/1.1/DTD/svg11.dtd">
<svg xmlns="http://www.w3.org/2000/svg" version="1.1" width="207px" height="138px" style="shape-rendering:geometricPrecision; text-rendering:geometricPrecision; image-rendering:optimizeQuality; fill-rule:evenodd; clip-rule:evenodd" xmlns:xlink="http://www.w3.org/1999/xlink">
<g><path style="opacity:1" fill="#a29385" d="M 177.5,-0.5 C 180.167,-0.5 182.833,-0.5 185.5,-0.5C 186.833,3.74964 189.167,4.4163 192.5,1.5C 193.086,1.70931 193.586,2.04265 194,2.5C 194.719,6.14543 195.219,9.81209 195.5,13.5C 189.446,14.9411 185.946,12.6078 185,6.5C 184.667,6.83333 184.333,7.16667 184,7.5C 183.784,5.61611 183.117,3.94944 182,2.5C 181.667,3.16667 181.333,3.83333 181,4.5C 180.036,2.63499 178.869,0.96832 177.5,-0.5 Z"/></g>
<g><path style="opacity:1" fill="#8e765e" d="M 140.5,-0.5 C 146.5,-0.5 152.5,-0.5 158.5,-0.5C 158.007,1.80562 157.674,4.13895 157.5,6.5C 156.699,8.04181 156.366,9.70848 156.5,11.5C 155.686,9.36896 155.186,7.03563 155,4.5C 154.768,5.73747 154.268,6.73747 153.5,7.5C 153.631,6.62356 153.298,5.95689 152.5,5.5C 151.281,6.26341 150.281,7.26341 149.5,8.5C 148.833,7.83333 148.167,7.16667 147.5,6.5C 144.75,9.35043 142.083,12.3504 139.5,15.5C 136.203,16.8547 135.87,16.3547 138.5,14C 136.802,14.4969 135.135,14.3302 133.5,13.5C 132.035,9.90092 132.368,6.56758 134.5,3.5C 137.292,3.37752 139.292,2.04419 140.5,-0.5 Z"/></g>
<g><path style="opacity:1" fill="#6d6768" d="M 185.5,-0.5 C 191.5,-0.5 197.5,-0.5 203.5,-0.5C 203.763,3.60023 203.43,7.60023 202.5,11.5C 201.167,11.5 199.833,11.5 198.5,11.5C 198.817,8.42814 198.484,5.42814 197.5,2.5C 196.833,6.31255 196.166,9.97921 195.5,13.5C 195.219,9.81209 194.719,6.14543 194,2.5C 193.586,2.04265 193.086,1.70931 192.5,1.5C 189.167,4.4163 186.833,3.74964 185.5,-0.5 Z"/></g>
<g><path style="opacity:1" fill="#c9a288" d="M 86.5,-0.5 C 97.8333,-0.5 109.167,-0.5 120.5,-0.5C 121.483,0.85027 122.816,1.85027 124.5,2.5C 123.5,3.33333 122.5,4.16667 121.5,5C 122.833,6 122.833,7 121.5,8C 122.381,8.7083 123.047,9.54163 123.5,10.5C 117.533,9.31418 111.533,8.31418 105.5,7.5C 105.371,9.2161 105.038,10.8828 104.5,12.5C 101.177,9.18487 97.1774,7.18487 92.5,6.5C 91.4777,6.85549 90.811,7.52216 90.5,8.5C 88.7616,5.73593 87.4282,2.73593 86.5,-0.5 Z"/></g>
<g><path style="opacity:1" fill="#7f7369" d="M 173.5,-0.5 C 174.833,-0.5 176.167,-0.5 177.5,-0.5C 178.869,0.96832 180.036,2.63499 181,4.5C 181.333,3.83333 181.667,3.16667 182,2.5C 183.117,3.94944 183.784,5.61611 184,7.5C 184.333,7.16667 184.667,6.83333 185,6.5C 185.946,12.6078 189.446,14.9411 195.5,13.5C 194.105,14.6477 194.272,15.6477 196,16.5C 196.498,19.8168 196.665,23.1501 196.5,26.5C 195.799,23.4371 195.132,20.2704 194.5,17C 191.829,16.1668 189.496,16.6668 187.5,18.5C 185.817,16.4673 184.65,14.134 184,11.5C 183.16,14.4637 182.16,14.797 181,12.5C 180.667,12.8333 180.333,13.1667 180,13.5C 178.844,9.58174 178.344,5.58174 178.5,1.5C 177.07,1.42082 175.736,1.75415 174.5,2.5C 173.614,1.67504 173.281,0.675044 173.5,-0.5 Z"/></g>
<g><path style="opacity:1" fill="#ddb9a1" d="M 39.5,-0.5 C 48.8333,-0.5 58.1667,-0.5 67.5,-0.5C 66.2147,0.785292 64.8814,2.11863 63.5,3.5C 63.8333,4.16667 64.1667,4.83333 64.5,5.5C 63.3128,6.51948 62.3128,7.68614 61.5,9C 61.4754,11.0123 61.4754,13.0123 61.5,15C 58.9377,20.8479 57.4377,20.3479 57,13.5C 56.6943,15.9063 55.861,18.073 54.5,20C 56.0067,21.6674 55.6734,22.834 53.5,23.5C 52.6236,23.6309 51.9569,23.2975 51.5,22.5C 52.1667,21.5 52.8333,20.5 53.5,19.5C 53.1543,18.3044 52.6543,18.3044 52,19.5C 51.6667,17.5 51.3333,15.5 51,13.5C 49.4171,15.9113 48.4171,18.578 48,21.5C 46.9887,22.3366 45.8221,22.67 44.5,22.5C 43.8836,18.1368 43.0503,13.8034 42,9.5C 41.2496,8.87424 40.4162,8.37424 39.5,8C 39.8273,5.31514 39.8273,2.48181 39.5,-0.5 Z"/></g>
<g><path style="opacity:1" fill="#a57d68" d="M 29.5,-0.5 C 30.5,-0.5 31.5,-0.5 32.5,-0.5C 33.649,4.24456 33.649,8.74456 32.5,13C 34.5444,13.4983 35.8777,14.665 36.5,16.5C 35.8826,16.3893 35.3826,16.056 35,15.5C 33.3333,17.1667 31.6667,18.8333 30,20.5C 29.6667,19.8333 29.3333,19.1667 29,18.5C 27.4878,19.2567 26.1545,20.2567 25,21.5C 24.7638,19.236 24.2638,17.0693 23.5,15C 25.0846,14.9152 26.4179,14.7486 27.5,14.5C 25.0406,11.624 24.8739,8.62396 27,5.5C 27.3333,5.83333 27.6667,6.16667 28,6.5C 28.977,4.26001 29.477,1.92668 29.5,-0.5 Z"/></g>
<g><path style="opacity:1" fill="#9f7165" d="M 17.5,-0.5 C 21.5,-0.5 25.5,-0.5 29.5,-0.5C 29.477,1.92668 28.977,4.26001 28,6.5C 27.6667,6.16667 27.3333,5.83333 27,5.5C 24.8739,8.62396 25.0406,11.624 27.5,14.5C 26.4179,14.7486 25.0846,14.9152 23.5,15C 24.2638,17.0693 24.7638,19.236 25,21.5C 26.1545,20.2567 27.4878,19.2567 29,18.5C 29.3333,19.1667 29.6667,19.8333 30,20.5C 31.6667,18.8333 33.3333,17.1667 35,15.5C 35.3826,16.056 35.8826,16.3893 36.5,16.5C 38.3601,25.0202 42.3601,32.3535 48.5,38.5C 49.6556,44.1687 52.6556,48.6687 57.5,52C 58.448,52.4828 59.448,52.6495 60.5,52.5C 58.6112,53.7416 56.6112,53.7416 54.5,52.5C 52.246,51.8763 50.5794,50.543 49.5,48.5C 48.5043,44.4994 46.5043,41.1661 43.5,38.5C 42.1667,35.5 40.8333,32.5 39.5,29.5C 38.2627,24.6172 35.7627,23.6172 32,26.5C 29.4246,26.9096 27.7579,25.9096 27,23.5C 26.6012,23.7284 26.4346,24.0618 26.5,24.5C 25.8333,24.1667 25.1667,23.8333 24.5,23.5C 23.1667,24.1667 22.1667,25.1667 21.5,26.5C 20.8333,26.5 20.5,26.1667 20.5,25.5C 21.1408,24.5178 21.8075,23.5178 22.5,22.5C 21.7115,18.4256 20.7115,14.4256 19.5,10.5C 18.5778,6.88812 17.9111,3.22145 17.5,-0.5 Z"/></g>
<g><path style="opacity:1" fill="#c0a08d" d="M 35.5,-0.5 C 36.8333,-0.5 38.1667,-0.5 39.5,-0.5C 39.8273,2.48181 39.8273,5.31514 39.5,8C 40.4162,8.37424 41.2496,8.87424 42,9.5C 43.0503,13.8034 43.8836,18.1368 44.5,22.5C 44.6287,24.2161 44.962,25.8828 45.5,27.5C 40.0253,22.8916 36.8587,16.8916 36,9.5C 35.5017,6.18323 35.335,2.8499 35.5,-0.5 Z"/></g>
<g><path style="opacity:1" fill="#3f3e4b" d="M 202.5,11.5 C 201.833,12.8333 201.167,14.1667 200.5,15.5C 199.167,19.1667 197.833,22.8333 196.5,26.5C 196.665,23.1501 196.498,19.8168 196,16.5C 194.272,15.6477 194.105,14.6477 195.5,13.5C 196.166,9.97921 196.833,6.31255 197.5,2.5C 198.484,5.42814 198.817,8.42814 198.5,11.5C 199.833,11.5 201.167,11.5 202.5,11.5 Z"/></g>
<g><path style="opacity:1" fill="#9d241e" d="M 19.5,10.5 C 20.7115,14.4256 21.7115,18.4256 22.5,22.5C 21.8075,23.5178 21.1408,24.5178 20.5,25.5C 19.8826,25.3893 19.3826,25.056 19,24.5C 18.011,21.5443 17.1777,18.5443 16.5,15.5C 16.5953,13.1309 17.5953,11.4642 19.5,10.5 Z"/></g>
<g><path style="opacity:1" fill="#695549" d="M 156.5,11.5 C 154.265,18.7041 151.932,25.8708 149.5,33C 150.618,35.059 151.285,37.2257 151.5,39.5C 149.181,38.224 147.514,35.724 146.5,32C 145.551,31.3828 144.718,31.5494 144,32.5C 143.517,31.552 143.351,30.552 143.5,29.5C 148.924,23.171 152.258,15.8377 153.5,7.5C 154.268,6.73747 154.768,5.73747 155,4.5C 155.186,7.03563 155.686,9.36896 156.5,11.5 Z"/></g>
<g><path style="opacity:1" fill="#a12019" d="M -0.5,-0.5 C 3.5,-0.5 7.5,-0.5 11.5,-0.5C 11.0388,1.5504 10.3721,3.5504 9.5,5.5C 12.2107,12.2188 13.7107,19.2188 14,26.5C 14.3333,24.8333 14.6667,23.1667 15,21.5C 15.5031,26.7837 16.3365,31.7837 17.5,36.5C 17.5,37.1667 17.5,37.8333 17.5,38.5C 17.5,41.5 17.5,44.5 17.5,47.5C 16.2719,46.6935 15.2719,45.6935 14.5,44.5C 11.7496,39.3315 8.08292,38.3315 3.5,41.5C 2.16667,42.1667 0.833333,42.8333 -0.5,43.5C -0.5,39.5 -0.5,35.5 -0.5,31.5C 0.458367,31.0472 1.2917,30.3805 2,29.5C 2.33333,30.1667 2.66667,30.8333 3,31.5C 3.27338,29.8988 3.77338,28.3988 4.5,27C 2.86586,26.5065 1.19919,26.3398 -0.5,26.5C -0.5,17.5 -0.5,8.5 -0.5,-0.5 Z"/></g>
<g><path style="opacity:1" fill="#b9977c" d="M 120.5,-0.5 C 127.167,-0.5 133.833,-0.5 140.5,-0.5C 139.292,2.04419 137.292,3.37752 134.5,3.5C 132.146,3.83802 129.813,4.33802 127.5,5C 128.167,5.33333 128.833,5.66667 129.5,6C 128.376,6.24917 127.376,6.74917 126.5,7.5C 127.641,8.42549 127.641,9.25883 126.5,10C 130.5,12.3333 130.5,14.6667 126.5,17C 127.167,17.3333 127.833,17.6667 128.5,18C 127.122,19.7134 125.455,21.0467 123.5,22C 126.277,22.0511 128.943,22.2178 131.5,22.5C 129.887,23.4274 128.221,24.2607 126.5,25C 125.663,26.0113 125.33,27.1779 125.5,28.5C 128.518,28.3354 131.518,28.502 134.5,29C 135.833,29.6667 135.833,30.3333 134.5,31C 132.942,31.21 131.609,31.71 130.5,32.5C 128.863,33.2178 127.197,33.3845 125.5,33C 124.837,31.4815 123.837,30.3149 122.5,29.5C 121.167,29.5 119.833,29.5 118.5,29.5C 118.5,29.1667 118.5,28.8333 118.5,28.5C 119.756,28.5386 120.756,28.0386 121.5,27C 119.49,22.6588 120.49,19.3255 124.5,17C 124.742,14.928 124.409,12.7614 123.5,10.5C 123.047,9.54163 122.381,8.7083 121.5,8C 122.833,7 122.833,6 121.5,5C 122.5,4.16667 123.5,3.33333 124.5,2.5C 122.816,1.85027 121.483,0.85027 120.5,-0.5 Z"/></g>
<g><path style="opacity:1" fill="#e3bdab" d="M 67.5,-0.5 C 73.1667,-0.5 78.8333,-0.5 84.5,-0.5C 85.152,2.92558 86.4854,6.09225 88.5,9C 84.9879,9.62809 82.1545,8.46142 80,5.5C 79.3946,7.48123 78.3946,7.81457 77,6.5C 75.8855,7.99993 75.0521,9.6666 74.5,11.5C 77.3566,15.0385 76.3566,17.0385 71.5,17.5C 70.7492,16.624 70.2492,15.624 70,14.5C 69.6824,16.0609 68.8491,17.2276 67.5,18C 71.6277,22.1978 71.1277,23.0312 66,20.5C 64.1306,23.6909 61.6306,24.3576 58.5,22.5C 58.719,23.675 58.3857,24.675 57.5,25.5C 55.9745,25.0057 54.6412,24.339 53.5,23.5C 55.6734,22.834 56.0067,21.6674 54.5,20C 55.861,18.073 56.6943,15.9063 57,13.5C 57.4377,20.3479 58.9377,20.8479 61.5,15C 61.4754,13.0123 61.4754,11.0123 61.5,9C 62.3128,7.68614 63.3128,6.51948 64.5,5.5C 64.1667,4.83333 63.8333,4.16667 63.5,3.5C 64.8814,2.11863 66.2147,0.785292 67.5,-0.5 Z"/></g>
<g><path style="opacity:1" fill="#cfab9b" d="M 123.5,10.5 C 124.409,12.7614 124.742,14.928 124.5,17C 120.49,19.3255 119.49,22.6588 121.5,27C 120.756,28.0386 119.756,28.5386 118.5,28.5C 116.738,28.3573 115.071,28.6906 113.5,29.5C 112.065,28.0531 111.065,26.3864 110.5,24.5C 109.833,23.8333 109.167,23.1667 108.5,22.5C 106.631,19.4223 105.298,16.089 104.5,12.5C 105.038,10.8828 105.371,9.2161 105.5,7.5C 111.533,8.31418 117.533,9.31418 123.5,10.5 Z"/></g>
<g><path style="opacity:1" fill="#a9806e" d="M 104.5,12.5 C 105.298,16.089 106.631,19.4223 108.5,22.5C 108.286,24.1439 108.62,25.6439 109.5,27C 108.5,27.6667 107.5,27.6667 106.5,27C 103.482,22.909 100.648,18.7423 98,14.5C 95.3015,13.1046 92.8015,11.4379 90.5,9.5C 90.5,9.16667 90.5,8.83333 90.5,8.5C 90.811,7.52216 91.4777,6.85549 92.5,6.5C 97.1774,7.18487 101.177,9.18487 104.5,12.5 Z"/></g>
<g><path style="opacity:1" fill="#c49e91" d="M 90.5,9.5 C 92.8015,11.4379 95.3015,13.1046 98,14.5C 100.648,18.7423 103.482,22.909 106.5,27C 107.5,27.6667 108.5,27.6667 109.5,27C 108.62,25.6439 108.286,24.1439 108.5,22.5C 109.167,23.1667 109.833,23.8333 110.5,24.5C 110.5,25.8333 110.5,27.1667 110.5,28.5C 107.843,28.838 105.51,28.1713 103.5,26.5C 101.507,28.4986 99.1732,29.9986 96.5,31C 95.8095,32.0674 95.3095,33.2341 95,34.5C 93.8869,33.2889 92.7202,33.2889 91.5,34.5C 90.7022,32.9223 90.2022,31.2556 90,29.5C 87.5574,27.6991 85.0574,26.0324 82.5,24.5C 81.4555,20.4399 80.4555,16.2732 79.5,12C 82.1667,11.3333 84.8333,11.3333 87.5,12C 88.1552,13.4866 89.1552,14.6533 90.5,15.5C 91.5192,13.5405 91.5192,11.5405 90.5,9.5 Z"/></g>
<g><path style="opacity:1" fill="#7d5c55" d="M 83.5,13.5 C 86.1268,17.2078 89.1268,20.7078 92.5,24C 93.448,24.4828 94.448,24.6495 95.5,24.5C 95.5,25.8333 95.5,27.1667 95.5,28.5C 92.7836,26.8162 89.7836,25.6496 86.5,25C 85.6667,24.1667 84.8333,23.3333 84,22.5C 83.502,19.5184 83.3354,16.5184 83.5,13.5 Z"/></g>
<g><path style="opacity:1" fill="#a27f62" d="M 134.5,3.5 C 132.368,6.56758 132.035,9.90092 133.5,13.5C 135.135,14.3302 136.802,14.4969 138.5,14C 135.87,16.3547 136.203,16.8547 139.5,15.5C 141.085,15.9854 142.585,15.3188 144,13.5C 144.87,14.1079 145.37,14.9412 145.5,16C 142.849,22.2977 139.182,27.9644 134.5,33C 135.598,33.7697 135.598,34.603 134.5,35.5C 134.167,35.5 133.833,35.5 133.5,35.5C 129.991,37.0741 128.991,36.0741 130.5,32.5C 131.609,31.71 132.942,31.21 134.5,31C 135.833,30.3333 135.833,29.6667 134.5,29C 131.518,28.502 128.518,28.3354 125.5,28.5C 125.33,27.1779 125.663,26.0113 126.5,25C 128.221,24.2607 129.887,23.4274 131.5,22.5C 128.943,22.2178 126.277,22.0511 123.5,22C 125.455,21.0467 127.122,19.7134 128.5,18C 127.833,17.6667 127.167,17.3333 126.5,17C 130.5,14.6667 130.5,12.3333 126.5,10C 127.641,9.25883 127.641,8.42549 126.5,7.5C 127.376,6.74917 128.376,6.24917 129.5,6C 128.833,5.66667 128.167,5.33333 127.5,5C 129.813,4.33802 132.146,3.83802 134.5,3.5 Z"/></g>
<g><path style="opacity:1" fill="#2e2a2a" d="M 171.5,20.5 C 174.723,21.3382 175.056,22.6716 172.5,24.5C 167.27,25.5501 162.27,25.5501 157.5,24.5C 157.709,23.914 158.043,23.414 158.5,23C 157.891,20.9419 156.891,20.1086 155.5,20.5C 157.717,16.0822 159.05,11.4155 159.5,6.5C 159.351,5.44802 159.517,4.44802 160,3.5C 163.112,1.94833 165.279,3.28166 166.5,7.5C 168.422,8.71101 170.255,10.0443 172,11.5C 173.163,9.7148 173.83,7.7148 174,5.5C 175.395,6.81457 176.395,6.48123 177,4.5C 177.781,7.83371 178.114,11.167 178,14.5C 177.586,14.0426 177.086,13.7093 176.5,13.5C 174.66,16.1723 172.327,18.339 169.5,20C 170.094,20.4643 170.761,20.631 171.5,20.5 Z"/></g>
<g><path style="opacity:1" fill="#715e39" d="M 201.5,15.5 C 202.117,15.6107 202.617,15.944 203,16.5C 203.498,19.4816 203.665,22.4816 203.5,25.5C 202.883,25.3893 202.383,25.056 202,24.5C 201.502,21.5184 201.335,18.5184 201.5,15.5 Z"/></g>
<g><path style="opacity:1" fill="#aa8f72" d="M 153.5,7.5 C 152.258,15.8377 148.924,23.171 143.5,29.5C 142.167,30.5 140.833,31.5 139.5,32.5C 137.646,33.241 135.979,34.241 134.5,35.5C 135.598,34.603 135.598,33.7697 134.5,33C 139.182,27.9644 142.849,22.2977 145.5,16C 145.37,14.9412 144.87,14.1079 144,13.5C 142.585,15.3188 141.085,15.9854 139.5,15.5C 142.083,12.3504 144.75,9.35043 147.5,6.5C 148.167,7.16667 148.833,7.83333 149.5,8.5C 150.281,7.26341 151.281,6.26341 152.5,5.5C 153.298,5.95689 153.631,6.62356 153.5,7.5 Z"/></g>
<g><path style="opacity:1" fill="#c4c3af" d="M 186.5,23.5 C 186.328,22.5084 186.662,21.8417 187.5,21.5C 189.435,20.8505 191.435,20.5172 193.5,20.5C 193.963,23.4824 194.296,26.4824 194.5,29.5C 191.833,29.5 189.167,29.5 186.5,29.5C 186.5,27.5 186.5,25.5 186.5,23.5 Z"/></g>
<g><path style="opacity:1" fill="#7d1f1b" d="M 11.5,-0.5 C 13.5,-0.5 15.5,-0.5 17.5,-0.5C 17.9111,3.22145 18.5778,6.88812 19.5,10.5C 17.5953,11.4642 16.5953,13.1309 16.5,15.5C 17.1777,18.5443 18.011,21.5443 19,24.5C 19.3826,25.056 19.8826,25.3893 20.5,25.5C 20.5,26.1667 20.8333,26.5 21.5,26.5C 20.9094,27.1515 20.2427,27.8182 19.5,28.5C 20.09,31.911 21.4233,34.911 23.5,37.5C 22.5178,36.8592 21.5178,36.1925 20.5,35.5C 19.8933,35.6236 19.56,35.9569 19.5,36.5C 18.8333,36.5 18.1667,36.5 17.5,36.5C 16.3365,31.7837 15.5031,26.7837 15,21.5C 14.6667,23.1667 14.3333,24.8333 14,26.5C 13.7107,19.2188 12.2107,12.2188 9.5,5.5C 10.3721,3.5504 11.0388,1.5504 11.5,-0.5 Z"/></g>
<g><path style="opacity:1" fill="#724738" d="M 39.5,29.5 C 35.9457,29.8503 32.6124,29.1837 29.5,27.5C 28.8933,27.6236 28.56,27.9569 28.5,28.5C 27.3263,27.4863 26.6596,26.153 26.5,24.5C 26.4346,24.0618 26.6012,23.7284 27,23.5C 27.7579,25.9096 29.4246,26.9096 32,26.5C 35.7627,23.6172 38.2627,24.6172 39.5,29.5 Z"/></g>
<g><path style="opacity:1" fill="#dbb0a0" d="M 84.5,-0.5 C 85.1667,-0.5 85.8333,-0.5 86.5,-0.5C 87.4282,2.73593 88.7616,5.73593 90.5,8.5C 90.5,8.83333 90.5,9.16667 90.5,9.5C 91.5192,11.5405 91.5192,13.5405 90.5,15.5C 89.1552,14.6533 88.1552,13.4866 87.5,12C 84.8333,11.3333 82.1667,11.3333 79.5,12C 80.4555,16.2732 81.4555,20.4399 82.5,24.5C 84.5226,28.5452 86.5226,32.5452 88.5,36.5C 86.1432,36.3367 83.8098,36.5034 81.5,37C 77.3764,39.2075 73.0431,40.7075 68.5,41.5C 68.1667,41.5 67.8333,41.5 67.5,41.5C 62.2039,40.8047 56.8706,39.638 51.5,38C 49.0969,34.6894 47.0969,31.1894 45.5,27.5C 44.962,25.8828 44.6287,24.2161 44.5,22.5C 45.8221,22.67 46.9887,22.3366 48,21.5C 48.4171,18.578 49.4171,15.9113 51,13.5C 51.3333,15.5 51.6667,17.5 52,19.5C 52.6543,18.3044 53.1543,18.3044 53.5,19.5C 52.8333,20.5 52.1667,21.5 51.5,22.5C 51.9569,23.2975 52.6236,23.6309 53.5,23.5C 54.6412,24.339 55.9745,25.0057 57.5,25.5C 58.3857,24.675 58.719,23.675 58.5,22.5C 61.6306,24.3576 64.1306,23.6909 66,20.5C 71.1277,23.0312 71.6277,22.1978 67.5,18C 68.8491,17.2276 69.6824,16.0609 70,14.5C 70.2492,15.624 70.7492,16.624 71.5,17.5C 76.3566,17.0385 77.3566,15.0385 74.5,11.5C 75.0521,9.6666 75.8855,7.99993 77,6.5C 78.3946,7.81457 79.3946,7.48123 80,5.5C 82.1545,8.46142 84.9879,9.62809 88.5,9C 86.4854,6.09225 85.152,2.92558 84.5,-0.5 Z"/></g>
<g><path style="opacity:1" fill="#c2696a" d="M -0.5,26.5 C 1.19919,26.3398 2.86586,26.5065 4.5,27C 3.77338,28.3988 3.27338,29.8988 3,31.5C 2.66667,30.8333 2.33333,30.1667 2,29.5C 1.2917,30.3805 0.458367,31.0472 -0.5,31.5C -0.5,29.8333 -0.5,28.1667 -0.5,26.5 Z"/></g>
<g><path style="opacity:1" fill="#b38e7c" d="M 32.5,-0.5 C 33.5,-0.5 34.5,-0.5 35.5,-0.5C 35.335,2.8499 35.5017,6.18323 36,9.5C 36.8587,16.8916 40.0253,22.8916 45.5,27.5C 47.0969,31.1894 49.0969,34.6894 51.5,38C 56.8706,39.638 62.2039,40.8047 67.5,41.5C 66.5,41.5 65.5,41.5 64.5,41.5C 64.7038,44.5176 65.0371,47.5176 65.5,50.5C 63.9505,51.4408 62.2838,52.1075 60.5,52.5C 59.448,52.6495 58.448,52.4828 57.5,52C 52.6556,48.6687 49.6556,44.1687 48.5,38.5C 42.3601,32.3535 38.3601,25.0202 36.5,16.5C 35.8777,14.665 34.5444,13.4983 32.5,13C 33.649,8.74456 33.649,4.24456 32.5,-0.5 Z"/></g>
<g><path style="opacity:1" fill="#453a37" d="M 157.5,6.5 C 158.167,6.5 158.833,6.5 159.5,6.5C 159.05,11.4155 157.717,16.0822 155.5,20.5C 156.891,20.1086 157.891,20.9419 158.5,23C 158.043,23.414 157.709,23.914 157.5,24.5C 162.27,25.5501 167.27,25.5501 172.5,24.5C 175.056,22.6716 174.723,21.3382 171.5,20.5C 172.765,19.5207 174.099,18.5207 175.5,17.5C 175.5,18.5 175.5,19.5 175.5,20.5C 177.167,19.5 178.5,18.1667 179.5,16.5C 184.046,17.3762 185.213,19.7095 183,23.5C 181.649,25.019 180.149,26.3523 178.5,27.5C 179.262,27.9106 180.262,28.0773 181.5,28C 180.167,29.3333 178.833,30.6667 177.5,32C 173.662,33.474 169.662,34.474 165.5,35C 167.991,35.6259 167.991,36.4593 165.5,37.5C 166.325,38.3857 167.325,38.719 168.5,38.5C 167.207,42.0857 166.207,45.7524 165.5,49.5C 164.833,49.8333 164.167,50.1667 163.5,50.5C 161.932,49.5269 160.265,49.3603 158.5,50C 159.711,50.8928 159.711,51.7261 158.5,52.5C 157.012,50.8507 156.012,48.8507 155.5,46.5C 154.402,50.3605 153.569,50.3605 153,46.5C 152.667,46.8333 152.333,47.1667 152,47.5C 151.503,44.854 151.336,42.1873 151.5,39.5C 151.285,37.2257 150.618,35.059 149.5,33C 151.932,25.8708 154.265,18.7041 156.5,11.5C 156.366,9.70848 156.699,8.04181 157.5,6.5 Z"/></g>
<g><path style="opacity:1" fill="#aea898" d="M 196.5,26.5 C 197.696,28.9815 199.196,28.9815 201,26.5C 201.483,27.448 201.649,28.448 201.5,29.5C 196.213,30.3424 190.88,30.6757 185.5,30.5C 185.5,29.5 185.5,28.5 185.5,27.5C 185.232,25.901 185.566,24.5676 186.5,23.5C 186.5,25.5 186.5,27.5 186.5,29.5C 189.167,29.5 191.833,29.5 194.5,29.5C 194.296,26.4824 193.963,23.4824 193.5,20.5C 191.435,20.5172 189.435,20.8505 187.5,21.5C 187.5,20.5 187.5,19.5 187.5,18.5C 189.496,16.6668 191.829,16.1668 194.5,17C 195.132,20.2704 195.799,23.4371 196.5,26.5 Z"/></g>
<g><path style="opacity:1" fill="#554a46" d="M 158.5,-0.5 C 163.5,-0.5 168.5,-0.5 173.5,-0.5C 173.281,0.675044 173.614,1.67504 174.5,2.5C 175.736,1.75415 177.07,1.42082 178.5,1.5C 178.344,5.58174 178.844,9.58174 180,13.5C 180.333,13.1667 180.667,12.8333 181,12.5C 182.16,14.797 183.16,14.4637 184,11.5C 184.65,14.134 185.817,16.4673 187.5,18.5C 187.5,19.5 187.5,20.5 187.5,21.5C 186.662,21.8417 186.328,22.5084 186.5,23.5C 185.566,24.5676 185.232,25.901 185.5,27.5C 184.549,28.9187 184.216,30.5853 184.5,32.5C 185.833,32.5 187.167,32.5 188.5,32.5C 188.586,33.4959 188.252,34.3292 187.5,35C 186.262,34.9227 185.262,35.0894 184.5,35.5C 189.136,36.773 193.803,37.9397 198.5,39C 199.469,40.7583 200.636,41.2583 202,40.5C 203.375,42.9368 203.875,45.6035 203.5,48.5C 199.186,48.7721 198.686,50.1055 202,52.5C 202.49,53.7932 202.657,55.1266 202.5,56.5C 200.532,53.512 197.865,52.512 194.5,53.5C 194.5,52.8333 194.167,52.5 193.5,52.5C 193.167,51.1667 192.833,49.8333 192.5,48.5C 192.833,48.5 193.167,48.5 193.5,48.5C 195.223,49.807 197.057,49.807 199,48.5C 200.887,41.8866 198.387,38.5532 191.5,38.5C 188.615,38.1936 185.948,38.5269 183.5,39.5C 181.744,38.4479 181.077,36.7812 181.5,34.5C 180.127,34.3433 178.793,34.51 177.5,35C 176.013,37.4852 174.179,39.6518 172,41.5C 171.517,42.448 171.351,43.448 171.5,44.5C 170.167,45.1667 169.167,46.1667 168.5,47.5C 167.833,47.5 167.5,47.8333 167.5,48.5C 166.833,48.8333 166.167,49.1667 165.5,49.5C 166.207,45.7524 167.207,42.0857 168.5,38.5C 167.325,38.719 166.325,38.3857 165.5,37.5C 167.991,36.4593 167.991,35.6259 165.5,35C 169.662,34.474 173.662,33.474 177.5,32C 178.833,30.6667 180.167,29.3333 181.5,28C 180.262,28.0773 179.262,27.9106 178.5,27.5C 180.149,26.3523 181.649,25.019 183,23.5C 185.213,19.7095 184.046,17.3762 179.5,16.5C 178.5,18.1667 177.167,19.5 175.5,20.5C 175.5,19.5 175.5,18.5 175.5,17.5C 174.099,18.5207 172.765,19.5207 171.5,20.5C 170.761,20.631 170.094,20.4643 169.5,20C 172.327,18.339 174.66,16.1723 176.5,13.5C 177.086,13.7093 177.586,14.0426 178,14.5C 178.114,11.167 177.781,7.83371 177,4.5C 176.395,6.48123 175.395,6.81457 174,5.5C 173.83,7.7148 173.163,9.7148 172,11.5C 170.255,10.0443 168.422,8.71101 166.5,7.5C 165.279,3.28166 163.112,1.94833 160,3.5C 159.517,4.44802 159.351,5.44802 159.5,6.5C 158.833,6.5 158.167,6.5 157.5,6.5C 157.674,4.13895 158.007,1.80562 158.5,-0.5 Z"/></g>
<g><path style="opacity:1" fill="#88827c" d="M 200.5,15.5 C 200.833,15.5 201.167,15.5 201.5,15.5C 201.335,18.5184 201.502,21.5184 202,24.5C 202.383,25.056 202.883,25.3893 203.5,25.5C 203.739,27.4672 203.406,29.3005 202.5,31C 197.915,32.2252 193.248,32.7252 188.5,32.5C 187.167,32.5 185.833,32.5 184.5,32.5C 184.216,30.5853 184.549,28.9187 185.5,27.5C 185.5,28.5 185.5,29.5 185.5,30.5C 190.88,30.6757 196.213,30.3424 201.5,29.5C 201.649,28.448 201.483,27.448 201,26.5C 199.196,28.9815 197.696,28.9815 196.5,26.5C 197.833,22.8333 199.167,19.1667 200.5,15.5 Z"/></g>
<g><path style="opacity:1" fill="#a11f1b" d="M 24.5,23.5 C 24.5,24.8333 24.5,26.1667 24.5,27.5C 25.4923,31.4818 26.4923,35.4818 27.5,39.5C 27.4573,40.4164 27.1239,41.0831 26.5,41.5C 25.5,40.1667 24.5,38.8333 23.5,37.5C 21.4233,34.911 20.09,31.911 19.5,28.5C 20.2427,27.8182 20.9094,27.1515 21.5,26.5C 22.1667,25.1667 23.1667,24.1667 24.5,23.5 Z"/></g>
<g><path style="opacity:1" fill="#311615" d="M 39.5,29.5 C 40.8333,32.5 42.1667,35.5 43.5,38.5C 43.5,39.1667 43.1667,39.5 42.5,39.5C 36.6111,37.2656 31.9444,33.599 28.5,28.5C 28.56,27.9569 28.8933,27.6236 29.5,27.5C 32.6124,29.1837 35.9457,29.8503 39.5,29.5 Z"/></g>
<g><path style="opacity:1" fill="#892937" d="M 24.5,27.5 C 25.4584,27.9528 26.2917,28.6195 27,29.5C 27.2163,31.3839 27.883,33.0506 29,34.5C 29.4978,36.5269 29.3311,38.5269 28.5,40.5C 29.5186,42.5107 30.5186,44.5107 31.5,46.5C 29.5,45.1667 27.8333,43.5 26.5,41.5C 27.1239,41.0831 27.4573,40.4164 27.5,39.5C 26.4923,35.4818 25.4923,31.4818 24.5,27.5 Z"/></g>
<g><path style="opacity:1" fill="#75586c" d="M 19.5,36.5 C 19.56,35.9569 19.8933,35.6236 20.5,35.5C 21.5178,36.1925 22.5178,36.8592 23.5,37.5C 24.5,38.8333 25.5,40.1667 26.5,41.5C 27.8333,43.5 29.5,45.1667 31.5,46.5C 32.1098,47.391 32.4431,48.391 32.5,49.5C 27.9387,45.3604 23.6054,41.027 19.5,36.5 Z"/></g>
<g><path style="opacity:1" fill="#cca69b" d="M 82.5,24.5 C 85.0574,26.0324 87.5574,27.6991 90,29.5C 90.2022,31.2556 90.7022,32.9223 91.5,34.5C 92.7202,33.2889 93.8869,33.2889 95,34.5C 95.3095,33.2341 95.8095,32.0674 96.5,31C 99.1732,29.9986 101.507,28.4986 103.5,26.5C 105.51,28.1713 107.843,28.838 110.5,28.5C 110.5,27.1667 110.5,25.8333 110.5,24.5C 111.065,26.3864 112.065,28.0531 113.5,29.5C 115.071,28.6906 116.738,28.3573 118.5,28.5C 118.5,28.8333 118.5,29.1667 118.5,29.5C 115.544,30.1371 112.544,30.6371 109.5,31C 108.058,31.3768 107.058,32.2101 106.5,33.5C 105.833,33.5 105.5,33.8333 105.5,34.5C 103.937,35.9448 102.604,37.6115 101.5,39.5C 100.038,41.9721 98.8717,44.6388 98,47.5C 96.5557,49.1554 94.7224,49.822 92.5,49.5C 90.9382,49.2671 89.6049,48.6005 88.5,47.5C 86.4021,46.5155 84.4021,46.8489 82.5,48.5C 80.2078,49.6861 77.8744,49.6861 75.5,48.5C 72.8605,46.5272 70.5272,44.1939 68.5,41.5C 73.0431,40.7075 77.3764,39.2075 81.5,37C 83.8098,36.5034 86.1432,36.3367 88.5,36.5C 86.5226,32.5452 84.5226,28.5452 82.5,24.5 Z"/></g>
<g><path style="opacity:1" fill="#a63756" d="M 24.5,23.5 C 25.1667,23.8333 25.8333,24.1667 26.5,24.5C 26.6596,26.153 27.3263,27.4863 28.5,28.5C 31.9444,33.599 36.6111,37.2656 42.5,39.5C 43.63,42.0406 42.9633,44.2072 40.5,46C 41.1667,46.6667 41.8333,47.3333 42.5,48C 38.8877,47.549 35.221,47.049 31.5,46.5C 30.5186,44.5107 29.5186,42.5107 28.5,40.5C 29.3311,38.5269 29.4978,36.5269 29,34.5C 27.883,33.0506 27.2163,31.3839 27,29.5C 26.2917,28.6195 25.4584,27.9528 24.5,27.5C 24.5,26.1667 24.5,24.8333 24.5,23.5 Z"/></g>
<g><path style="opacity:1" fill="#211715" d="M 106.5,33.5 C 109.813,36.4778 113.147,39.4778 116.5,42.5C 116.167,42.8333 115.833,43.1667 115.5,43.5C 112.671,42.2533 110.005,40.7533 107.5,39C 105.963,37.8904 105.297,36.3904 105.5,34.5C 105.5,33.8333 105.833,33.5 106.5,33.5 Z"/></g>
<g><path style="opacity:1" fill="#483d42" d="M 14.5,44.5 C 14.3359,47.1873 14.5026,49.854 15,52.5C 15.3333,52.1667 15.6667,51.8333 16,51.5C 16.4828,52.448 16.6495,53.448 16.5,54.5C 15.5,54.5 14.5,54.5 13.5,54.5C 12.1667,54.5 11.5,53.8333 11.5,52.5C 12.7479,51.6661 13.4146,50.3328 13.5,48.5C 13.3333,47.1667 13.1667,45.8333 13,44.5C 12.31,43.2617 11.81,43.2617 11.5,44.5C 10.7321,43.7375 10.2321,42.7375 10,41.5C 9.30762,42.0253 8.80762,42.6919 8.5,43.5C 9.54433,45.7676 9.711,48.1009 9,50.5C 6.28162,48.2055 3.11495,47.2055 -0.5,47.5C -0.5,47.1667 -0.5,46.8333 -0.5,46.5C 1.73604,45.6109 3.73604,44.2776 5.5,42.5C 5.04311,41.7025 4.37644,41.3691 3.5,41.5C 8.08292,38.3315 11.7496,39.3315 14.5,44.5 Z"/></g>
<g><path style="opacity:1" fill="#c19e93" d="M 139.5,32.5 C 139.5,33.5 139.5,34.5 139.5,35.5C 142.614,36.0913 145.114,37.758 147,40.5C 148.564,44.6282 150.398,48.6282 152.5,52.5C 153.372,54.0542 153.372,55.3876 152.5,56.5C 152.187,53.5772 150.854,52.5772 148.5,53.5C 147.534,55.396 147.201,57.396 147.5,59.5C 145.5,59.5 143.5,59.5 141.5,59.5C 141.719,60.675 141.386,61.675 140.5,62.5C 136.892,63.5932 133.225,63.7599 129.5,63C 128.177,62.1841 127.511,61.0174 127.5,59.5C 129.167,60.1667 130.833,60.8333 132.5,61.5C 134.604,61.7989 136.604,61.4656 138.5,60.5C 136.812,59.4787 135.479,58.1454 134.5,56.5C 134.917,55.8761 135.584,55.5427 136.5,55.5C 139.463,57.6431 142.796,58.6431 146.5,58.5C 146.67,57.1779 146.337,56.0113 145.5,55C 142.278,54.801 139.278,53.9676 136.5,52.5C 135.942,51.2101 134.942,50.3768 133.5,50C 130.774,49.8184 128.107,49.3184 125.5,48.5C 125.846,47.3044 126.346,47.3044 127,48.5C 127.333,45.8333 127.667,43.1667 128,40.5C 129.812,38.6997 131.645,37.0331 133.5,35.5C 133.833,35.5 134.167,35.5 134.5,35.5C 135.979,34.241 137.646,33.241 139.5,32.5 Z"/></g>
<g><path style="opacity:1" fill="#575877" d="M 183.5,39.5 C 185.948,38.5269 188.615,38.1936 191.5,38.5C 191.616,41.8599 191.949,45.1933 192.5,48.5C 190.167,48.5 187.833,48.5 185.5,48.5C 185.279,45.9327 184.612,43.5994 183.5,41.5C 184.506,40.6043 184.506,39.9377 183.5,39.5 Z"/></g>
<g><path style="opacity:1" fill="#903645" d="M 43.5,38.5 C 46.5043,41.1661 48.5043,44.4994 49.5,48.5C 47.8958,49.287 47.2291,50.6203 47.5,52.5C 43.433,51.0311 39.433,50.6978 35.5,51.5C 34.5,50.8333 33.5,50.1667 32.5,49.5C 32.4431,48.391 32.1098,47.391 31.5,46.5C 35.221,47.049 38.8877,47.549 42.5,48C 41.8333,47.3333 41.1667,46.6667 40.5,46C 42.9633,44.2072 43.63,42.0406 42.5,39.5C 43.1667,39.5 43.5,39.1667 43.5,38.5 Z"/></g>
<g><path style="opacity:1" fill="#2a6290" d="M 3.5,41.5 C 4.37644,41.3691 5.04311,41.7025 5.5,42.5C 3.73604,44.2776 1.73604,45.6109 -0.5,46.5C -0.5,45.5 -0.5,44.5 -0.5,43.5C 0.833333,42.8333 2.16667,42.1667 3.5,41.5 Z"/></g>
<g><path style="opacity:1" fill="#7b6762" d="M 191.5,38.5 C 198.387,38.5532 200.887,41.8866 199,48.5C 197.057,49.807 195.223,49.807 193.5,48.5C 193.167,48.5 192.833,48.5 192.5,48.5C 191.949,45.1933 191.616,41.8599 191.5,38.5 Z"/></g>
<g><path style="opacity:1" fill="#ac765f" d="M 193.5,48.5 C 193.425,45.7938 193.092,43.1272 192.5,40.5C 193.5,40.5 194.5,40.5 195.5,40.5C 195.575,43.2062 195.908,45.8728 196.5,48.5C 195.5,48.5 194.5,48.5 193.5,48.5 Z"/></g>
<g><path style="opacity:1" fill="#af6e70" d="M 67.5,41.5 C 67.8333,41.5 68.1667,41.5 68.5,41.5C 70.5272,44.1939 72.8605,46.5272 75.5,48.5C 72.3652,50.0233 69.0318,50.69 65.5,50.5C 65.0371,47.5176 64.7038,44.5176 64.5,41.5C 65.5,41.5 66.5,41.5 67.5,41.5 Z"/></g>
<g><path style="opacity:1" fill="#9e6559" d="M 101.5,39.5 C 107.719,41.0632 110.385,45.0632 109.5,51.5C 107.447,51.4021 105.78,52.0687 104.5,53.5C 101.766,56.1426 98.4331,57.1426 94.5,56.5C 94.2606,54.5328 94.5939,52.6995 95.5,51C 94.2625,50.7679 93.2625,50.2679 92.5,49.5C 94.7224,49.822 96.5557,49.1554 98,47.5C 98.8717,44.6388 100.038,41.9721 101.5,39.5 Z"/></g>
<g><path style="opacity:1" fill="#308bbf" d="M 5.5,44.5 C 6.99525,44.4148 7.99525,45.0815 8.5,46.5C 5.62323,47.9109 4.62323,47.2442 5.5,44.5 Z"/></g>
<g><path style="opacity:1" fill="#6f696a" d="M 183.5,39.5 C 184.506,39.9377 184.506,40.6043 183.5,41.5C 182.883,41.6107 182.383,41.944 182,42.5C 181.5,50.1594 181.334,57.8261 181.5,65.5C 180.833,65.5 180.5,65.1667 180.5,64.5C 180.666,56.4931 180.5,48.4931 180,40.5C 179.586,40.0426 179.086,39.7093 178.5,39.5C 175.961,40.9308 173.628,42.5975 171.5,44.5C 171.351,43.448 171.517,42.448 172,41.5C 174.179,39.6518 176.013,37.4852 177.5,35C 178.793,34.51 180.127,34.3433 181.5,34.5C 181.077,36.7812 181.744,38.4479 183.5,39.5 Z"/></g>
<g><path style="opacity:1" fill="#282629" d="M 203.5,-0.5 C 204.5,-0.5 205.5,-0.5 206.5,-0.5C 206.5,18.8333 206.5,38.1667 206.5,57.5C 205.5,57.5 204.5,57.5 203.5,57.5C 202.833,57.5 202.5,57.1667 202.5,56.5C 202.657,55.1266 202.49,53.7932 202,52.5C 198.686,50.1055 199.186,48.7721 203.5,48.5C 203.875,45.6035 203.375,42.9368 202,40.5C 200.636,41.2583 199.469,40.7583 198.5,39C 193.803,37.9397 189.136,36.773 184.5,35.5C 185.262,35.0894 186.262,34.9227 187.5,35C 188.252,34.3292 188.586,33.4959 188.5,32.5C 193.248,32.7252 197.915,32.2252 202.5,31C 203.406,29.3005 203.739,27.4672 203.5,25.5C 203.665,22.4816 203.498,19.4816 203,16.5C 202.617,15.944 202.117,15.6107 201.5,15.5C 201.167,15.5 200.833,15.5 200.5,15.5C 201.167,14.1667 201.833,12.8333 202.5,11.5C 203.43,7.60023 203.763,3.60023 203.5,-0.5 Z"/></g>
<g><path style="opacity:1" fill="#296b9e" d="M 11.5,52.5 C 11.5,49.8333 11.5,47.1667 11.5,44.5C 11.81,43.2617 12.31,43.2617 13,44.5C 13.1667,45.8333 13.3333,47.1667 13.5,48.5C 13.4146,50.3328 12.7479,51.6661 11.5,52.5 Z"/></g>
<g><path style="opacity:1" fill="#693f38" d="M 14.5,44.5 C 15.2719,45.6935 16.2719,46.6935 17.5,47.5C 18.2348,52.6187 16.5681,56.6187 12.5,59.5C 12.1667,59.5 11.8333,59.5 11.5,59.5C 12.1667,57.8333 12.8333,56.1667 13.5,54.5C 14.5,54.5 15.5,54.5 16.5,54.5C 16.6495,53.448 16.4828,52.448 16,51.5C 15.6667,51.8333 15.3333,52.1667 15,52.5C 14.5026,49.854 14.3359,47.1873 14.5,44.5 Z"/></g>
<g><path style="opacity:1" fill="#865448" d="M 118.5,29.5 C 119.833,29.5 121.167,29.5 122.5,29.5C 121.663,35.1463 121.496,40.813 122,46.5C 117.203,51.7788 112.703,57.1121 108.5,62.5C 107.554,61.0692 106.388,59.7358 105,58.5C 104.506,56.8659 104.34,55.1992 104.5,53.5C 105.78,52.0687 107.447,51.4021 109.5,51.5C 110.385,45.0632 107.719,41.0632 101.5,39.5C 102.604,37.6115 103.937,35.9448 105.5,34.5C 105.297,36.3904 105.963,37.8904 107.5,39C 110.005,40.7533 112.671,42.2533 115.5,43.5C 115.833,43.1667 116.167,42.8333 116.5,42.5C 113.147,39.4778 109.813,36.4778 106.5,33.5C 107.058,32.2101 108.058,31.3768 109.5,31C 112.544,30.6371 115.544,30.1371 118.5,29.5 Z"/></g>
<g><path style="opacity:1" fill="#b2877d" d="M 122.5,29.5 C 123.837,30.3149 124.837,31.4815 125.5,33C 127.197,33.3845 128.863,33.2178 130.5,32.5C 128.991,36.0741 129.991,37.0741 133.5,35.5C 131.645,37.0331 129.812,38.6997 128,40.5C 127.667,43.1667 127.333,45.8333 127,48.5C 126.346,47.3044 125.846,47.3044 125.5,48.5C 128.107,49.3184 130.774,49.8184 133.5,50C 134.942,50.3768 135.942,51.2101 136.5,52.5C 130.325,50.6709 127.325,53.0042 127.5,59.5C 126.717,57.6568 126.05,55.6568 125.5,53.5C 127.027,51.6696 126.527,50.6696 124,50.5C 122.188,50.4934 120.688,51.16 119.5,52.5C 117.303,56.2377 114.636,59.571 111.5,62.5C 112.115,64.3838 113.448,65.3838 115.5,65.5C 118.009,64.1569 120.676,63.6569 123.5,64C 124.812,67.0506 125.812,70.2173 126.5,73.5C 127.689,74.4287 129.022,74.762 130.5,74.5C 127.287,75.4874 123.953,76.4874 120.5,77.5C 121.548,78.548 122.548,79.548 123.5,80.5C 124.89,81.8993 125.89,83.5659 126.5,85.5C 123.065,83.3934 120.731,80.3934 119.5,76.5C 118.5,76.5 117.5,76.5 116.5,76.5C 110.848,77.0318 105.181,77.3651 99.5,77.5C 99.5,76.5 99.5,75.5 99.5,74.5C 102.774,74.3647 105.774,73.3647 108.5,71.5C 107.653,70.1552 106.487,69.1552 105,68.5C 103.976,65.1212 105.143,63.1212 108.5,62.5C 112.703,57.1121 117.203,51.7788 122,46.5C 121.496,40.813 121.663,35.1463 122.5,29.5 Z"/></g>
<g><path style="opacity:1" fill="#712f20" d="M 35.5,51.5 C 37.1789,51.8923 38.8455,52.3923 40.5,53C 40.1312,55.8775 41.4645,58.0442 44.5,59.5C 44.5,60.1667 44.5,60.8333 44.5,61.5C 42.5,59.8333 40.5,58.1667 38.5,56.5C 37.925,54.5887 36.925,52.922 35.5,51.5 Z"/></g>
<g><path style="opacity:1" fill="#cfaba3" d="M 127.5,59.5 C 127.511,61.0174 128.177,62.1841 129.5,63C 133.225,63.7599 136.892,63.5932 140.5,62.5C 141.386,61.675 141.719,60.675 141.5,59.5C 143.5,59.5 145.5,59.5 147.5,59.5C 147.201,57.396 147.534,55.396 148.5,53.5C 150.854,52.5772 152.187,53.5772 152.5,56.5C 152.167,57.1667 151.833,57.8333 151.5,58.5C 151.062,58.4346 150.728,58.6012 150.5,59C 152.437,59.1216 153.77,59.955 154.5,61.5C 152.5,60.1667 150.5,60.1667 148.5,61.5C 142.138,65.3462 136.138,69.6795 130.5,74.5C 129.022,74.762 127.689,74.4287 126.5,73.5C 125.812,70.2173 124.812,67.0506 123.5,64C 120.676,63.6569 118.009,64.1569 115.5,65.5C 113.448,65.3838 112.115,64.3838 111.5,62.5C 114.636,59.571 117.303,56.2377 119.5,52.5C 120.688,51.16 122.188,50.4934 124,50.5C 126.527,50.6696 127.027,51.6696 125.5,53.5C 126.05,55.6568 126.717,57.6568 127.5,59.5 Z"/></g>
<g><path style="opacity:1" fill="#2e2e38" d="M 183.5,41.5 C 184.612,43.5994 185.279,45.9327 185.5,48.5C 187.833,48.5 190.167,48.5 192.5,48.5C 192.833,49.8333 193.167,51.1667 193.5,52.5C 191.979,56.3538 189.146,58.6872 185,59.5C 184.023,61.7065 182.857,63.7065 181.5,65.5C 181.334,57.8261 181.5,50.1594 182,42.5C 182.383,41.944 182.883,41.6107 183.5,41.5 Z"/></g>
<g><path style="opacity:1" fill="#340707" d="M 49.5,48.5 C 50.5794,50.543 52.246,51.8763 54.5,52.5C 53.5525,53.9779 52.2191,54.9779 50.5,55.5C 49.1001,54.9002 48.1001,53.9002 47.5,52.5C 47.2291,50.6203 47.8958,49.287 49.5,48.5 Z"/></g>
<g><path style="opacity:1" fill="#c0c2c8" d="M 179.5,63.5 C 177.07,61.0551 174.404,59.0551 171.5,57.5C 171.702,55.0108 171.202,52.6775 170,50.5C 168.955,51.3734 168.122,52.3734 167.5,53.5C 166.506,52.0011 166.506,50.3344 167.5,48.5C 167.5,47.8333 167.833,47.5 168.5,47.5C 172.117,46.013 175.784,44.6797 179.5,43.5C 179.5,50.1667 179.5,56.8333 179.5,63.5 Z"/></g>
<g><path style="opacity:1" fill="#74566a" d="M 32.5,49.5 C 33.5,50.1667 34.5,50.8333 35.5,51.5C 36.925,52.922 37.925,54.5887 38.5,56.5C 35.7573,54.7607 33.7573,52.4274 32.5,49.5 Z"/></g>
<g><path style="opacity:1" fill="#7c6358" d="M 143.5,29.5 C 143.351,30.552 143.517,31.552 144,32.5C 144.718,31.5494 145.551,31.3828 146.5,32C 147.514,35.724 149.181,38.224 151.5,39.5C 151.336,42.1873 151.503,44.854 152,47.5C 152.333,47.1667 152.667,46.8333 153,46.5C 153.569,50.3605 154.402,50.3605 155.5,46.5C 156.012,48.8507 157.012,50.8507 158.5,52.5C 159.711,51.7261 159.711,50.8928 158.5,50C 160.265,49.3603 161.932,49.5269 163.5,50.5C 165.43,56.8689 163.43,58.5356 157.5,55.5C 156.049,57.5589 154.049,58.5589 151.5,58.5C 151.833,57.8333 152.167,57.1667 152.5,56.5C 153.372,55.3876 153.372,54.0542 152.5,52.5C 150.398,48.6282 148.564,44.6282 147,40.5C 145.114,37.758 142.614,36.0913 139.5,35.5C 139.5,34.5 139.5,33.5 139.5,32.5C 140.833,31.5 142.167,30.5 143.5,29.5 Z"/></g>
<g><path style="opacity:1" fill="#8d6c62" d="M 136.5,52.5 C 139.278,53.9676 142.278,54.801 145.5,55C 146.337,56.0113 146.67,57.1779 146.5,58.5C 142.796,58.6431 139.463,57.6431 136.5,55.5C 135.584,55.5427 134.917,55.8761 134.5,56.5C 132.84,54.7516 130.84,54.2516 128.5,55C 130.232,56.9719 131.565,59.1386 132.5,61.5C 130.833,60.8333 129.167,60.1667 127.5,59.5C 127.325,53.0042 130.325,50.6709 136.5,52.5 Z"/></g>
<g><path style="opacity:1" fill="#9c9da2" d="M 180.5,64.5 C 179.833,64.5 179.5,64.1667 179.5,63.5C 179.5,56.8333 179.5,50.1667 179.5,43.5C 175.784,44.6797 172.117,46.013 168.5,47.5C 169.167,46.1667 170.167,45.1667 171.5,44.5C 173.628,42.5975 175.961,40.9308 178.5,39.5C 179.086,39.7093 179.586,40.0426 180,40.5C 180.5,48.4931 180.666,56.4931 180.5,64.5 Z"/></g>
<g><path style="opacity:1" fill="#1f1c21" d="M -0.5,59.5 C -0.5,58.8333 -0.5,58.1667 -0.5,57.5C 0.707917,56.7659 2.04125,56.4326 3.5,56.5C 3.5,57.5 3.5,58.5 3.5,59.5C 2.16667,59.5 0.833333,59.5 -0.5,59.5 Z"/></g>
<g><path style="opacity:1" fill="#a8938c" d="M 167.5,48.5 C 166.506,50.3344 166.506,52.0011 167.5,53.5C 167.5,55.1667 167.5,56.8333 167.5,58.5C 166.5,58.5 165.5,58.5 164.5,58.5C 164.649,59.552 164.483,60.552 164,61.5C 162.231,63.9449 160.398,66.2782 158.5,68.5C 158.027,69.9063 157.027,70.573 155.5,70.5C 155.938,68.874 156.272,67.2073 156.5,65.5C 156.66,63.6455 155.993,62.3121 154.5,61.5C 153.77,59.955 152.437,59.1216 150.5,59C 150.728,58.6012 151.062,58.4346 151.5,58.5C 154.049,58.5589 156.049,57.5589 157.5,55.5C 163.43,58.5356 165.43,56.8689 163.5,50.5C 164.167,50.1667 164.833,49.8333 165.5,49.5C 166.167,49.1667 166.833,48.8333 167.5,48.5 Z"/></g>
<g><path style="opacity:1" fill="#6a666e" d="M 193.5,52.5 C 194.167,52.5 194.5,52.8333 194.5,53.5C 196.561,57.7348 195.561,60.9014 191.5,63C 189.19,63.4966 186.857,63.6633 184.5,63.5C 184.5,64.8333 184.5,66.1667 184.5,67.5C 190.167,67.5 195.833,67.5 201.5,67.5C 195.923,67.8563 190.59,68.8563 185.5,70.5C 184.197,68.8577 182.864,67.1911 181.5,65.5C 182.857,63.7065 184.023,61.7065 185,59.5C 189.146,58.6872 191.979,56.3538 193.5,52.5 Z"/></g>
<g><path style="opacity:1" fill="#81100e" d="M 75.5,48.5 C 77.8744,49.6861 80.2078,49.6861 82.5,48.5C 80.8977,52.0954 78.8977,55.4288 76.5,58.5C 75.1667,59.1667 74.1667,60.1667 73.5,61.5C 69.5383,64.4884 65.5383,67.4884 61.5,70.5C 59.9458,71.9142 58.6125,73.5808 57.5,75.5C 55.8103,73.4807 54.1436,71.4807 52.5,69.5C 56.054,67.2992 58.3873,64.2992 59.5,60.5C 57.8008,60.6602 56.1341,60.4935 54.5,60C 54.0183,58.9916 53.8516,57.825 54,56.5C 52.9887,55.6634 51.8221,55.33 50.5,55.5C 52.2191,54.9779 53.5525,53.9779 54.5,52.5C 56.6112,53.7416 58.6112,53.7416 60.5,52.5C 62.2838,52.1075 63.9505,51.4408 65.5,50.5C 69.0318,50.69 72.3652,50.0233 75.5,48.5 Z"/></g>
<g><path style="opacity:1" fill="#382a28" d="M 134.5,56.5 C 135.479,58.1454 136.812,59.4787 138.5,60.5C 136.604,61.4656 134.604,61.7989 132.5,61.5C 131.565,59.1386 130.232,56.9719 128.5,55C 130.84,54.2516 132.84,54.7516 134.5,56.5 Z"/></g>
<g><path style="opacity:1" fill="#dadddf" d="M 203.5,57.5 C 204.5,57.5 205.5,57.5 206.5,57.5C 206.5,59.8333 206.5,62.1667 206.5,64.5C 206.167,64.5 205.833,64.5 205.5,64.5C 205.5,63.8333 205.167,63.5 204.5,63.5C 202.469,61.7508 202.135,59.7508 203.5,57.5 Z"/></g>
<g><path style="opacity:1" fill="#766863" d="M 11.5,44.5 C 11.5,47.1667 11.5,49.8333 11.5,52.5C 11.5,53.8333 12.1667,54.5 13.5,54.5C 12.8333,56.1667 12.1667,57.8333 11.5,59.5C 7.75221,62.0406 3.75221,64.0406 -0.5,65.5C -0.5,63.5 -0.5,61.5 -0.5,59.5C 0.833333,59.5 2.16667,59.5 3.5,59.5C 3.5,58.5 3.5,57.5 3.5,56.5C 2.04125,56.4326 0.707917,56.7659 -0.5,57.5C -0.5,54.1667 -0.5,50.8333 -0.5,47.5C 3.11495,47.2055 6.28162,48.2055 9,50.5C 9.711,48.1009 9.54433,45.7676 8.5,43.5C 8.80762,42.6919 9.30762,42.0253 10,41.5C 10.2321,42.7375 10.7321,43.7375 11.5,44.5 Z"/></g>
<g><path style="opacity:1" fill="#735363" d="M 38.5,56.5 C 40.5,58.1667 42.5,59.8333 44.5,61.5C 44.5,62.1667 44.5,62.8333 44.5,63.5C 41.7573,61.7607 39.7573,59.4274 38.5,56.5 Z"/></g>
<g><path style="opacity:1" fill="#3a2e34" d="M 49.5,63.5 C 48.8826,63.6107 48.3826,63.944 48,64.5C 46.9609,63.2899 45.7942,62.2899 44.5,61.5C 44.5,60.8333 44.5,60.1667 44.5,59.5C 48.4109,57.7317 50.0776,59.065 49.5,63.5 Z"/></g>
<g><path style="opacity:1" fill="#3d2525" d="M 11.5,59.5 C 11.8333,59.5 12.1667,59.5 12.5,59.5C 10.0827,62.2202 7.08269,64.2202 3.5,65.5C 2.39636,68.0499 1.06303,70.3832 -0.5,72.5C -0.5,70.1667 -0.5,67.8333 -0.5,65.5C 3.75221,64.0406 7.75221,62.0406 11.5,59.5 Z"/></g>
<g><path style="opacity:1" fill="#663530" d="M 88.5,47.5 C 89.6049,48.6005 90.9382,49.2671 92.5,49.5C 93.2625,50.2679 94.2625,50.7679 95.5,51C 94.5939,52.6995 94.2606,54.5328 94.5,56.5C 95.6222,57.9473 97.1222,58.9473 99,59.5C 99.4221,62.7595 100.922,65.4262 103.5,67.5C 101.674,67.9202 99.674,67.9202 97.5,67.5C 97.5,68.5 97.5,69.5 97.5,70.5C 96.1667,70.5 94.8333,70.5 93.5,70.5C 93.7811,72.9628 94.7811,75.1295 96.5,77C 98.9355,77.853 101.269,78.853 103.5,80C 100.5,80.3333 97.5,80.6667 94.5,81C 93.1667,81.6667 93.1667,82.3333 94.5,83C 95.7932,83.49 97.1266,83.6567 98.5,83.5C 98.5,84.5 98.5,85.5 98.5,86.5C 97.1667,86.5 95.8333,86.5 94.5,86.5C 93.8333,86.1667 93.1667,85.8333 92.5,85.5C 91.027,83.6053 89.3603,81.9387 87.5,80.5C 90.4304,80.2051 92.4304,78.7051 93.5,76C 91.9299,72.6184 89.5966,70.1184 86.5,68.5C 87.7773,67.3064 88.4439,65.6397 88.5,63.5C 87.4395,58.0005 87.4395,52.6672 88.5,47.5 Z"/></g>
<g><path style="opacity:1" fill="#c49a73" d="M 171.5,57.5 C 170.029,59.2156 169.029,61.2156 168.5,63.5C 167.596,64.209 167.263,65.209 167.5,66.5C 166.167,66.5 164.833,66.5 163.5,66.5C 163.66,68.1992 163.494,69.8659 163,71.5C 162.617,70.944 162.117,70.6107 161.5,70.5C 161.179,68.9519 160.179,68.2852 158.5,68.5C 160.398,66.2782 162.231,63.9449 164,61.5C 164.483,60.552 164.649,59.552 164.5,58.5C 165.5,58.5 166.5,58.5 167.5,58.5C 167.5,56.8333 167.5,55.1667 167.5,53.5C 168.122,52.3734 168.955,51.3734 170,50.5C 171.202,52.6775 171.702,55.0108 171.5,57.5 Z"/></g>
<g><path style="opacity:1" fill="#a01d17" d="M 35.5,51.5 C 39.433,50.6978 43.433,51.0311 47.5,52.5C 48.1001,53.9002 49.1001,54.9002 50.5,55.5C 51.8221,55.33 52.9887,55.6634 54,56.5C 53.8516,57.825 54.0183,58.9916 54.5,60C 56.1341,60.4935 57.8008,60.6602 59.5,60.5C 58.3873,64.2992 56.054,67.2992 52.5,69.5C 52.1667,69.5 51.8333,69.5 51.5,69.5C 50.3702,67.6854 49.7036,65.6854 49.5,63.5C 50.0776,59.065 48.4109,57.7317 44.5,59.5C 41.4645,58.0442 40.1312,55.8775 40.5,53C 38.8455,52.3923 37.1789,51.8923 35.5,51.5 Z"/></g>
<g><path style="opacity:1" fill="#971713" d="M 26.5,48.5 C 31.1344,53.3051 35.6344,58.3051 40,63.5C 40.4828,64.448 40.6495,65.448 40.5,66.5C 38.246,70.0066 36.246,73.6733 34.5,77.5C 33.1667,77.5 31.8333,77.5 30.5,77.5C 30.6567,76.1266 30.49,74.7932 30,73.5C 29.3333,76.1667 28.6667,76.1667 28,73.5C 27.6667,73.8333 27.3333,74.1667 27,74.5C 22.9138,68.0563 22.4138,61.5563 25.5,55C 23.5218,52.5027 23.0218,49.6693 24,46.5C 24.7083,47.3805 25.5416,48.0472 26.5,48.5 Z"/></g>
<g><path style="opacity:1" fill="#908388" d="M 76.5,58.5 C 77.8799,58.9623 78.5466,59.9623 78.5,61.5C 77.4519,63.4104 77.4519,65.2438 78.5,67C 76.7818,67.346 75.1151,67.846 73.5,68.5C 72.6143,67.675 72.281,66.675 72.5,65.5C 72.8333,64.1667 73.1667,62.8333 73.5,61.5C 74.1667,60.1667 75.1667,59.1667 76.5,58.5 Z"/></g>
<g><path style="opacity:1" fill="#742e1f" d="M 44.5,61.5 C 45.7942,62.2899 46.9609,63.2899 48,64.5C 48.3826,63.944 48.8826,63.6107 49.5,63.5C 49.7036,65.6854 50.3702,67.6854 51.5,69.5C 49.1667,67.5 46.8333,65.5 44.5,63.5C 44.5,62.8333 44.5,62.1667 44.5,61.5 Z"/></g>
<g><path style="opacity:1" fill="#9c8c85" d="M 202.5,56.5 C 202.5,57.1667 202.833,57.5 203.5,57.5C 202.135,59.7508 202.469,61.7508 204.5,63.5C 203.857,65.0764 202.857,66.4097 201.5,67.5C 195.833,67.5 190.167,67.5 184.5,67.5C 184.5,66.1667 184.5,64.8333 184.5,63.5C 186.857,63.6633 189.19,63.4966 191.5,63C 195.561,60.9014 196.561,57.7348 194.5,53.5C 197.865,52.512 200.532,53.512 202.5,56.5 Z"/></g>
<g><path style="opacity:1" fill="#724e59" d="M 44.5,63.5 C 46.8333,65.5 49.1667,67.5 51.5,69.5C 51.5,70.1667 51.5,70.8333 51.5,71.5C 48.4275,69.4309 46.0941,66.7642 44.5,63.5 Z"/></g>
<g><path style="opacity:1" fill="#977f7f" d="M 148.5,61.5 C 145.945,63.8968 143.945,66.7302 142.5,70C 144.058,70.21 145.391,70.71 146.5,71.5C 144.265,71.2053 142.265,71.5386 140.5,72.5C 138.847,72.6596 137.514,73.3263 136.5,74.5C 134.668,75.2485 133.001,76.2485 131.5,77.5C 128.083,77.023 125.416,78.023 123.5,80.5C 122.548,79.548 121.548,78.548 120.5,77.5C 123.953,76.4874 127.287,75.4874 130.5,74.5C 136.138,69.6795 142.138,65.3462 148.5,61.5 Z"/></g>
<g><path style="opacity:1" fill="#7b100f" d="M 17.5,38.5 C 21.2343,41.2311 24.2343,44.5644 26.5,48.5C 25.5416,48.0472 24.7083,47.3805 24,46.5C 23.0218,49.6693 23.5218,52.5027 25.5,55C 22.4138,61.5563 22.9138,68.0563 27,74.5C 27.3333,74.1667 27.6667,73.8333 28,73.5C 28.6667,76.1667 29.3333,76.1667 30,73.5C 30.49,74.7932 30.6567,76.1266 30.5,77.5C 31.8333,77.5 33.1667,77.5 34.5,77.5C 31.7516,82.6657 28.7516,87.6657 25.5,92.5C 23.9328,91.3192 23.0995,89.6526 23,87.5C 21.3196,88.6034 19.8196,88.2701 18.5,86.5C 17.6906,84.9291 17.3573,83.2624 17.5,81.5C 15.139,81.3259 12.8056,80.9926 10.5,80.5C 10.3965,75.3562 11.5632,74.6896 14,78.5C 14.3333,77.5 14.6667,76.5 15,75.5C 16.1827,76.731 17.3493,76.731 18.5,75.5C 18.047,73.4348 17.047,71.7682 15.5,70.5C 14.5723,72.3348 13.4056,72.6682 12,71.5C 9.22287,75.4009 6.72287,79.4009 4.5,83.5C 3.54811,81.9547 3.21478,80.288 3.5,78.5C 2.16667,78.5 0.833333,78.5 -0.5,78.5C -0.5,76.5 -0.5,74.5 -0.5,72.5C 1.06303,70.3832 2.39636,68.0499 3.5,65.5C 7.08269,64.2202 10.0827,62.2202 12.5,59.5C 16.5681,56.6187 18.2348,52.6187 17.5,47.5C 17.5,44.5 17.5,41.5 17.5,38.5 Z"/></g>
<g><path style="opacity:1" fill="#933141" d="M 73.5,61.5 C 73.1667,62.8333 72.8333,64.1667 72.5,65.5C 70.9073,68.3549 69.5739,71.3549 68.5,74.5C 66.396,74.7989 64.396,74.4656 62.5,73.5C 61.8728,72.5832 61.5394,71.5832 61.5,70.5C 65.5383,67.4884 69.5383,64.4884 73.5,61.5 Z"/></g>
<g><path style="opacity:1" fill="#745655" d="M 88.5,47.5 C 87.4395,52.6672 87.4395,58.0005 88.5,63.5C 88.4439,65.6397 87.7773,67.3064 86.5,68.5C 85.5041,68.4142 84.6708,68.7476 84,69.5C 81.8223,66.5315 80.6556,66.8649 80.5,70.5C 83.9103,70.3838 85.2436,72.0504 84.5,75.5C 82.8212,75.2852 81.8212,75.9519 81.5,77.5C 77.8183,77.3347 74.1516,77.5014 70.5,78C 68.3721,79.7479 67.0388,81.9145 66.5,84.5C 65.2749,83.8478 64.6083,82.6811 64.5,81C 64.2222,77.7029 65.5556,75.5362 68.5,74.5C 69.5739,71.3549 70.9073,68.3549 72.5,65.5C 72.281,66.675 72.6143,67.675 73.5,68.5C 75.1151,67.846 76.7818,67.346 78.5,67C 77.4519,65.2438 77.4519,63.4104 78.5,61.5C 78.5466,59.9623 77.8799,58.9623 76.5,58.5C 78.8977,55.4288 80.8977,52.0954 82.5,48.5C 84.4021,46.8489 86.4021,46.5155 88.5,47.5 Z"/></g>
<g><path style="opacity:1" fill="#cf8e50" d="M 158.5,68.5 C 160.179,68.2852 161.179,68.9519 161.5,70.5C 159.192,71.7928 156.858,73.1261 154.5,74.5C 154.5,73.8333 154.5,73.1667 154.5,72.5C 154.328,71.5084 154.662,70.8417 155.5,70.5C 157.027,70.573 158.027,69.9063 158.5,68.5 Z"/></g>
<g><path style="opacity:1" fill="#d5c8c5" d="M 154.5,61.5 C 155.993,62.3121 156.66,63.6455 156.5,65.5C 156.272,67.2073 155.938,68.874 155.5,70.5C 154.662,70.8417 154.328,71.5084 154.5,72.5C 153.849,73.0906 153.182,73.7573 152.5,74.5C 150.698,73.0144 148.698,72.0144 146.5,71.5C 145.391,70.71 144.058,70.21 142.5,70C 143.945,66.7302 145.945,63.8968 148.5,61.5C 150.5,60.1667 152.5,60.1667 154.5,61.5 Z"/></g>
<g><path style="opacity:1" fill="#3d3538" d="M 204.5,63.5 C 205.167,63.5 205.5,63.8333 205.5,64.5C 204.699,66.7441 203.366,68.7441 201.5,70.5C 201.808,71.3081 202.308,71.9747 203,72.5C 203.499,78.1569 203.666,83.8236 203.5,89.5C 201.621,88.6586 199.621,88.3253 197.5,88.5C 194.5,88.5 191.5,88.5 188.5,88.5C 188.833,87.1667 189.167,85.8333 189.5,84.5C 191.5,84.5 193.5,84.5 195.5,84.5C 195.649,81.3926 195.149,78.3926 194,75.5C 192.301,74.5939 190.467,74.2606 188.5,74.5C 186.738,73.7377 185.738,72.4044 185.5,70.5C 190.59,68.8563 195.923,67.8563 201.5,67.5C 202.857,66.4097 203.857,65.0764 204.5,63.5 Z"/></g>
<g><path style="opacity:1" fill="#b3ada7" d="M 168.5,63.5 C 168.479,66.5348 167.146,68.8681 164.5,70.5C 166.582,73.2493 168.916,75.5826 171.5,77.5C 166.625,77.1915 161.958,77.1915 157.5,77.5C 156.5,76.8333 155.5,76.1667 154.5,75.5C 154.5,75.1667 154.5,74.8333 154.5,74.5C 156.858,73.1261 159.192,71.7928 161.5,70.5C 162.117,70.6107 162.617,70.944 163,71.5C 163.494,69.8659 163.66,68.1992 163.5,66.5C 164.833,66.5 166.167,66.5 167.5,66.5C 167.263,65.209 167.596,64.209 168.5,63.5 Z"/></g>
<g><path style="opacity:1" fill="#703327" d="M 17.5,36.5 C 18.1667,36.5 18.8333,36.5 19.5,36.5C 23.6054,41.027 27.9387,45.3604 32.5,49.5C 33.7573,52.4274 35.7573,54.7607 38.5,56.5C 39.7573,59.4274 41.7573,61.7607 44.5,63.5C 46.0941,66.7642 48.4275,69.4309 51.5,71.5C 56.4343,77.6083 61.601,83.6083 67,89.5C 67.1881,91.0613 66.3547,91.728 64.5,91.5C 62.5272,88.8605 60.1939,86.5272 57.5,84.5C 56.7377,82.7376 55.4044,81.7376 53.5,81.5C 53.6764,78.9208 52.3431,76.9208 49.5,75.5C 49.6309,74.6236 49.2975,73.9569 48.5,73.5C 47.6143,74.325 47.281,75.325 47.5,76.5C 46.5,76.5 45.5,76.5 44.5,76.5C 44.7947,74.2646 44.4614,72.2646 43.5,70.5C 44.2923,68.2436 43.2923,66.9103 40.5,66.5C 40.6495,65.448 40.4828,64.448 40,63.5C 35.6344,58.3051 31.1344,53.3051 26.5,48.5C 24.2343,44.5644 21.2343,41.2311 17.5,38.5C 17.5,37.8333 17.5,37.1667 17.5,36.5 Z"/></g>
<g><path style="opacity:1" fill="#e3e0e4" d="M 171.5,57.5 C 174.404,59.0551 177.07,61.0551 179.5,63.5C 179.5,64.1667 179.833,64.5 180.5,64.5C 180.5,65.1667 180.833,65.5 181.5,65.5C 182.864,67.1911 184.197,68.8577 185.5,70.5C 185.738,72.4044 186.738,73.7377 188.5,74.5C 189.324,77.7644 189.658,81.0977 189.5,84.5C 189.167,85.8333 188.833,87.1667 188.5,88.5C 187.662,88.8417 187.328,89.5084 187.5,90.5C 186.883,90.6107 186.383,90.944 186,91.5C 185.218,82.55 180.384,77.8833 171.5,77.5C 168.916,75.5826 166.582,73.2493 164.5,70.5C 167.146,68.8681 168.479,66.5348 168.5,63.5C 169.029,61.2156 170.029,59.2156 171.5,57.5 Z"/></g>
<g><path style="opacity:1" fill="#9f979e" d="M 171.5,77.5 C 180.384,77.8833 185.218,82.55 186,91.5C 186.383,90.944 186.883,90.6107 187.5,90.5C 187.433,91.9587 187.766,93.2921 188.5,94.5C 188.5,94.8333 188.5,95.1667 188.5,95.5C 186.801,95.6602 185.134,95.4935 183.5,95C 184.728,93.5098 184.728,92.0098 183.5,90.5C 183.273,83.1054 179.44,79.1054 172,78.5C 171.536,79.0944 171.369,79.7611 171.5,80.5C 167.833,80.5 164.167,80.5 160.5,80.5C 159.167,79.8333 158.167,78.8333 157.5,77.5C 161.958,77.1915 166.625,77.1915 171.5,77.5 Z"/></g>
<g><path style="opacity:1" fill="#452b2e" d="M 86.5,68.5 C 89.5966,70.1184 91.9299,72.6184 93.5,76C 92.4304,78.7051 90.4304,80.2051 87.5,80.5C 85.5168,79.5294 83.5168,78.5294 81.5,77.5C 81.8212,75.9519 82.8212,75.2852 84.5,75.5C 85.2436,72.0504 83.9103,70.3838 80.5,70.5C 80.6556,66.8649 81.8223,66.5315 84,69.5C 84.6708,68.7476 85.5041,68.4142 86.5,68.5 Z"/></g>
<g><path style="opacity:1" fill="#610d0c" d="M 49.5,75.5 C 52.3431,76.9208 53.6764,78.9208 53.5,81.5C 50.0571,86.0506 47.3905,91.0506 45.5,96.5C 42.5,96.5 39.5,96.5 36.5,96.5C 36.5,96.1667 36.5,95.8333 36.5,95.5C 38.0174,95.4894 39.1841,94.8228 40,93.5C 42.9246,87.315 46.0913,81.315 49.5,75.5 Z"/></g>
<g><path style="opacity:1" fill="#8f6330" d="M 188.5,74.5 C 190.467,74.2606 192.301,74.5939 194,75.5C 195.149,78.3926 195.649,81.3926 195.5,84.5C 193.5,84.5 191.5,84.5 189.5,84.5C 189.658,81.0977 189.324,77.7644 188.5,74.5 Z"/></g>
<g><path style="opacity:1" fill="#633028" d="M 51.5,69.5 C 51.8333,69.5 52.1667,69.5 52.5,69.5C 54.1436,71.4807 55.8103,73.4807 57.5,75.5C 58.6125,73.5808 59.9458,71.9142 61.5,70.5C 61.5394,71.5832 61.8728,72.5832 62.5,73.5C 64.396,74.4656 66.396,74.7989 68.5,74.5C 65.5556,75.5362 64.2222,77.7029 64.5,81C 64.6083,82.6811 65.2749,83.8478 66.5,84.5C 66.427,86.0269 67.0937,87.0269 68.5,87.5C 69.6253,89.1288 70.9586,90.6288 72.5,92C 72.2716,92.3988 71.9382,92.5654 71.5,92.5C 69.1667,92.5 66.8333,92.5 64.5,92.5C 64.5,92.1667 64.5,91.8333 64.5,91.5C 66.3547,91.728 67.1881,91.0613 67,89.5C 61.601,83.6083 56.4343,77.6083 51.5,71.5C 51.5,70.8333 51.5,70.1667 51.5,69.5 Z"/></g>
<g><path style="opacity:1" fill="#824f4d" d="M 104.5,53.5 C 104.34,55.1992 104.506,56.8659 105,58.5C 106.388,59.7358 107.554,61.0692 108.5,62.5C 105.143,63.1212 103.976,65.1212 105,68.5C 106.487,69.1552 107.653,70.1552 108.5,71.5C 105.774,73.3647 102.774,74.3647 99.5,74.5C 99.5,75.5 99.5,76.5 99.5,77.5C 105.181,77.3651 110.848,77.0318 116.5,76.5C 116.918,77.2216 117.584,77.7216 118.5,78C 117.354,78.6449 116.354,79.4783 115.5,80.5C 112.491,80.4937 109.491,80.4937 106.5,80.5C 109.443,83.1804 109.11,83.847 105.5,82.5C 104.614,83.325 104.281,84.325 104.5,85.5C 107.613,85.0646 108.279,86.0646 106.5,88.5C 106.719,89.938 107.219,91.2713 108,92.5C 110.664,93.9984 112.83,95.9984 114.5,98.5C 112.844,97.8535 111.177,97.1869 109.5,96.5C 108.416,96.685 107.416,97.0183 106.5,97.5C 104.284,96.7974 102.451,95.4641 101,93.5C 100.883,89.2149 98.7166,87.2149 94.5,87.5C 94.5,87.1667 94.5,86.8333 94.5,86.5C 95.8333,86.5 97.1667,86.5 98.5,86.5C 98.5,85.5 98.5,84.5 98.5,83.5C 97.1266,83.6567 95.7932,83.49 94.5,83C 93.1667,82.3333 93.1667,81.6667 94.5,81C 97.5,80.6667 100.5,80.3333 103.5,80C 101.269,78.853 98.9355,77.853 96.5,77C 94.7811,75.1295 93.7811,72.9628 93.5,70.5C 94.8333,70.5 96.1667,70.5 97.5,70.5C 97.5,69.5 97.5,68.5 97.5,67.5C 99.674,67.9202 101.674,67.9202 103.5,67.5C 100.922,65.4262 99.4221,62.7595 99,59.5C 97.1222,58.9473 95.6222,57.9473 94.5,56.5C 98.4331,57.1426 101.766,56.1426 104.5,53.5 Z"/></g>
<g><path style="opacity:1" fill="#523940" d="M 136.5,74.5 C 136.906,80.4036 134.239,83.0703 128.5,82.5C 127.761,82.631 127.094,82.4643 126.5,82C 128.063,80.264 129.73,78.764 131.5,77.5C 133.001,76.2485 134.668,75.2485 136.5,74.5 Z"/></g>
<g><path style="opacity:1" fill="#150e11" d="M 40.5,66.5 C 43.2923,66.9103 44.2923,68.2436 43.5,70.5C 39.0747,79.0222 34.408,87.3555 29.5,95.5C 27.5,95.5 25.5,95.5 23.5,95.5C 24.1667,94.5 24.8333,93.5 25.5,92.5C 28.7516,87.6657 31.7516,82.6657 34.5,77.5C 36.246,73.6733 38.246,70.0066 40.5,66.5 Z"/></g>
<g><path style="opacity:1" fill="#87625e" d="M 81.5,77.5 C 83.5168,78.5294 85.5168,79.5294 87.5,80.5C 89.3603,81.9387 91.027,83.6053 92.5,85.5C 88.0159,85.1366 83.6826,84.1366 79.5,82.5C 76.2387,83.7113 72.9054,84.7113 69.5,85.5C 69.1373,86.1835 68.8039,86.8501 68.5,87.5C 67.0937,87.0269 66.427,86.0269 66.5,84.5C 67.0388,81.9145 68.3721,79.7479 70.5,78C 74.1516,77.5014 77.8183,77.3347 81.5,77.5 Z"/></g>
<g><path style="opacity:1" fill="#b38286" d="M 124.5,89.5 C 125.11,90.391 125.443,91.391 125.5,92.5C 125.134,93.6946 124.301,94.3613 123,94.5C 120.569,91.3991 117.569,89.0658 114,87.5C 113.333,85.8333 113.333,84.1667 114,82.5C 114.561,81.9781 115.228,81.6448 116,81.5C 119.347,83.6825 122.181,86.3491 124.5,89.5 Z"/></g>
<g><path style="opacity:1" fill="#9f696b" d="M 116.5,76.5 C 117.5,76.5 118.5,76.5 119.5,76.5C 120.731,80.3934 123.065,83.3934 126.5,85.5C 125.4,86.6049 124.733,87.9382 124.5,89.5C 122.181,86.3491 119.347,83.6825 116,81.5C 115.228,81.6448 114.561,81.9781 114,82.5C 113.333,84.1667 113.333,85.8333 114,87.5C 117.569,89.0658 120.569,91.3991 123,94.5C 124.301,94.3613 125.134,93.6946 125.5,92.5C 127.611,91.6201 129.611,91.6201 131.5,92.5C 130.833,93.8333 129.833,94.8333 128.5,95.5C 124.143,94.8429 121.143,96.5095 119.5,100.5C 118.5,100.5 117.5,100.5 116.5,100.5C 116.167,99.5 115.5,98.8333 114.5,98.5C 112.83,95.9984 110.664,93.9984 108,92.5C 107.219,91.2713 106.719,89.938 106.5,88.5C 108.279,86.0646 107.613,85.0646 104.5,85.5C 104.281,84.325 104.614,83.325 105.5,82.5C 109.11,83.847 109.443,83.1804 106.5,80.5C 109.491,80.4937 112.491,80.4937 115.5,80.5C 116.354,79.4783 117.354,78.6449 118.5,78C 117.584,77.7216 116.918,77.2216 116.5,76.5 Z"/></g>
<g><path style="opacity:1" fill="#9d817d" d="M 92.5,85.5 C 93.1667,85.8333 93.8333,86.1667 94.5,86.5C 94.5,86.8333 94.5,87.1667 94.5,87.5C 93.5,87.5 92.5,87.5 91.5,87.5C 91.5,88.5 91.5,89.5 91.5,90.5C 89.1667,90.5 86.8333,90.5 84.5,90.5C 84.9746,93.0821 84.3079,95.0821 82.5,96.5C 78.9806,95.0364 75.3139,94.0364 71.5,93.5C 71.5,93.1667 71.5,92.8333 71.5,92.5C 71.9382,92.5654 72.2716,92.3988 72.5,92C 70.9586,90.6288 69.6253,89.1288 68.5,87.5C 68.8039,86.8501 69.1373,86.1835 69.5,85.5C 72.9054,84.7113 76.2387,83.7113 79.5,82.5C 83.6826,84.1366 88.0159,85.1366 92.5,85.5 Z"/></g>
<g><path style="opacity:1" fill="#5d0e0f" d="M 25.5,92.5 C 24.8333,93.5 24.1667,94.5 23.5,95.5C 21.8333,95.5 20.1667,95.5 18.5,95.5C 15.5947,90.8026 11.5947,89.4693 6.5,91.5C 4.09709,91.448 1.76375,91.7814 -0.5,92.5C -0.5,87.8333 -0.5,83.1667 -0.5,78.5C 0.833333,78.5 2.16667,78.5 3.5,78.5C 3.21478,80.288 3.54811,81.9547 4.5,83.5C 6.72287,79.4009 9.22287,75.4009 12,71.5C 13.4056,72.6682 14.5723,72.3348 15.5,70.5C 17.047,71.7682 18.047,73.4348 18.5,75.5C 17.3493,76.731 16.1827,76.731 15,75.5C 14.6667,76.5 14.3333,77.5 14,78.5C 11.5632,74.6896 10.3965,75.3562 10.5,80.5C 12.8056,80.9926 15.139,81.3259 17.5,81.5C 17.3573,83.2624 17.6906,84.9291 18.5,86.5C 19.8196,88.2701 21.3196,88.6034 23,87.5C 23.0995,89.6526 23.9328,91.3192 25.5,92.5 Z"/></g>
<g><path style="opacity:1" fill="#dbc9af" d="M 183.5,90.5 C 181.629,90.1412 180.129,89.1412 179,87.5C 177.529,83.855 175.029,81.5217 171.5,80.5C 171.369,79.7611 171.536,79.0944 172,78.5C 179.44,79.1054 183.273,83.1054 183.5,90.5 Z"/></g>
<g><path style="opacity:1" fill="#202024" d="M 205.5,64.5 C 205.833,64.5 206.167,64.5 206.5,64.5C 206.5,73.5 206.5,82.5 206.5,91.5C 205.609,92.1098 204.609,92.4431 203.5,92.5C 203.5,91.5 203.5,90.5 203.5,89.5C 203.666,83.8236 203.499,78.1569 203,72.5C 202.308,71.9747 201.808,71.3081 201.5,70.5C 203.366,68.7441 204.699,66.7441 205.5,64.5 Z"/></g>
<g><path style="opacity:1" fill="#6f5c67" d="M 131.5,77.5 C 129.73,78.764 128.063,80.264 126.5,82C 127.094,82.4643 127.761,82.631 128.5,82.5C 128.5,83.5 128.5,84.5 128.5,85.5C 131.798,85.0162 134.464,86.0162 136.5,88.5C 134.799,89.8347 133.132,91.168 131.5,92.5C 129.611,91.6201 127.611,91.6201 125.5,92.5C 125.443,91.391 125.11,90.391 124.5,89.5C 124.733,87.9382 125.4,86.6049 126.5,85.5C 125.89,83.5659 124.89,81.8993 123.5,80.5C 125.416,78.023 128.083,77.023 131.5,77.5 Z"/></g>
<g><path style="opacity:1" fill="#935253" d="M 140.5,72.5 C 141.124,72.9169 141.457,73.5836 141.5,74.5C 138.211,84.1783 139.378,84.845 145,76.5C 145.464,77.0944 145.631,77.7611 145.5,78.5C 141.309,81.5477 139.976,85.5477 141.5,90.5C 142.451,89.6744 143.451,89.5078 144.5,90C 142.045,91.9416 140.712,94.4416 140.5,97.5C 138.621,96.6586 136.621,96.3253 134.5,96.5C 132.736,95.2878 131.07,95.6212 129.5,97.5C 128.702,97.0431 128.369,96.3764 128.5,95.5C 129.833,94.8333 130.833,93.8333 131.5,92.5C 133.132,91.168 134.799,89.8347 136.5,88.5C 134.464,86.0162 131.798,85.0162 128.5,85.5C 128.5,84.5 128.5,83.5 128.5,82.5C 134.239,83.0703 136.906,80.4036 136.5,74.5C 137.514,73.3263 138.847,72.6596 140.5,72.5 Z"/></g>
<g><path style="opacity:1" fill="#7b5029" d="M 188.5,88.5 C 191.5,88.5 194.5,88.5 197.5,88.5C 198.038,90.1172 198.371,91.7839 198.5,93.5C 195.375,94.4794 192.042,94.8128 188.5,94.5C 187.766,93.2921 187.433,91.9587 187.5,90.5C 187.328,89.5084 187.662,88.8417 188.5,88.5 Z"/></g>
<g><path style="opacity:1" fill="#332023" d="M 53.5,81.5 C 55.4044,81.7376 56.7377,82.7376 57.5,84.5C 57.4287,89.1205 55.0954,91.9539 50.5,93C 49.7476,93.6708 49.4142,94.5041 49.5,95.5C 48.1667,95.8333 46.8333,96.1667 45.5,96.5C 47.3905,91.0506 50.0571,86.0506 53.5,81.5 Z"/></g>
<g><path style="opacity:1" fill="#c5968f" d="M 140.5,72.5 C 142.265,71.5386 144.265,71.2053 146.5,71.5C 148.698,72.0144 150.698,73.0144 152.5,74.5C 153.182,73.7573 153.849,73.0906 154.5,72.5C 154.5,73.1667 154.5,73.8333 154.5,74.5C 154.5,74.8333 154.5,75.1667 154.5,75.5C 152.411,75.8567 150.411,76.5233 148.5,77.5C 148.919,78.6721 149.585,79.6721 150.5,80.5C 153.446,77.5713 154.613,77.9047 154,81.5C 155.11,83.0368 156.61,83.7035 158.5,83.5C 159.434,84.5676 159.768,85.901 159.5,87.5C 158.209,87.2627 157.209,87.596 156.5,88.5C 154.847,88.6596 153.514,89.3263 152.5,90.5C 150.194,92.1394 148.194,94.1394 146.5,96.5C 146.167,96.5 145.833,96.5 145.5,96.5C 146.752,93.0172 147.586,89.3505 148,85.5C 151.417,83.9281 151.251,82.7614 147.5,82C 146.177,81.1841 145.511,80.0174 145.5,78.5C 145.631,77.7611 145.464,77.0944 145,76.5C 139.378,84.845 138.211,84.1783 141.5,74.5C 141.457,73.5836 141.124,72.9169 140.5,72.5 Z"/></g>
<g><path style="opacity:1" fill="#4c3437" d="M 57.5,84.5 C 60.1939,86.5272 62.5272,88.8605 64.5,91.5C 64.5,91.8333 64.5,92.1667 64.5,92.5C 62.9582,93.3007 61.2915,93.634 59.5,93.5C 56.1226,93.9595 52.7893,94.6261 49.5,95.5C 49.4142,94.5041 49.7476,93.6708 50.5,93C 55.0954,91.9539 57.4287,89.1205 57.5,84.5 Z"/></g>
<g><path style="opacity:1" fill="#e9cdc0" d="M 154.5,75.5 C 155.5,76.1667 156.5,76.8333 157.5,77.5C 158.167,78.8333 159.167,79.8333 160.5,80.5C 164.705,82.3638 168.372,85.0304 171.5,88.5C 171.402,93.1375 169.069,95.8042 164.5,96.5C 164.579,95.0695 164.246,93.7362 163.5,92.5C 165.256,90.8087 165.756,88.8087 165,86.5C 164.667,86.8333 164.333,87.1667 164,87.5C 163.393,85.2567 162.06,83.5901 160,82.5C 159.235,82.5699 158.735,82.9033 158.5,83.5C 156.61,83.7035 155.11,83.0368 154,81.5C 154.613,77.9047 153.446,77.5713 150.5,80.5C 149.585,79.6721 148.919,78.6721 148.5,77.5C 150.411,76.5233 152.411,75.8567 154.5,75.5 Z"/></g>
<g><path style="opacity:1" fill="#857668" d="M 197.5,88.5 C 199.621,88.3253 201.621,88.6586 203.5,89.5C 203.5,90.5 203.5,91.5 203.5,92.5C 201.883,93.038 200.216,93.3713 198.5,93.5C 198.371,91.7839 198.038,90.1172 197.5,88.5 Z"/></g>
<g><path style="opacity:1" fill="#a97374" d="M 145.5,78.5 C 145.511,80.0174 146.177,81.1841 147.5,82C 151.251,82.7614 151.417,83.9281 148,85.5C 147.586,89.3505 146.752,93.0172 145.5,96.5C 144.121,98.5969 142.455,98.9302 140.5,97.5C 140.712,94.4416 142.045,91.9416 144.5,90C 143.451,89.5078 142.451,89.6744 141.5,90.5C 139.976,85.5477 141.309,81.5477 145.5,78.5 Z"/></g>
<g><path style="opacity:1" fill="#7a1311" d="M 43.5,70.5 C 44.4614,72.2646 44.7947,74.2646 44.5,76.5C 45.5,76.5 46.5,76.5 47.5,76.5C 47.281,75.325 47.6143,74.325 48.5,73.5C 49.2975,73.9569 49.6309,74.6236 49.5,75.5C 46.0913,81.315 42.9246,87.315 40,93.5C 39.1841,94.8228 38.0174,95.4894 36.5,95.5C 34.1667,95.5 31.8333,95.5 29.5,95.5C 34.408,87.3555 39.0747,79.0222 43.5,70.5 Z"/></g>
<g><path style="opacity:1" fill="#d8c4b6" d="M 206.5,91.5 C 206.5,92.8333 206.5,94.1667 206.5,95.5C 205.265,95.2786 204.265,94.6119 203.5,93.5C 202.692,93.8076 202.025,94.3076 201.5,95C 197.179,95.499 192.846,95.6657 188.5,95.5C 188.5,95.1667 188.5,94.8333 188.5,94.5C 192.042,94.8128 195.375,94.4794 198.5,93.5C 200.216,93.3713 201.883,93.038 203.5,92.5C 204.609,92.4431 205.609,92.1098 206.5,91.5 Z"/></g>
<g><path style="opacity:1" fill="#d2668c" d="M 6.5,91.5 C 11.5947,89.4693 15.5947,90.8026 18.5,95.5C 16.901,95.2322 15.5676,95.5655 14.5,96.5C 12.5887,97.075 10.922,98.075 9.5,99.5C 9.5,96.8333 9.5,94.1667 9.5,91.5C 8.5,91.5 7.5,91.5 6.5,91.5 Z"/></g>
<g><path style="opacity:1" fill="#bfa199" d="M 94.5,87.5 C 98.7166,87.2149 100.883,89.2149 101,93.5C 102.451,95.4641 104.284,96.7974 106.5,97.5C 107.026,99.2303 108.026,100.564 109.5,101.5C 109.5,101.833 109.5,102.167 109.5,102.5C 108.053,103.134 107.387,104.301 107.5,106C 108.567,108.869 108.567,111.703 107.5,114.5C 105.225,109.675 103.558,104.675 102.5,99.5C 100.856,99.2865 99.3561,99.6198 98,100.5C 97.3418,104.572 97.6752,108.572 99,112.5C 102.029,114.029 104.195,116.362 105.5,119.5C 106.729,120.281 108.062,120.781 109.5,121C 110.252,121.671 110.586,122.504 110.5,123.5C 105.475,124.694 102.142,123.028 100.5,118.5C 97.6613,113.494 95.4947,108.161 94,102.5C 90.4265,99.8224 86.5932,97.8224 82.5,96.5C 84.3079,95.0821 84.9746,93.0821 84.5,90.5C 86.8333,90.5 89.1667,90.5 91.5,90.5C 91.5,89.5 91.5,88.5 91.5,87.5C 92.5,87.5 93.5,87.5 94.5,87.5 Z"/></g>
<g><path style="opacity:1" fill="#663d39" d="M 152.5,90.5 C 154.232,93.0389 155.232,96.0389 155.5,99.5C 156.689,100.429 158.022,100.762 159.5,100.5C 160.167,100.5 160.5,100.833 160.5,101.5C 159.391,101.557 158.391,101.89 157.5,102.5C 155.833,102.5 154.167,102.5 152.5,102.5C 152.324,98.7349 150.324,96.7349 146.5,96.5C 148.194,94.1394 150.194,92.1394 152.5,90.5 Z"/></g>
<g><path style="opacity:1" fill="#d6b2ab" d="M 158.5,83.5 C 158.735,82.9033 159.235,82.5699 160,82.5C 162.06,83.5901 163.393,85.2567 164,87.5C 164.333,87.1667 164.667,86.8333 165,86.5C 165.756,88.8087 165.256,90.8087 163.5,92.5C 164.246,93.7362 164.579,95.0695 164.5,96.5C 169.069,95.8042 171.402,93.1375 171.5,88.5C 173.326,90.1475 174.66,92.1475 175.5,94.5C 172.726,95.7226 170.059,97.2226 167.5,99C 164.854,99.4974 162.187,99.6641 159.5,99.5C 157.148,98.048 156.815,96.048 158.5,93.5C 157.826,91.8045 157.159,90.1379 156.5,88.5C 157.209,87.596 158.209,87.2627 159.5,87.5C 159.768,85.901 159.434,84.5676 158.5,83.5 Z"/></g>
<g><path style="opacity:1" fill="#eae8ed" d="M 160.5,80.5 C 164.167,80.5 167.833,80.5 171.5,80.5C 175.029,81.5217 177.529,83.855 179,87.5C 180.129,89.1412 181.629,90.1412 183.5,90.5C 184.728,92.0098 184.728,93.5098 183.5,95C 185.134,95.4935 186.801,95.6602 188.5,95.5C 192.846,95.6657 197.179,95.499 201.5,95C 202.025,94.3076 202.692,93.8076 203.5,93.5C 204.265,94.6119 205.265,95.2786 206.5,95.5C 206.5,95.8333 206.5,96.1667 206.5,96.5C 199.795,99.0238 192.961,100.024 186,99.5C 179.789,101.434 173.289,102.101 166.5,101.5C 168.832,99.6675 171.498,98.3341 174.5,97.5C 175.127,96.5832 175.461,95.5832 175.5,94.5C 174.66,92.1475 173.326,90.1475 171.5,88.5C 168.372,85.0304 164.705,82.3638 160.5,80.5 Z"/></g>
<g><path style="opacity:1" fill="#f6f6fc" d="M 206.5,96.5 C 206.5,102.5 206.5,108.5 206.5,114.5C 199.492,114.334 192.492,114.5 185.5,115C 182.048,116.226 178.715,117.726 175.5,119.5C 174.522,119.023 173.689,118.357 173,117.5C 170.91,118.791 169.576,118.124 169,115.5C 168.282,116.451 167.449,116.617 166.5,116C 167.711,115.107 167.711,114.274 166.5,113.5C 164.812,115.029 163.479,116.863 162.5,119C 165.849,119.089 166.349,120.256 164,122.5C 163.667,121.833 163.333,121.167 163,120.5C 162.51,121.793 162.343,123.127 162.5,124.5C 156.544,123.913 150.878,122.579 145.5,120.5C 148.777,120.216 151.943,120.549 155,121.5C 153.235,117.761 154.402,114.594 158.5,112C 155.167,112 151.833,112 148.5,112C 147.026,110.684 145.359,109.684 143.5,109C 148.572,107.94 153.572,107.107 158.5,106.5C 160.532,105.952 161.532,104.619 161.5,102.5C 163.415,102.784 165.081,102.451 166.5,101.5C 173.289,102.101 179.789,101.434 186,99.5C 192.961,100.024 199.795,99.0238 206.5,96.5 Z"/></g>
<g><path style="opacity:1" fill="#592215" d="M 114.5,98.5 C 115.5,98.8333 116.167,99.5 116.5,100.5C 114.139,100.674 111.806,101.007 109.5,101.5C 108.026,100.564 107.026,99.2303 106.5,97.5C 107.416,97.0183 108.416,96.685 109.5,96.5C 111.177,97.1869 112.844,97.8535 114.5,98.5 Z"/></g>
<g><path style="opacity:1" fill="#fa9ac3" d="M 6.5,91.5 C 7.5,91.5 8.5,91.5 9.5,91.5C 9.5,94.1667 9.5,96.8333 9.5,99.5C 9.5,106.833 9.5,114.167 9.5,121.5C 8.69088,119.708 8.19088,117.708 8,115.5C 7.66667,117.167 7.33333,118.833 7,120.5C 6.66667,118.167 6.33333,115.833 6,113.5C 5,114.167 4,114.833 3,115.5C 1.25811,115.236 0.091443,113.903 -0.5,111.5C -0.5,105.167 -0.5,98.8333 -0.5,92.5C 1.76375,91.7814 4.09709,91.448 6.5,91.5 Z"/></g>
<g><path style="opacity:1" fill="#654b5c" d="M 128.5,95.5 C 128.369,96.3764 128.702,97.0431 129.5,97.5C 131.07,95.6212 132.736,95.2878 134.5,96.5C 129.739,98.3256 124.739,99.659 119.5,100.5C 121.143,96.5095 124.143,94.8429 128.5,95.5 Z"/></g>
<g><path style="opacity:1" fill="#4b3a3c" d="M 134.5,96.5 C 136.621,96.3253 138.621,96.6586 140.5,97.5C 142.455,98.9302 144.121,98.5969 145.5,96.5C 145.833,96.5 146.167,96.5 146.5,96.5C 146.5,98.5 146.5,100.5 146.5,102.5C 136.494,102.334 126.494,102.5 116.5,103C 114.922,104.094 113.255,104.928 111.5,105.5C 111.068,104.29 110.401,103.29 109.5,102.5C 109.5,102.167 109.5,101.833 109.5,101.5C 111.806,101.007 114.139,100.674 116.5,100.5C 117.5,100.5 118.5,100.5 119.5,100.5C 124.739,99.659 129.739,98.3256 134.5,96.5 Z"/></g>
<g><path style="opacity:1" fill="#aa6d67" d="M 156.5,88.5 C 157.159,90.1379 157.826,91.8045 158.5,93.5C 156.815,96.048 157.148,98.048 159.5,99.5C 159.5,99.8333 159.5,100.167 159.5,100.5C 158.022,100.762 156.689,100.429 155.5,99.5C 155.232,96.0389 154.232,93.0389 152.5,90.5C 153.514,89.3263 154.847,88.6596 156.5,88.5 Z"/></g>
<g><path style="opacity:1" fill="#9b8380" d="M 175.5,94.5 C 175.461,95.5832 175.127,96.5832 174.5,97.5C 171.498,98.3341 168.832,99.6675 166.5,101.5C 164.5,101.5 162.5,101.5 160.5,101.5C 160.5,100.833 160.167,100.5 159.5,100.5C 159.5,100.167 159.5,99.8333 159.5,99.5C 162.187,99.6641 164.854,99.4974 167.5,99C 170.059,97.2226 172.726,95.7226 175.5,94.5 Z"/></g>
<g><path style="opacity:1" fill="#f0d7c5" d="M 71.5,93.5 C 75.3139,94.0364 78.9806,95.0364 82.5,96.5C 86.5932,97.8224 90.4265,99.8224 94,102.5C 95.4947,108.161 97.6613,113.494 100.5,118.5C 100.737,119.791 100.404,120.791 99.5,121.5C 99.628,119.345 99.128,117.345 98,115.5C 94.1569,111.126 90.3236,106.793 86.5,102.5C 82.2383,99.4673 77.5717,97.9673 72.5,98C 70.6734,98.8993 69.34,100.233 68.5,102C 69.7917,102.972 71.4584,104.139 73.5,105.5C 74.9923,108.323 77.3257,109.99 80.5,110.5C 82.0905,112.633 84.0905,114.299 86.5,115.5C 92.3705,115.653 93.8705,118.32 91,123.5C 89.8333,122.333 88.6667,121.167 87.5,120C 83.6609,119.764 79.9942,118.931 76.5,117.5C 72.6853,114.873 68.5187,112.873 64,111.5C 62.8333,111.833 61.6667,112.167 60.5,112.5C 62.2982,115.289 62.7982,118.289 62,121.5C 60.6439,122.38 59.1439,122.714 57.5,122.5C 54.4833,117.1 53.9833,111.433 56,105.5C 59.0946,101.719 62.2613,98.0528 65.5,94.5C 67.396,93.5344 69.396,93.2011 71.5,93.5 Z"/></g>
<g><path style="opacity:1" fill="#d5b8a1" d="M 59.5,93.5 C 57.0934,94.7117 54.76,96.2117 52.5,98C 48.5028,97.9574 44.5028,98.7908 40.5,100.5C 38.5864,103.445 36.5864,106.279 34.5,109C 35.914,110.993 36.914,113.16 37.5,115.5C 34.8377,116.244 31.8377,116.911 28.5,117.5C 28.7373,118.791 28.404,119.791 27.5,120.5C 23.7876,122.335 20.9543,121.335 19,117.5C 18.2571,115.559 18.4238,113.726 19.5,112C 17.2814,107.646 16.9481,103.146 18.5,98.5C 24.2079,96.6136 30.2079,95.9469 36.5,96.5C 39.5,96.5 42.5,96.5 45.5,96.5C 46.8333,96.1667 48.1667,95.8333 49.5,95.5C 52.7893,94.6261 56.1226,93.9595 59.5,93.5 Z"/></g>
<g><path style="opacity:1" fill="#9c8e9c" d="M 146.5,96.5 C 150.324,96.7349 152.324,98.7349 152.5,102.5C 154.167,102.5 155.833,102.5 157.5,102.5C 151.383,103.879 145.05,104.546 138.5,104.5C 130.975,103.252 123.308,103.252 115.5,104.5C 115.281,105.675 115.614,106.675 116.5,107.5C 120.165,108.631 123.831,109.631 127.5,110.5C 126.738,112.262 125.404,113.262 123.5,113.5C 122.5,113.5 121.5,113.5 120.5,113.5C 118.208,111.733 115.542,110.733 112.5,110.5C 112.371,108.784 112.038,107.117 111.5,105.5C 113.255,104.928 114.922,104.094 116.5,103C 126.494,102.5 136.494,102.334 146.5,102.5C 146.5,100.5 146.5,98.5 146.5,96.5 Z"/></g>
<g><path style="opacity:1" fill="#bd8f86" d="M 86.5,111.5 C 84.4352,111.483 82.4352,111.15 80.5,110.5C 77.3257,109.99 74.9923,108.323 73.5,105.5C 73.8425,103.775 74.8425,103.275 76.5,104C 79.4004,107.262 82.7337,109.762 86.5,111.5 Z"/></g>
<g><path style="opacity:1" fill="#ddd6e0" d="M 160.5,101.5 C 162.5,101.5 164.5,101.5 166.5,101.5C 165.081,102.451 163.415,102.784 161.5,102.5C 161.532,104.619 160.532,105.952 158.5,106.5C 151.062,106.151 143.728,106.818 136.5,108.5C 133.453,109.875 132.12,112.208 132.5,115.5C 129.171,115.785 126.171,115.118 123.5,113.5C 125.404,113.262 126.738,112.262 127.5,110.5C 130.516,109.727 132.85,108.061 134.5,105.5C 135.689,104.571 137.022,104.238 138.5,104.5C 145.05,104.546 151.383,103.879 157.5,102.5C 158.391,101.89 159.391,101.557 160.5,101.5 Z"/></g>
<g><path style="opacity:1" fill="#cab9be" d="M 138.5,104.5 C 137.022,104.238 135.689,104.571 134.5,105.5C 132.85,108.061 130.516,109.727 127.5,110.5C 123.831,109.631 120.165,108.631 116.5,107.5C 115.614,106.675 115.281,105.675 115.5,104.5C 123.308,103.252 130.975,103.252 138.5,104.5 Z"/></g>
<g><path style="opacity:1" fill="#e2c4ab" d="M 64.5,92.5 C 66.8333,92.5 69.1667,92.5 71.5,92.5C 71.5,92.8333 71.5,93.1667 71.5,93.5C 69.396,93.2011 67.396,93.5344 65.5,94.5C 62.2613,98.0528 59.0946,101.719 56,105.5C 53.9833,111.433 54.4833,117.1 57.5,122.5C 53.6766,121.546 50.3433,119.712 47.5,117C 48.3366,115.989 48.67,114.822 48.5,113.5C 47.5,113.5 46.5,113.5 45.5,113.5C 45.6567,114.873 45.49,116.207 45,117.5C 44.6924,116.692 44.1924,116.025 43.5,115.5C 42.5713,116.689 42.238,118.022 42.5,119.5C 41.5,119.5 40.5,119.5 39.5,119.5C 39.8432,117.517 39.1765,116.183 37.5,115.5C 36.914,113.16 35.914,110.993 34.5,109C 36.5864,106.279 38.5864,103.445 40.5,100.5C 44.5028,98.7908 48.5028,97.9574 52.5,98C 54.76,96.2117 57.0934,94.7117 59.5,93.5C 61.2915,93.634 62.9582,93.3007 64.5,92.5 Z"/></g>
<g><path style="opacity:1" fill="#8a4b41" d="M 80.5,110.5 C 82.4352,111.15 84.4352,111.483 86.5,111.5C 87.1164,113.417 88.4497,114.584 90.5,115C 89.2068,115.49 87.8734,115.657 86.5,115.5C 84.0905,114.299 82.0905,112.633 80.5,110.5 Z"/></g>
<g><path style="opacity:1" fill="#dfc0b7" d="M 109.5,102.5 C 110.401,103.29 111.068,104.29 111.5,105.5C 112.038,107.117 112.371,108.784 112.5,110.5C 115.542,110.733 118.208,111.733 120.5,113.5C 116.177,113.828 113.844,116.161 113.5,120.5C 112.5,121.5 111.5,122.5 110.5,123.5C 110.586,122.504 110.252,121.671 109.5,121C 108.062,120.781 106.729,120.281 105.5,119.5C 104.195,116.362 102.029,114.029 99,112.5C 97.6752,108.572 97.3418,104.572 98,100.5C 99.3561,99.6198 100.856,99.2865 102.5,99.5C 103.558,104.675 105.225,109.675 107.5,114.5C 108.567,111.703 108.567,108.869 107.5,106C 107.387,104.301 108.053,103.134 109.5,102.5 Z"/></g>
<g><path style="opacity:1" fill="#ebf4fb" d="M 206.5,114.5 C 206.5,114.833 206.5,115.167 206.5,115.5C 200.077,115.209 193.744,115.542 187.5,116.5C 180.447,117.525 174.78,120.858 170.5,126.5C 172.435,127.213 172.768,128.213 171.5,129.5C 167.5,130.167 163.5,130.833 159.5,131.5C 155.689,130.355 151.689,130.188 147.5,131C 143.389,131.57 140.056,132.403 137.5,133.5C 129.146,134.688 120.812,136.021 112.5,137.5C 110.5,137.5 108.5,137.5 106.5,137.5C 114.797,134.706 123.463,133.206 132.5,133C 137.638,130.972 142.971,129.472 148.5,128.5C 149.274,129.147 150.274,129.48 151.5,129.5C 156.814,128.822 162.148,128.322 167.5,128C 166.584,127.722 165.918,127.222 165.5,126.5C 167.028,126.483 167.528,125.816 167,124.5C 165.549,124.264 164.049,124.264 162.5,124.5C 162.343,123.127 162.51,121.793 163,120.5C 163.333,121.167 163.667,121.833 164,122.5C 166.349,120.256 165.849,119.089 162.5,119C 163.479,116.863 164.812,115.029 166.5,113.5C 167.711,114.274 167.711,115.107 166.5,116C 167.449,116.617 168.282,116.451 169,115.5C 169.576,118.124 170.91,118.791 173,117.5C 173.689,118.357 174.522,119.023 175.5,119.5C 178.715,117.726 182.048,116.226 185.5,115C 192.492,114.5 199.492,114.334 206.5,114.5 Z"/></g>
<g><path style="opacity:1" fill="#ececf8" d="M 158.5,106.5 C 153.572,107.107 148.572,107.94 143.5,109C 145.359,109.684 147.026,110.684 148.5,112C 151.833,112 155.167,112 158.5,112C 154.402,114.594 153.235,117.761 155,121.5C 151.943,120.549 148.777,120.216 145.5,120.5C 144.041,120.567 142.708,120.234 141.5,119.5C 135.788,116.522 129.788,116.022 123.5,118C 122.382,119.074 121.382,120.24 120.5,121.5C 119.833,120.833 119.167,120.167 118.5,119.5C 116.929,120.309 115.262,120.643 113.5,120.5C 113.844,116.161 116.177,113.828 120.5,113.5C 121.5,113.5 122.5,113.5 123.5,113.5C 126.171,115.118 129.171,115.785 132.5,115.5C 132.12,112.208 133.453,109.875 136.5,108.5C 143.728,106.818 151.062,106.151 158.5,106.5 Z"/></g>
<g><path style="opacity:1" fill="#f3f3fb" d="M 141.5,119.5 C 135.621,122.75 129.454,123.75 123,122.5C 120.193,124.77 117.193,125.77 114,125.5C 111.211,128.582 107.878,130.915 104,132.5C 103.228,132.355 102.561,132.022 102,131.5C 97.4084,133.538 92.5751,134.538 87.5,134.5C 87.5774,133.25 88.244,132.417 89.5,132C 94.2219,131.367 98.5552,130.2 102.5,128.5C 101.227,126.287 100.227,123.954 99.5,121.5C 100.404,120.791 100.737,119.791 100.5,118.5C 102.142,123.028 105.475,124.694 110.5,123.5C 111.5,122.5 112.5,121.5 113.5,120.5C 115.262,120.643 116.929,120.309 118.5,119.5C 119.167,120.167 119.833,120.833 120.5,121.5C 121.382,120.24 122.382,119.074 123.5,118C 129.788,116.022 135.788,116.522 141.5,119.5 Z"/></g>
<g><path style="opacity:1" fill="#7e8ca1" d="M 206.5,115.5 C 206.5,116.167 206.5,116.833 206.5,117.5C 199.978,117.823 193.645,117.49 187.5,116.5C 193.744,115.542 200.077,115.209 206.5,115.5 Z"/></g>
<g><path style="opacity:1" fill="#b7998c" d="M 18.5,95.5 C 20.1667,95.5 21.8333,95.5 23.5,95.5C 25.5,95.5 27.5,95.5 29.5,95.5C 31.8333,95.5 34.1667,95.5 36.5,95.5C 36.5,95.8333 36.5,96.1667 36.5,96.5C 30.2079,95.9469 24.2079,96.6136 18.5,98.5C 16.6096,98.2965 15.1096,98.9632 14,100.5C 12.6908,105.066 12.1908,109.733 12.5,114.5C 13.8221,114.33 14.9887,114.663 16,115.5C 18.0156,119.542 20.5156,123.209 23.5,126.5C 20.333,126.6 17.333,125.933 14.5,124.5C 11.5557,116.49 10.7224,108.157 12,99.5C 13.045,98.6266 13.8783,97.6266 14.5,96.5C 15.5676,95.5655 16.901,95.2322 18.5,95.5 Z"/></g>
<g><path style="opacity:1" fill="#e678a5" d="M -0.5,111.5 C 0.091443,113.903 1.25811,115.236 3,115.5C 4,114.833 5,114.167 6,113.5C 6.33333,115.833 6.66667,118.167 7,120.5C 7.33333,118.833 7.66667,117.167 8,115.5C 8.19088,117.708 8.69088,119.708 9.5,121.5C 9.79586,123.403 10.4625,125.07 11.5,126.5C 11.5569,127.609 11.8902,128.609 12.5,129.5C 8.16667,129.5 3.83333,129.5 -0.5,129.5C -0.5,123.5 -0.5,117.5 -0.5,111.5 Z"/></g>
<g><path style="opacity:1" fill="#dbbeb1" d="M 76.5,117.5 C 76.6107,118.117 76.944,118.617 77.5,119C 75.9336,119.608 74.6002,120.442 73.5,121.5C 71.8712,120.375 70.3712,119.041 69,117.5C 68.3333,118.167 68.3333,118.833 69,119.5C 72,121.833 75,124.167 78,126.5C 78.4828,127.448 78.6495,128.448 78.5,129.5C 74.7956,129.276 71.129,129.11 67.5,129C 69.7596,129.549 71.4262,130.716 72.5,132.5C 72.1667,132.5 71.8333,132.5 71.5,132.5C 68.5718,132.565 65.9052,133.232 63.5,134.5C 62.8843,135.202 62.8843,136.202 63.5,137.5C 62.8333,137.5 62.1667,137.5 61.5,137.5C 61.5,136.167 61.5,134.833 61.5,133.5C 59.8333,133.5 58.1667,133.5 56.5,133.5C 55.1667,133.5 53.8333,133.5 52.5,133.5C 48.5134,129.068 43.8468,125.401 38.5,122.5C 37.4032,120.771 36.2365,119.104 35,117.5C 33.2287,118.304 31.7287,119.471 30.5,121C 29.2506,121.74 28.2506,121.573 27.5,120.5C 28.404,119.791 28.7373,118.791 28.5,117.5C 31.8377,116.911 34.8377,116.244 37.5,115.5C 39.1765,116.183 39.8432,117.517 39.5,119.5C 40.5,119.5 41.5,119.5 42.5,119.5C 42.238,118.022 42.5713,116.689 43.5,115.5C 44.1924,116.025 44.6924,116.692 45,117.5C 45.49,116.207 45.6567,114.873 45.5,113.5C 46.5,113.5 47.5,113.5 48.5,113.5C 48.67,114.822 48.3366,115.989 47.5,117C 50.3433,119.712 53.6766,121.546 57.5,122.5C 59.1439,122.714 60.6439,122.38 62,121.5C 62.7982,118.289 62.2982,115.289 60.5,112.5C 61.6667,112.167 62.8333,111.833 64,111.5C 68.5187,112.873 72.6853,114.873 76.5,117.5 Z"/></g>
<g><path style="opacity:1" fill="#e5c6b9" d="M 99.5,121.5 C 100.227,123.954 101.227,126.287 102.5,128.5C 97.1503,128.166 94.817,125.5 95.5,120.5C 94.1408,121.624 93.1408,122.958 92.5,124.5C 89.8143,125.537 87.1477,126.537 84.5,127.5C 80.4111,126.289 76.7445,124.289 73.5,121.5C 74.6002,120.442 75.9336,119.608 77.5,119C 76.944,118.617 76.6107,118.117 76.5,117.5C 79.9942,118.931 83.6609,119.764 87.5,120C 88.6667,121.167 89.8333,122.333 91,123.5C 93.8705,118.32 92.3705,115.653 86.5,115.5C 87.8734,115.657 89.2068,115.49 90.5,115C 88.4497,114.584 87.1164,113.417 86.5,111.5C 82.7337,109.762 79.4004,107.262 76.5,104C 74.8425,103.275 73.8425,103.775 73.5,105.5C 71.4584,104.139 69.7917,102.972 68.5,102C 69.34,100.233 70.6734,98.8993 72.5,98C 77.5717,97.9673 82.2383,99.4673 86.5,102.5C 90.3236,106.793 94.1569,111.126 98,115.5C 99.128,117.345 99.628,119.345 99.5,121.5 Z"/></g>
<g><path style="opacity:1" fill="#f9fbfe" d="M 141.5,119.5 C 142.708,120.234 144.041,120.567 145.5,120.5C 150.878,122.579 156.544,123.913 162.5,124.5C 164.049,124.264 165.549,124.264 167,124.5C 167.528,125.816 167.028,126.483 165.5,126.5C 159.714,126.312 154.047,126.978 148.5,128.5C 142.971,129.472 137.638,130.972 132.5,133C 123.463,133.206 114.797,134.706 106.5,137.5C 92.5,137.5 78.5,137.5 64.5,137.5C 72.1334,136.976 79.8001,135.976 87.5,134.5C 92.5751,134.538 97.4084,133.538 102,131.5C 102.561,132.022 103.228,132.355 104,132.5C 107.878,130.915 111.211,128.582 114,125.5C 117.193,125.77 120.193,124.77 123,122.5C 129.454,123.75 135.621,122.75 141.5,119.5 Z"/></g>
<g><path style="opacity:1" fill="#2c282f" d="M 192.5,119.5 C 196.182,119.335 199.848,119.501 203.5,120C 202.027,120.71 201.36,121.876 201.5,123.5C 197.486,123.666 193.486,123.499 189.5,123C 188.584,122.722 187.918,122.222 187.5,121.5C 189.05,120.559 190.716,119.893 192.5,119.5 Z"/></g>
<g><path style="opacity:1" fill="#c5cddc" d="M 187.5,116.5 C 193.645,117.49 199.978,117.823 206.5,117.5C 206.5,117.833 206.5,118.167 206.5,118.5C 201.637,118.181 196.97,118.514 192.5,119.5C 190.716,119.893 189.05,120.559 187.5,121.5C 186.5,121.833 185.833,122.5 185.5,123.5C 182.663,122.384 179.996,122.884 177.5,125C 178.833,125.667 178.833,126.333 177.5,127C 175.593,128.122 173.593,128.955 171.5,129.5C 172.768,128.213 172.435,127.213 170.5,126.5C 174.78,120.858 180.447,117.525 187.5,116.5 Z"/></g>
<g><path style="opacity:1" fill="#9e726e" d="M 14.5,96.5 C 13.8783,97.6266 13.045,98.6266 12,99.5C 10.7224,108.157 11.5557,116.49 14.5,124.5C 17.333,125.933 20.333,126.6 23.5,126.5C 25.099,126.232 26.4324,126.566 27.5,127.5C 22.0735,127.782 16.7401,127.449 11.5,126.5C 10.4625,125.07 9.79586,123.403 9.5,121.5C 9.5,114.167 9.5,106.833 9.5,99.5C 10.922,98.075 12.5887,97.075 14.5,96.5 Z"/></g>
<g><path style="opacity:1" fill="#caada3" d="M 18.5,98.5 C 16.9481,103.146 17.2814,107.646 19.5,112C 18.4238,113.726 18.2571,115.559 19,117.5C 20.9543,121.335 23.7876,122.335 27.5,120.5C 28.2506,121.573 29.2506,121.74 30.5,121C 31.7287,119.471 33.2287,118.304 35,117.5C 36.2365,119.104 37.4032,120.771 38.5,122.5C 43.8468,125.401 48.5134,129.068 52.5,133.5C 48.9581,133.813 45.6248,133.479 42.5,132.5C 43.8734,132.657 45.2068,132.49 46.5,132C 45.5842,131.722 44.9175,131.222 44.5,130.5C 44.9382,130.565 45.2716,130.399 45.5,130C 44.6721,129.085 43.6721,128.419 42.5,128C 37.5111,127.501 32.5111,127.334 27.5,127.5C 26.4324,126.566 25.099,126.232 23.5,126.5C 20.5156,123.209 18.0156,119.542 16,115.5C 14.9887,114.663 13.8221,114.33 12.5,114.5C 12.1908,109.733 12.6908,105.066 14,100.5C 15.1096,98.9632 16.6096,98.2965 18.5,98.5 Z"/></g>
<g><path style="opacity:1" fill="#6d6d7b" d="M 192.5,119.5 C 196.97,118.514 201.637,118.181 206.5,118.5C 206.5,120.167 206.5,121.833 206.5,123.5C 199.47,125.794 192.47,125.794 185.5,123.5C 185.833,122.5 186.5,121.833 187.5,121.5C 187.918,122.222 188.584,122.722 189.5,123C 193.486,123.499 197.486,123.666 201.5,123.5C 201.36,121.876 202.027,120.71 203.5,120C 199.848,119.501 196.182,119.335 192.5,119.5 Z"/></g>
<g><path style="opacity:1" fill="#b6c6eb" d="M 165.5,126.5 C 165.918,127.222 166.584,127.722 167.5,128C 162.148,128.322 156.814,128.822 151.5,129.5C 150.274,129.48 149.274,129.147 148.5,128.5C 154.047,126.978 159.714,126.312 165.5,126.5 Z"/></g>
<g><path style="opacity:1" fill="#543a46" d="M 11.5,126.5 C 16.7401,127.449 22.0735,127.782 27.5,127.5C 32.5111,127.334 37.5111,127.501 42.5,128C 43.6721,128.419 44.6721,129.085 45.5,130C 45.2716,130.399 44.9382,130.565 44.5,130.5C 33.872,129.57 23.2053,129.237 12.5,129.5C 11.8902,128.609 11.5569,127.609 11.5,126.5 Z"/></g>
<g><path style="opacity:1" fill="#c19f9b" d="M 73.5,121.5 C 76.7445,124.289 80.4111,126.289 84.5,127.5C 87.1477,126.537 89.8143,125.537 92.5,124.5C 93.0906,125.151 93.7573,125.818 94.5,126.5C 91.5837,129.793 87.917,131.793 83.5,132.5C 79.9674,131.285 76.3008,131.285 72.5,132.5C 71.4262,130.716 69.7596,129.549 67.5,129C 71.129,129.11 74.7956,129.276 78.5,129.5C 78.6495,128.448 78.4828,127.448 78,126.5C 75,124.167 72,121.833 69,119.5C 68.3333,118.833 68.3333,118.167 69,117.5C 70.3712,119.041 71.8712,120.375 73.5,121.5 Z"/></g>
<g><path style="opacity:1" fill="#bbb0c4" d="M 12.5,129.5 C 23.2053,129.237 33.872,129.57 44.5,130.5C 44.9175,131.222 45.5842,131.722 46.5,132C 45.2068,132.49 43.8734,132.657 42.5,132.5C 32.2913,132.152 22.2913,131.152 12.5,129.5 Z"/></g>
<g><path style="opacity:1" fill="#d03d43" d="M -0.5,129.5 C 3.83333,129.5 8.16667,129.5 12.5,129.5C 22.2913,131.152 32.2913,132.152 42.5,132.5C 45.6248,133.479 48.9581,133.813 52.5,133.5C 53.8333,133.5 55.1667,133.5 56.5,133.5C 56.9175,134.222 57.5842,134.722 58.5,135C 38.7994,134.649 19.1328,133.482 -0.5,131.5C -0.5,130.833 -0.5,130.167 -0.5,129.5 Z"/></g>
<g><path style="opacity:1" fill="#ca5d6b" d="M -0.5,131.5 C 19.1328,133.482 38.7994,134.649 58.5,135C 57.5842,134.722 56.9175,134.222 56.5,133.5C 58.1667,133.5 59.8333,133.5 61.5,133.5C 61.5,134.833 61.5,136.167 61.5,137.5C 49.1667,137.5 36.8333,137.5 24.5,137.5C 16.3624,136.233 8.02908,135.566 -0.5,135.5C -0.5,134.167 -0.5,132.833 -0.5,131.5 Z"/></g>
<g><path style="opacity:1" fill="#6b5466" d="M 83.5,132.5 C 82.1667,132.833 80.8333,133.167 79.5,133.5C 76.6146,133.806 73.9479,133.473 71.5,132.5C 71.8333,132.5 72.1667,132.5 72.5,132.5C 76.3008,131.285 79.9674,131.285 83.5,132.5 Z"/></g>
<g><path style="opacity:1" fill="#a6babb" d="M 159.5,131.5 C 152.188,132.385 144.855,133.052 137.5,133.5C 140.056,132.403 143.389,131.57 147.5,131C 151.689,130.188 155.689,130.355 159.5,131.5 Z"/></g>
<g><path style="opacity:1" fill="#f5f7fb" d="M 185.5,123.5 C 192.47,125.794 199.47,125.794 206.5,123.5C 206.5,125.833 206.5,128.167 206.5,130.5C 204.708,130.366 203.042,130.699 201.5,131.5C 197.68,133.624 193.68,134.124 189.5,133C 194.89,135.519 200.556,136.686 206.5,136.5C 206.5,136.833 206.5,137.167 206.5,137.5C 175.167,137.5 143.833,137.5 112.5,137.5C 120.812,136.021 129.146,134.688 137.5,133.5C 144.855,133.052 152.188,132.385 159.5,131.5C 163.5,130.833 167.5,130.167 171.5,129.5C 173.593,128.955 175.593,128.122 177.5,127C 178.833,126.333 178.833,125.667 177.5,125C 179.996,122.884 182.663,122.384 185.5,123.5 Z"/></g>
<g><path style="opacity:1" fill="#978598" d="M 71.5,132.5 C 73.9479,133.473 76.6146,133.806 79.5,133.5C 74.3595,134.488 69.0262,134.821 63.5,134.5C 65.9052,133.232 68.5718,132.565 71.5,132.5 Z"/></g>
<g><path style="opacity:1" fill="#d1c4c8" d="M 201.5,131.5 C 202.684,132.688 202.684,133.855 201.5,135C 203.134,135.494 204.801,135.66 206.5,135.5C 206.5,135.833 206.5,136.167 206.5,136.5C 200.556,136.686 194.89,135.519 189.5,133C 193.68,134.124 197.68,133.624 201.5,131.5 Z"/></g>
<g><path style="opacity:1" fill="#53489f" d="M 206.5,130.5 C 206.5,132.167 206.5,133.833 206.5,135.5C 204.801,135.66 203.134,135.494 201.5,135C 202.684,133.855 202.684,132.688 201.5,131.5C 203.042,130.699 204.708,130.366 206.5,130.5 Z"/></g>
<g><path style="opacity:1" fill="#e2d8e3" d="M 102.5,128.5 C 98.5552,130.2 94.2219,131.367 89.5,132C 88.244,132.417 87.5774,133.25 87.5,134.5C 79.8001,135.976 72.1334,136.976 64.5,137.5C 64.1667,137.5 63.8333,137.5 63.5,137.5C 62.8843,136.202 62.8843,135.202 63.5,134.5C 69.0262,134.821 74.3595,134.488 79.5,133.5C 80.8333,133.167 82.1667,132.833 83.5,132.5C 87.917,131.793 91.5837,129.793 94.5,126.5C 93.7573,125.818 93.0906,125.151 92.5,124.5C 93.1408,122.958 94.1408,121.624 95.5,120.5C 94.817,125.5 97.1503,128.166 102.5,128.5 Z"/></g>
<g><path style="opacity:1" fill="#e2dcea" d="M -0.5,135.5 C 8.02908,135.566 16.3624,136.233 24.5,137.5C 16.1667,137.5 7.83333,137.5 -0.5,137.5C -0.5,136.833 -0.5,136.167 -0.5,135.5 Z"/></g>
</svg>
